<?xml version="1.0" encoding="utf-8"?>
<!-- Generator: Adobe Illustrator 19.1.0, SVG Export Plug-In . SVG Version: 6.00 Build 0)  -->
<svg version="1.1" id="Layer_1" xmlns="http://www.w3.org/2000/svg" xmlns:xlink="http://www.w3.org/1999/xlink" x="0px" y="0px"
	 viewBox="0 0 576 576" style="enable-background:new 0 0 576 576;" xml:space="preserve">
<style type="text/css">
	.st0{fill:#FED245;}
</style>
<g>
	<path class="st0" d="M288,1.2c62,0,123.9-0.5,185.9,0.2c32.2,0.3,58.1,15.2,78.2,39.9c16.3,20,23.5,43.4,23.6,68.9
		c0.2,118.6,0.6,237.2-0.2,355.8c-0.3,47.1-22.8,81.7-66.5,101.2c-11.6,5.2-23.9,7.9-36.8,7.8c-122.3,0-244.7,0-367,0
		c-43.9,0-84.6-29.9-98.8-71.9c-4.3-12.6-6.3-25.6-6.3-38.8C0.1,346.8-0.3,229.2,0.3,111.7c0.2-47.8,22.2-83,66.5-102.9
		c11.1-5,22.9-7.7,35.2-7.7C164,1.2,226,1.2,288,1.2z M73.4,284.5c0,41.1,0,82.3,0,123.4c0,9.6,0,9.6,9.8,9.6
		c33.8,0,67.7,0.2,101.5-0.1c12.6-0.1,25.3-0.5,37.8-2c16.8-2,32.6-7.6,46.1-18.2c20.3-15.9,28-37.4,26.4-62.7
		c-1.7-27.7-13.6-48.5-40.2-59.5c-1.2-0.5-2.1-1.7-3.2-2.5c1-0.9,1.9-2,3.1-2.7c12.8-8,23.1-18.5,26-33.7c1.9-9.8,2.1-20.2,1.3-30.2
		c-1.7-20.4-12.3-35.2-30.8-44.1c-17.8-8.6-37.1-9.7-56.3-9.9c-37.4-0.4-74.8-0.1-112.2-0.1c-9.3,0-9.3,0-9.3,9.6
		C73.4,202.6,73.4,243.5,73.4,284.5z M433.8,334.8c20.5,0,41,0,61.4,0c6.9,0,7.4-0.3,7.1-7.3c-0.5-10.3-0.7-20.7-2.6-30.8
		c-3.7-19.8-12.2-37.5-26.6-51.9c-19.6-19.5-43.7-26.6-70.7-24.8c-36.5,2.4-63.9,19.4-80.7,52c-12.2,23.5-13.7,48.7-8.7,74.4
		c4.4,22.6,14.5,42.2,33.1,56.2c30.2,22.6,64,24.7,99,14.1c27.1-8.1,43-27.9,52.2-53.7c1.1-3,1.9-6.3-3.1-6.3
		c-13.2,0-26.4-0.1-39.5,0.1c-1.6,0-3.8,1.4-4.6,2.8c-9.3,15.9-23.6,21.6-41.3,21.3c-30-0.6-40.1-17.5-43-39.3
		c-0.8-6.2,0-6.8,6.2-6.8C392.5,334.8,413.2,334.8,433.8,334.8z M407.1,197.4c16.2,0,32.4-0.1,48.6,0.1c4.2,0,6.3-1.4,6.2-5.8
		c-0.1-5.7-0.1-11.4,0-17.1c0-3.7-1.5-5.5-5.4-5.5c-32.6,0.1-65.1,0.1-97.7,0c-3.9,0-5.4,1.8-5.4,5.5c0,5.3,0.2,10.7-0.1,16
		c-0.2,5,1.6,7,6.8,6.9C375.8,197.3,391.5,197.4,407.1,197.4z"/>
	<path class="st0" d="M171.1,370.1c-10.7,0-21.3-0.1-32,0.1c-4.2,0.1-6.1-1.4-6.1-5.9c0.2-19.4,0.2-38.8,0-58.2
		c0-4.4,1.6-5.9,5.9-5.9c20.3,0.2,40.6,0,60.8,0.4c4.9,0.1,9.9,1.2,14.6,2.8c16.1,5.7,21.8,17.2,21,35.5
		c-0.9,18.7-12.5,29.7-31.7,30.7c-10.8,0.6-21.7,0.1-32.5,0.1C171.1,369.8,171.1,369.9,171.1,370.1z"/>
	<path class="st0" d="M167.2,258.4c-9.6,0-19.2-0.1-28.8,0c-3.8,0-5.4-1.4-5.4-5.4c0.1-16.2,0.1-32.4,0-48.5c0-3.7,1.6-5.1,5.2-5.1
		c19.4,0.2,38.8,0.1,58.1,0.5c4.2,0.1,8.5,1.3,12.4,2.9c11.6,4.5,17.3,14.6,16.3,27.7c-1.4,17.6-10.8,25.6-30,27.5
		C185.8,259.1,176.5,258.3,167.2,258.4C167.2,258.4,167.2,258.4,167.2,258.4z"/>
	<path class="st0" d="M406.3,299.6c-11.7,0-23.5,0-35.2,0c-3.7,0-5.9-0.9-5.1-5.2c3-14.2,10.5-25.3,24.4-30
		c15.2-5.1,30.6-5,43.9,5.9c7.8,6.4,10.8,15.6,12.7,25.2c0.8,4.1-2.3,4.1-5,4.1C430.1,299.6,418.2,299.6,406.3,299.6z"/>
</g>
</svg>
