<svg xmlns="http://www.w3.org/2000/svg" viewBox="0 0 576 576" enable-background="new 0 0 576 576"><style type="text/css">.st0{fill:#FED245;}</style><path class="st0" d="M288 1.2c62 0 123.9-.5 185.9.2 32.2.3 58.1 15.2 78.2 39.9 16.3 20 23.5 43.4 23.6 68.9.2 118.6.6 237.2-.2 355.8-.3 47.1-22.8 81.7-66.5 101.2-11.6 5.2-23.9 7.9-36.8 7.8h-367c-43.9 0-84.6-29.9-98.8-71.9-4.3-12.6-6.3-25.6-6.3-38.8 0-117.5-.4-235.1.2-352.6.2-47.8 22.2-83 66.5-102.9 11.1-5 22.9-7.7 35.2-7.7 62 .1 124 .1 186 .1zm-214.6 283.3v123.4c0 9.6 0 9.6 9.8 9.6 33.8 0 67.7.2 101.5-.1 12.6-.1 25.3-.5 37.8-2 16.8-2 32.6-7.6 46.1-18.2 20.3-15.9 28-37.4 26.4-62.7-1.7-27.7-13.6-48.5-40.2-59.5-1.2-.5-2.1-1.7-3.2-2.5 1-.9 1.9-2 3.1-2.7 12.8-8 23.1-18.5 26-33.7 1.9-9.8 2.1-20.2 1.3-30.2-1.7-20.4-12.3-35.2-30.8-44.1-17.8-8.6-37.1-9.7-56.3-9.9-37.4-.4-74.8-.1-112.2-.1-9.3 0-9.3 0-9.3 9.6v123.1zm360.4 50.3h61.4c6.9 0 7.4-.3 7.1-7.3-.5-10.3-.7-20.7-2.6-30.8-3.7-19.8-12.2-37.5-26.6-51.9-19.6-19.5-43.7-26.6-70.7-24.8-36.5 2.4-63.9 19.4-80.7 52-12.2 23.5-13.7 48.7-8.7 74.4 4.4 22.6 14.5 42.2 33.1 56.2 30.2 22.6 64 24.7 99 14.1 27.1-8.1 43-27.9 52.2-53.7 1.1-3 1.9-6.3-3.1-6.3-13.2 0-26.4-.1-39.5.1-1.6 0-3.8 1.4-4.6 2.8-9.3 15.9-23.6 21.6-41.3 21.3-30-.6-40.1-17.5-43-39.3-.8-6.2 0-6.8 6.2-6.8h61.8zm-26.7-137.4c16.2 0 32.4-.1 48.6.1 4.2 0 6.3-1.4 6.2-5.8-.1-5.7-.1-11.4 0-17.1 0-3.7-1.5-5.5-5.4-5.5-32.6.1-65.1.1-97.7 0-3.9 0-5.4 1.8-5.4 5.5 0 5.3.2 10.7-.1 16-.2 5 1.6 7 6.8 6.9 15.7-.2 31.4-.1 47-.1zM171.1 370.1c-10.7 0-21.3-.1-32 .1-4.2.1-6.1-1.4-6.1-5.9.2-19.4.2-38.8 0-58.2 0-4.4 1.6-5.9 5.9-5.9 20.3.2 40.6 0 60.8.4 4.9.1 9.9 1.2 14.6 2.8 16.1 5.7 21.8 17.2 21 35.5-.9 18.7-12.5 29.7-31.7 30.7-10.8.6-21.7.1-32.5.1v.4zM167.2 258.4c-9.6 0-19.2-.1-28.8 0-3.8 0-5.4-1.4-5.4-5.4.1-16.2.1-32.4 0-48.5 0-3.7 1.6-5.1 5.2-5.1 19.4.2 38.8.1 58.1.5 4.2.1 8.5 1.3 12.4 2.9 11.6 4.5 17.3 14.6 16.3 27.7-1.4 17.6-10.8 25.6-30 27.5-9.2 1.1-18.5.3-27.8.4zM406.3 299.6h-35.2c-3.7 0-5.9-.9-5.1-5.2 3-14.2 10.5-25.3 24.4-30 15.2-5.1 30.6-5 43.9 5.9 7.8 6.4 10.8 15.6 12.7 25.2.8 4.1-2.3 4.1-5 4.1h-35.7z"/></svg>