<?xml version="1.0" encoding="utf-8"?>
<!-- Generator: Adobe Illustrator 19.1.0, SVG Export Plug-In . SVG Version: 6.00 Build 0)  -->
<svg version="1.1" id="Layer_1" xmlns="http://www.w3.org/2000/svg" xmlns:xlink="http://www.w3.org/1999/xlink" x="0px" y="0px"
	 viewBox="0 0 204 236" style="enable-background:new 0 0 204 236;" xml:space="preserve">
<g>
	<path d="M191.2,42.1c0.7-0.1,0.7-0.4,0.7-0.8c0-2.5,0-5.1,0-7.6h0.1V26c0-6.7-6-12.1-13.5-12.1h-153C18.1,13.9,12,19.3,12,26v15.9
		c1.4,0.1,2.7,0.4,3.6,1c-1.2-0.3-2.3-0.7-3.6-0.7v1.5c0.8,0.1,1.7,0.2,2.4,0.5c2.2,0.9,3.5,2.2,3.6,3.9c0.1,1.1,0.1,2.2,0,3.2
		c-0.2,2.1-0.6,4.2-0.9,6.3c-0.2,1.7-0.4,3.5-0.5,5.2c0,1.2,0.4,2.4,1.8,3.4c1.5,0.9,4.4,0.4,5.5-1c0.8-1,1.2-2.1,1.1-3.3
		c-0.1-1.7-0.3-3.4-0.5-5c-0.3-2.4-0.7-4.8-1-7.1c-0.1-1-0.1-1.9,0.5-2.9c0.9-1.2,3.4-1.9,5.1-1.1c1,0.5,2,1.1,2.8,1.7
		c1.2,1,2.4,2,4.1,2.6c0.8,0.3,1.7,0.6,2.4,1c1.5,0.7,2.9,1.6,3.2,2.9c0.3,1.2,0.6,2.5,0.7,3.7c0.4,2.9,0.1,5.9-0.4,8.8
		c-0.4,2.7-1,5.3-1.4,8c-0.2,1.4,0.5,2.7,2.4,3.7c2,1,5,0.5,6.3-0.7c0.9-0.8,1.2-1.8,1.3-2.8c0.2-1.9-0.4-3.8-0.9-5.6
		c-0.6-2.2-1-4.5-1-6.7c-0.1-2.1-0.3-4.3,0.4-6.4c0.7-2.3,1.3-4.6,2.2-6.8c0.6-1.4,1.4-2.7,2.5-3.9c1.3-1.5,3.1-1.8,5.2-0.5
		c0.9,0.5,1.6,1.2,2.2,1.9c1.3,1.4,2.3,2.8,2.8,4.4c0.7,2.2,0.4,4.4,0.2,6.6c-0.1,1.6-0.3,3.3-0.3,4.9c0,0.7,0.3,1.5,0.7,2.1
		c0.8,1.1,2.1,1.1,3.4,0.2c0.5-0.3,0.8-0.9,1-1.3c0.7-1.7,0.3-3.5,0-5.2c-0.4-2.1-0.9-4.1-0.4-6.2c0.1-0.7,0.3-1.5,1.1-2.1
		c0.4-0.3,0.8-0.4,1.3-0.2c0.9,0.4,1.8,0.9,2,1.7c0.1,0.8,0.1,1.6,0.2,2.4c0.1,0.8,0.1,1.7,0.4,2.5c0.3,0.9,1,1,2.2,0.5l0,0
		c0.3-0.5,0.7-1,0.8-1.5c0.2-0.9,0.1-1.7,0.3-2.6c0.2-1.2,0.5-2.3,0.8-3.5c0.3-1.1,0.9-2.1,2-3c0.9-0.7,1.8-1.5,2.6-2.3
		c0.7-0.6,1.6-1.1,2.9-0.9c1.7,0.2,3.1,0.7,4.2,1.5c1.3,1,1.8,2.2,1.9,3.5c0.2,2.4-0.5,4.7-0.9,7.1c-0.3,1.8-0.3,3.5,0.8,5.2
		c0.5,0.8,1.4,1.4,2.6,1.7c2.5,0.6,5.4-0.2,6.2-2c0.6-1.3,0.6-2.6,0.4-3.8c-0.3-2.1-0.7-4.2-0.5-6.3c0.1-1.2,0.6-2.4,2.1-3.2
		c1.2-0.6,2.5-1.1,3.9-1.5c1.8-0.6,3.9-0.3,5.8-0.3c1,0,1.9-0.2,2.6-0.7c0.9-0.5,1.6-1.1,2.5-1.5c0.4-0.2,1.1-0.3,1.6-0.2
		c0.8,0.2,1.2,0.7,1.2,1.3c-0.1,1.2-0.1,2.3-0.2,3.5c-0.1,1.4-0.4,2.7-0.4,4.1c0,0.9,0.2,1.8,0.9,2.6c1,1.1,3.3,1.4,4.9,0.6
		c1.1-0.6,1.3-1.4,1.4-2.2c0.1-0.8,0.1-1.7,0-2.5c-0.1-1.2-0.3-2.5-0.5-3.7c-0.3-1.4-0.3-2.8,0.3-4.2c0.8-2.1,4.1-2.7,6.6-2.3
		c3.8,0.7,6.4,2.4,7.9,4.9c1.2,1.9,1.5,3.9,1.9,6c0.4,2.5,0.8,5,1,7.5c0.1,1.1,0.1,2.3,0,3.4c-0.2,1.3-0.7,2.6-1,3.9
		c-0.5,1.7-0.2,3.3,1.5,4.7c0.7,0.6,1.7,0.9,2.8,1.1c0.7,0.1,1.4,0.1,2.1,0c1.6-0.1,2.8-0.7,3.5-1.6c0.9-1.2,1.1-2.6,1.1-3.9
		c-0.1-2-0.4-4-0.5-6c-0.1-3.8-0.2-7.7,0.4-11.5c0.1-0.4-0.1-0.8,0.1-1.2c0.3-0.8,0.7-1.7,1.2-2.5c0.5-0.8,0.9-1.7,2-2.3
		c1.3-0.7,2.4-0.8,3.7-0.1c1.8,0.9,2.8,2.1,3.6,3.4c0.7,1.2,1.6,2.4,3,3.3c1.4,0.9,4.1,1.1,5.6-0.1c0.7-0.6,1.3-1.3,2-1.9
		c0.7-0.7,1.2-1.4,1.9-2c0.6-0.6,1.4-0.5,1.9,0.1c0.8,1.2,1.3,2.4,1.4,3.6c0.2,1.9-0.1,3.8-1,5.7c-0.4,0.8-0.6,1.6-0.1,2.4
		c0.3,0.4,0.6,0.8,1,1.1c1.5,1.5,4.9,1.4,6.2-0.2c0.7-0.9,0.6-1.8,0.4-2.8c-0.3-1.4-0.8-2.8-1-4.2c-0.1-1.1-0.2-2.3,0.2-3.3
		c0.7-1.9,2.5-3.3,5.7-3.5c0.2,0,0.4-0.1,0.5-0.2C192.2,43,191.9,42.4,191.2,42.1z M18.6,64.6c-0.2,0-0.5-0.1-0.6-0.2
		c-0.2-0.3-0.2-0.6-0.3-0.9c0-0.2,0-0.3,0.1-0.4c0.1-0.1,0.3-0.2,0.4-0.2c0.2,0,0.4,0.1,0.4,0.2c0.1,0.4,0.2,0.9,0.3,1.3
		C18.9,64.5,18.6,64.7,18.6,64.6z M18.9,53.7L18.9,53.7l-0.1-0.5c0,0,0,0,0.1,0V53.7z M19,52.5L19,52.5L19,51.2c0,0,0,0,0.1,0V52.5z
		 M23.1,64.6c0,0-0.1-0.1-0.1-0.1c0-0.1,0.1-0.1,0.2-0.1c0,0,0.1,0,0.1,0.1C23.2,64.5,23.2,64.5,23.1,64.6z M37.4,48.2
		c-1.7-0.6-3.4-1.1-4.6-2.1c-0.2-0.2-0.4-0.4-0.6-0.6c0,0,0.1,0,0.1-0.1c0.6,0.3,1.2,0.7,1.9,1c1.1,0.5,2.3,0.9,3.4,1.4
		c0.2,0.1,0.3,0.2,0.5,0.4C37.8,48.2,37.6,48.3,37.4,48.2z M43.4,58.2C43.4,58.2,43.4,58.2,43.4,58.2l0.1,2.8c0,0-0.1,0-0.1,0V58.2z
		 M43.2,76.4c-0.4,0.1-0.9,0.1-1-0.3c-0.2-0.4-0.3-0.9-0.4-1.3c0-0.7,0.1-0.8,0.9-0.6c0.2,0,0.5,0.2,0.5,0.3
		c0.2,0.5,0.3,1.1,0.3,1.6C43.6,76.2,43.4,76.3,43.2,76.4z M49.2,74.5c0.1,0,0.2,0,0.3,0c-0.1,0.2-0.1,0.5-0.2,0.7
		c-0.1,0-0.2,0-0.3-0.1C49,74.9,49.1,74.7,49.2,74.5z M61.5,44.7c1,0.6,1.9,1.3,2.1,2.3C62.9,46.2,62.2,45.5,61.5,44.7z M65.4,54.5
		c0.1,0,0.1,0,0.2,0c0,0.6-0.1,1.1-0.1,1.7h0V54.5z M65.6,63.7c-0.1,0.1-0.3,0.1-0.3,0.1c-0.1,0-0.3-0.1-0.3-0.2
		c-0.1-0.5-0.1-1-0.1-1.4C65.5,62.3,65.8,63.4,65.6,63.7z M68.2,63.4c0,0-0.1,0-0.1,0c0-0.1,0-0.1,0.1-0.2h0.1V63.4z M68.6,44
		c0-0.1,0.1-0.1,0.1-0.2c0.1,0,0.1,0.1,0.1,0.1C68.8,44,68.7,44,68.6,44z M71.8,46.9C71.7,46.9,71.7,46.8,71.8,46.9
		c0.1-0.1,0.2-0.2,0.3-0.2C72,46.7,71.9,46.8,71.8,46.9z M73.8,52.2L73.8,52.2c-0.1-0.1-0.1-0.2-0.1-0.3c0,0,0,0,0.1,0V52.2z
		 M74.4,56.4c-0.1-0.2-0.2-0.5-0.4-0.7c0.1,0,0.2,0,0.3-0.1l0.3,0.7C74.6,56.3,74.5,56.3,74.4,56.4z M92.5,51.6c0.1,0,0.2,0,0.3,0
		c-0.1,0.6-0.2,1.2-0.2,1.9c-0.1,0-0.2,0-0.2,0C92.4,52.9,92.5,52.3,92.5,51.6z M87.6,42c0.1,0,0.1-0.1,0.2-0.1
		c0.3,0.1,0.7,0.1,0.9,0.3c2,1.1,2.8,2.7,3.6,4.2C91,44.8,90.3,43,87.6,42z M93.2,60.2c-0.1,0.1-0.4,0-0.5,0
		c-0.3-0.2-0.6-0.5-0.7-0.8c-0.1-0.2-0.1-0.5-0.2-0.8c0.8,0,1.2,0.1,1.3,0.6c0.1,0.2,0.2,0.4,0.2,0.7C93.3,60,93.3,60.2,93.2,60.2z
		 M98.6,60.4c-0.1,0-0.1,0-0.2-0.1c0.2-0.2,0.3-0.4,0.5-0.6c0.1,0,0.1,0,0.2,0.1C98.9,59.9,98.8,60.2,98.6,60.4z M103.6,40.6
		L103.6,40.6L103.6,40.6L103.6,40.6z M105.8,37.8c0,0,0-0.1-0.1-0.1c0.5-0.1,1-0.2,1.4-0.3c0,0,0,0.1,0.1,0.1
		C106.7,37.6,106.2,37.7,105.8,37.8z M115.7,41.7c-0.3,0.2-0.7,0.3-1,0.4c0,0,0,0,0,0l0,0c0,0,0,0,0,0c0.8-0.6,1.6-1.1,2.8-1.3
		c0.8-0.1,1.3,0.1,1.8,0.6C117.8,40.8,116.8,41.2,115.7,41.7z M120.8,45.6c0,0,0.1,0,0.1,0c-0.1,0.7-0.1,1.5-0.2,2.2
		c-0.1,0-0.1,0-0.2,0C120.7,47.1,120.7,46.3,120.8,45.6z M121,53.4c-0.2-0.1-0.5-0.1-0.5-0.2c-0.2-0.3-0.3-0.7-0.4-1.1
		c0.1-0.1,0.3-0.3,0.4-0.3c0.2,0,0.5,0.1,0.5,0.2c0.1,0.3,0.2,0.6,0.3,0.9C121.3,53.2,121.1,53.3,121,53.4z M125.2,53
		c-0.1,0-0.2,0-0.2,0c0.1-0.2,0.1-0.4,0.2-0.5c0.1,0,0.1,0,0.2,0C125.3,52.7,125.2,52.8,125.2,53z M142.5,45.9c0-0.1,0-0.1,0-0.2
		c0,0,0,0,0,0c0,0,0,0,0,0c-0.4-0.6-0.7-1.3-1.2-1.9c-0.6-0.8-1.4-1.7-2.1-2.5c0,0,0,0,0,0c0,0-0.1-0.1-0.1-0.1l0,0
		c0,0,0.1,0.1,0.1,0.1c0,0,0,0,0,0c0.4,0.3,0.9,0.7,1.2,1c0.9,1.1,1.7,2.2,2,3.4c0,0,0,0,0,0v0C142.5,45.7,142.6,45.8,142.5,45.9
		C142.6,45.8,142.5,45.8,142.5,45.9z M144.8,68.9c-1.3-0.4-1.9-2-1.1-2.7c0.7,0.2,1.1,0.5,1.1,1.1C144.8,67.8,144.8,68.3,144.8,68.9
		z M145,59.8c-0.1-1-0.1-1.9-0.2-2.9c0.1,0,0.1,0,0.2,0c0.1,1,0.2,1.9,0.3,2.9C145.2,59.7,145.1,59.8,145,59.8z M150.9,68.9
		c0,0-0.1-0.1-0.1-0.1c0.1-0.1,0.2-0.1,0.3-0.2c0.1,0,0.1,0.1,0.2,0.1C151.1,68.7,151,68.8,150.9,68.9z M164.7,44.7
		c-0.4-0.6-0.8-1.2-1.2-1.8c0.5,0.6,1,1.1,1.4,1.7C164.9,44.6,164.8,44.7,164.7,44.7z M167.8,42.3c0.2-0.1,0.4-0.1,0.6-0.2
		c0,0,0.1,0.1,0.1,0.1C168.3,42.2,168.1,42.2,167.8,42.3z M170.8,46.3c0,0-0.1,0-0.1,0C170.7,46.3,170.7,46.3,170.8,46.3
		C170.8,46.3,170.8,46.3,170.8,46.3C170.8,46.3,170.8,46.3,170.8,46.3z M180.6,56.7c-0.9-0.2-1.1-0.8-0.6-1.6
		C180.9,55.3,181,55.6,180.6,56.7z M180.9,50.4C180.9,50.4,180.9,50.4,180.9,50.4l-0.1-0.9h0.1V50.4z M181.5,41.2L181.5,41.2
		c0,0,0.1-0.1,0.1-0.1l0,0C181.6,41.1,181.6,41.1,181.5,41.2z M184,43.6C184,43.6,184,43.6,184,43.6L184,43.6
		C184,43.6,184,43.6,184,43.6z M184.1,43.5L184.1,43.5c0-0.1,0.1-0.1,0.1-0.2h0C184.2,43.3,184.2,43.4,184.1,43.5z M185.4,56.6
		c0.1,0,0.1,0,0.2,0.1c-0.1,0.1-0.1,0.1-0.2,0.2c0,0-0.1,0-0.1,0C185.3,56.8,185.4,56.7,185.4,56.6z"/>
	<g>
		<path d="M18.8,53.2v0.5h0.1L18.8,53.2C18.9,53.2,18.9,53.2,18.8,53.2z M23.2,64.4c-0.1,0-0.1,0.1-0.2,0.1c0,0,0.1,0,0.1,0.1
			c0.1-0.1,0.1-0.1,0.2-0.2C23.3,64.4,23.2,64.4,23.2,64.4z M68.2,63.2c0,0.1,0,0.1-0.1,0.2c0,0,0.1,0,0.1,0L68.2,63.2L68.2,63.2z
			 M68.7,43.8c0,0.1-0.1,0.1-0.1,0.2c0.1,0,0.2,0,0.3-0.1C68.8,43.9,68.8,43.9,68.7,43.8z M71.7,46.8C71.7,46.8,71.7,46.9,71.7,46.8
			c0.2,0,0.3-0.1,0.4-0.2C71.9,46.7,71.8,46.8,71.7,46.8z M73.8,51.9c0,0.1,0,0.2,0,0.3h0L73.8,51.9C73.8,51.9,73.8,51.9,73.8,51.9z
			 M170.7,46.3C170.7,46.3,170.7,46.3,170.7,46.3C170.7,46.3,170.7,46.3,170.7,46.3c0.1,0.1,0.1,0,0.1,0
			C170.8,46.3,170.8,46.3,170.7,46.3z M181.6,41.1c0,0-0.1,0.1-0.1,0.1v0C181.6,41.1,181.6,41.1,181.6,41.1L181.6,41.1z M184,43.6
			C184,43.6,184,43.6,184,43.6C184,43.6,184,43.6,184,43.6L184,43.6z M184.3,43.3c0,0.1-0.1,0.1-0.1,0.2h0
			C184.2,43.4,184.2,43.3,184.3,43.3L184.3,43.3z M185.4,56.6c-0.1,0.1-0.1,0.2-0.2,0.2c0,0,0.1,0,0.1,0c0.1-0.1,0.1-0.1,0.2-0.2
			C185.5,56.6,185.5,56.6,185.4,56.6z"/>
		<path d="M68.9,43.9c-0.1,0-0.2,0-0.3,0.1c0-0.1,0.1-0.1,0.1-0.2C68.8,43.9,68.8,43.9,68.9,43.9z"/>
		<path d="M181.5,41.2C181.5,41.2,181.5,41.2,181.5,41.2C181.4,41.2,181.4,41.2,181.5,41.2z"/>
		<path d="M181.7,41.1c0,0-0.1,0.1-0.1,0.1v0C181.6,41.1,181.6,41.1,181.7,41.1L181.7,41.1z"/>
		<path d="M72.1,46.7c-0.1,0.1-0.2,0.1-0.3,0.2c0,0,0,0-0.1-0.1C71.8,46.8,71.9,46.7,72.1,46.7z"/>
		<path d="M184,43.6C184,43.6,184,43.6,184,43.6C184,43.6,184,43.6,184,43.6L184,43.6z"/>
		<path d="M184.3,43.3c0,0.1-0.1,0.1-0.1,0.2h0C184.2,43.4,184.2,43.3,184.3,43.3L184.3,43.3z"/>
		<path d="M18.9,53.2v0.5h-0.1L18.9,53.2C18.9,53.2,18.9,53.2,18.9,53.2z"/>
		<path d="M185.6,56.7c-0.1,0.1-0.1,0.1-0.2,0.2c0,0-0.1,0-0.1,0c0.1-0.1,0.1-0.2,0.2-0.2C185.5,56.6,185.5,56.6,185.6,56.7z"/>
		<path d="M23.3,64.4c-0.1,0.1-0.1,0.1-0.2,0.2c0,0-0.1-0.1-0.1-0.1c0-0.1,0.1-0.1,0.2-0.1C23.2,64.4,23.3,64.4,23.3,64.4z"/>
		<path d="M73.8,51.9v0.3h0C73.8,52.1,73.8,52,73.8,51.9C73.8,51.9,73.8,51.9,73.8,51.9z"/>
		<path d="M68.2,63.2v0.2c0,0-0.1,0-0.1,0C68.1,63.3,68.1,63.2,68.2,63.2L68.2,63.2z"/>
		<path d="M170.8,46.3C170.8,46.3,170.8,46.3,170.8,46.3c-0.1,0.1-0.2,0-0.2,0c0,0,0.1,0,0.1,0C170.8,46.3,170.8,46.3,170.8,46.3z"
			/>
		<polygon points="103.6,40.6 103.6,40.6 103.6,40.6 		"/>
	</g>
	<polygon points="103.6,40.6 103.6,40.6 103.6,40.6 	"/>
	<path d="M107.2,37.5c-0.5,0.1-1,0.2-1.4,0.3c0,0,0-0.1-0.1-0.1c0.5-0.1,1-0.2,1.4-0.3C107.1,37.4,107.2,37.5,107.2,37.5z"/>
	<path d="M68.9,43.9c-0.1,0-0.2,0-0.3,0.1c0-0.1,0.1-0.1,0.1-0.2C68.8,43.9,68.8,43.9,68.9,43.9z"/>
	<path d="M72.1,46.7c-0.1,0.1-0.2,0.1-0.3,0.2c0,0,0,0-0.1-0.1C71.8,46.8,71.9,46.7,72.1,46.7z"/>
	<path d="M168.5,42.2c-0.2,0-0.5,0.1-0.7,0.1c0.2-0.1,0.4-0.1,0.6-0.2C168.5,42.1,168.5,42.1,168.5,42.2z"/>
	<path d="M170.8,46.3C170.8,46.3,170.8,46.3,170.8,46.3c-0.1,0.1-0.2,0-0.2,0c0,0,0.1,0,0.1,0C170.8,46.3,170.8,46.3,170.8,46.3z"/>
	<rect x="179.7" y="39.4" width="5.9" height="6.2"/>
	<path d="M191.2,113.8c0.7-0.1,0.7-0.4,0.7-0.8c0-2.5,0-5.1,0-7.6h0.1v-7.7c0-6.7-6-12.1-13.5-12.1h-153c-7.5,0-13.5,5.4-13.5,12.1
		v15.9c1.4,0.1,2.7,0.4,3.6,1c-1.2-0.3-2.3-0.7-3.6-0.7v1.5c0.8,0.1,1.7,0.2,2.4,0.5c2.2,0.9,3.5,2.2,3.6,3.9c0.1,1.1,0.1,2.2,0,3.2
		c-0.2,2.1-0.6,4.2-0.9,6.3c-0.2,1.7-0.4,3.5-0.5,5.2c0,1.2,0.4,2.4,1.8,3.4c1.5,0.9,4.4,0.4,5.5-1c0.8-1,1.2-2.1,1.1-3.3
		c-0.1-1.7-0.3-3.4-0.5-5c-0.3-2.4-0.7-4.8-1-7.1c-0.1-1-0.1-1.9,0.5-2.9c0.9-1.2,3.4-1.9,5.1-1.1c1,0.5,2,1.1,2.8,1.7
		c1.2,1,2.4,2,4.1,2.6c0.8,0.3,1.7,0.6,2.4,1c1.5,0.7,2.9,1.6,3.2,2.9c0.3,1.2,0.6,2.5,0.7,3.7c0.4,2.9,0.1,5.9-0.4,8.8
		c-0.4,2.7-1,5.3-1.4,8c-0.2,1.4,0.5,2.7,2.4,3.7c2,1,5,0.5,6.3-0.7c0.9-0.8,1.2-1.8,1.3-2.8c0.2-1.9-0.4-3.8-0.9-5.6
		c-0.6-2.2-1-4.5-1-6.7c-0.1-2.1-0.3-4.3,0.4-6.4c0.7-2.3,1.3-4.6,2.2-6.8c0.6-1.4,1.4-2.7,2.5-3.9c1.3-1.5,3.1-1.8,5.2-0.5
		c0.9,0.5,1.6,1.2,2.2,1.9c1.3,1.4,2.3,2.8,2.8,4.4c0.7,2.2,0.4,4.4,0.2,6.6c-0.1,1.6-0.3,3.3-0.3,4.9c0,0.7,0.3,1.5,0.7,2.1
		c0.8,1.1,2.1,1.1,3.4,0.2c0.5-0.3,0.8-0.9,1-1.3c0.7-1.7,0.3-3.5,0-5.2c-0.4-2.1-0.9-4.1-0.4-6.2c0.1-0.7,0.3-1.5,1.1-2.1
		c0.4-0.3,0.8-0.4,1.3-0.2c0.9,0.4,1.8,0.9,2,1.7c0.1,0.8,0.1,1.6,0.2,2.4c0.1,0.8,0.1,1.7,0.4,2.5c0.3,0.9,1,1,2.2,0.5l0,0
		c0.3-0.5,0.7-1,0.8-1.5c0.2-0.9,0.1-1.7,0.3-2.6c0.2-1.2,0.5-2.3,0.8-3.5c0.3-1.1,0.9-2.1,2-3c0.9-0.7,1.8-1.5,2.6-2.3
		c0.7-0.6,1.6-1.1,2.9-0.9c1.7,0.2,3.1,0.7,4.2,1.5c1.3,1,1.8,2.2,1.9,3.5c0.2,2.4-0.5,4.7-0.9,7.1c-0.3,1.8-0.3,3.5,0.8,5.2
		c0.5,0.8,1.4,1.4,2.6,1.7c2.5,0.6,5.4-0.2,6.2-2c0.6-1.3,0.6-2.6,0.4-3.8c-0.3-2.1-0.7-4.2-0.5-6.3c0.1-1.2,0.6-2.4,2.1-3.2
		c1.2-0.6,2.5-1.1,3.9-1.5c1.8-0.6,3.9-0.3,5.8-0.3c1,0,1.9-0.2,2.6-0.7c0.9-0.5,1.6-1.1,2.5-1.5c0.4-0.2,1.1-0.3,1.6-0.2
		c0.8,0.2,1.2,0.7,1.2,1.3c-0.1,1.2-0.1,2.3-0.2,3.5c-0.1,1.4-0.4,2.7-0.4,4.1c0,0.9,0.2,1.8,0.9,2.6c1,1.1,3.3,1.4,4.9,0.6
		c1.1-0.6,1.3-1.4,1.4-2.2c0.1-0.8,0.1-1.7,0-2.5c-0.1-1.2-0.3-2.5-0.5-3.7c-0.3-1.4-0.3-2.8,0.3-4.2c0.8-2.1,4.1-2.7,6.6-2.3
		c3.8,0.7,6.4,2.4,7.9,4.9c1.2,1.9,1.5,3.9,1.9,6c0.4,2.5,0.8,5,1,7.5c0.1,1.1,0.1,2.3,0,3.4c-0.2,1.3-0.7,2.6-1,3.9
		c-0.5,1.7-0.2,3.3,1.5,4.7c0.7,0.6,1.7,0.9,2.8,1.1c0.7,0.1,1.4,0.1,2.1,0c1.6-0.1,2.8-0.7,3.5-1.6c0.9-1.2,1.1-2.6,1.1-3.9
		c-0.1-2-0.4-4-0.5-6c-0.1-3.8-0.2-7.7,0.4-11.5c0.1-0.4-0.1-0.8,0.1-1.2c0.3-0.8,0.7-1.7,1.2-2.5c0.5-0.8,0.9-1.7,2-2.3
		c1.3-0.7,2.4-0.8,3.7-0.1c1.8,0.9,2.8,2.1,3.6,3.4c0.7,1.2,1.6,2.4,3,3.3c1.4,0.9,4.1,1.1,5.6-0.1c0.7-0.6,1.3-1.3,2-1.9
		c0.7-0.7,1.2-1.4,1.9-2c0.6-0.6,1.4-0.5,1.9,0.1c0.8,1.2,1.3,2.4,1.4,3.6c0.2,1.9-0.1,3.8-1,5.7c-0.4,0.8-0.6,1.6-0.1,2.4
		c0.3,0.4,0.6,0.8,1,1.1c1.5,1.5,4.9,1.4,6.2-0.2c0.7-0.9,0.6-1.8,0.4-2.8c-0.3-1.4-0.8-2.8-1-4.2c-0.1-1.1-0.2-2.3,0.2-3.3
		c0.7-1.9,2.5-3.3,5.7-3.5c0.2,0,0.4-0.1,0.5-0.2C192.2,114.8,191.9,114.1,191.2,113.8z M18.6,136.4c-0.2,0-0.5-0.1-0.6-0.2
		c-0.2-0.3-0.2-0.6-0.3-0.9c0-0.2,0-0.3,0.1-0.4c0.1-0.1,0.3-0.2,0.4-0.2c0.2,0,0.4,0.1,0.4,0.2c0.1,0.4,0.2,0.9,0.3,1.3
		C18.9,136.3,18.6,136.4,18.6,136.4z M18.9,125.4L18.9,125.4l-0.1-0.5c0,0,0,0,0.1,0V125.4z M19,124.2L19,124.2l-0.1-1.3
		c0,0,0,0,0.1,0V124.2z M23.1,136.3c0,0-0.1-0.1-0.1-0.1c0-0.1,0.1-0.1,0.2-0.1c0,0,0.1,0,0.1,0.1C23.2,136.2,23.2,136.3,23.1,136.3
		z M37.4,120c-1.7-0.6-3.4-1.1-4.6-2.1c-0.2-0.2-0.4-0.4-0.6-0.6c0,0,0.1,0,0.1-0.1c0.6,0.3,1.2,0.7,1.9,1c1.1,0.5,2.3,0.9,3.4,1.4
		c0.2,0.1,0.3,0.2,0.5,0.4C37.8,120,37.6,120,37.4,120z M43.4,129.9C43.4,129.9,43.4,129.9,43.4,129.9l0.1,2.8c0,0-0.1,0-0.1,0
		V129.9z M43.2,148.1c-0.4,0.1-0.9,0.1-1-0.3c-0.2-0.4-0.3-0.9-0.4-1.3c0-0.7,0.1-0.8,0.9-0.6c0.2,0,0.5,0.2,0.5,0.3
		c0.2,0.5,0.3,1.1,0.3,1.6C43.6,147.9,43.4,148.1,43.2,148.1z M49.2,146.2c0.1,0,0.2,0,0.3,0c-0.1,0.2-0.1,0.5-0.2,0.7
		c-0.1,0-0.2,0-0.3-0.1C49,146.7,49.1,146.5,49.2,146.2z M61.5,116.5c1,0.6,1.9,1.3,2.1,2.3C62.9,118,62.2,117.2,61.5,116.5z
		 M65.4,126.3c0.1,0,0.1,0,0.2,0c0,0.6-0.1,1.1-0.1,1.7h0V126.3z M65.6,135.4c-0.1,0.1-0.3,0.1-0.3,0.1c-0.1,0-0.3-0.1-0.3-0.2
		c-0.1-0.5-0.1-1-0.1-1.4C65.5,134.1,65.8,135.2,65.6,135.4z M68.2,135.1c0,0-0.1,0-0.1,0c0-0.1,0-0.1,0.1-0.2h0.1V135.1z
		 M68.6,115.8c0-0.1,0.1-0.1,0.1-0.2c0.1,0,0.1,0.1,0.1,0.1C68.8,115.7,68.7,115.7,68.6,115.8z M71.8,118.6
		C71.7,118.6,71.7,118.6,71.8,118.6c0.1-0.1,0.2-0.2,0.3-0.2C72,118.5,71.9,118.6,71.8,118.6z M73.8,123.9L73.8,123.9
		c-0.1-0.1-0.1-0.2-0.1-0.3c0,0,0,0,0.1,0V123.9z M74.4,128.1c-0.1-0.2-0.2-0.5-0.4-0.7c0.1,0,0.2,0,0.3-0.1l0.3,0.7
		C74.6,128.1,74.5,128.1,74.4,128.1z M92.5,123.4c0.1,0,0.2,0,0.3,0c-0.1,0.6-0.2,1.2-0.2,1.9c-0.1,0-0.2,0-0.2,0
		C92.4,124.6,92.5,124,92.5,123.4z M87.6,113.8c0.1,0,0.1-0.1,0.2-0.1c0.3,0.1,0.7,0.1,0.9,0.3c2,1.1,2.8,2.7,3.6,4.2
		C91,116.6,90.3,114.7,87.6,113.8z M93.2,132c-0.1,0.1-0.4,0-0.5,0c-0.3-0.2-0.6-0.5-0.7-0.8c-0.1-0.2-0.1-0.5-0.2-0.8
		c0.8,0,1.2,0.1,1.3,0.6c0.1,0.2,0.2,0.4,0.2,0.7C93.3,131.8,93.3,131.9,93.2,132z M98.6,132.1c-0.1,0-0.1,0-0.2-0.1
		c0.2-0.2,0.3-0.4,0.5-0.6c0.1,0,0.1,0,0.2,0.1C98.9,131.7,98.8,131.9,98.6,132.1z M103.6,112.4L103.6,112.4L103.6,112.4
		L103.6,112.4z M105.8,109.6c0,0,0-0.1-0.1-0.1c0.5-0.1,1-0.2,1.4-0.3c0,0,0,0.1,0.1,0.1C106.7,109.4,106.2,109.5,105.8,109.6z
		 M115.7,113.5c-0.3,0.2-0.7,0.3-1,0.4c0,0,0,0,0,0l0,0c0,0,0,0,0,0c0.8-0.6,1.6-1.1,2.8-1.3c0.8-0.1,1.3,0.1,1.8,0.6
		C117.8,112.5,116.8,112.9,115.7,113.5z M120.8,117.3c0,0,0.1,0,0.1,0c-0.1,0.7-0.1,1.5-0.2,2.2c-0.1,0-0.1,0-0.2,0
		C120.7,118.8,120.7,118.1,120.8,117.3z M121,125.2c-0.2-0.1-0.5-0.1-0.5-0.2c-0.2-0.3-0.3-0.7-0.4-1.1c0.1-0.1,0.3-0.3,0.4-0.3
		c0.2,0,0.5,0.1,0.5,0.2c0.1,0.3,0.2,0.6,0.3,0.9C121.3,124.9,121.1,125.1,121,125.2z M125.2,124.8c-0.1,0-0.2,0-0.2,0
		c0.1-0.2,0.1-0.4,0.2-0.5c0.1,0,0.1,0,0.2,0C125.3,124.4,125.2,124.6,125.2,124.8z M142.5,117.6c0-0.1,0-0.1,0-0.2c0,0,0,0,0,0
		c0,0,0,0,0,0c-0.4-0.6-0.7-1.3-1.2-1.9c-0.6-0.8-1.4-1.7-2.1-2.5c0,0,0,0,0,0c0,0-0.1-0.1-0.1-0.1l0,0c0,0,0.1,0.1,0.1,0.1
		c0,0,0,0,0,0c0.4,0.3,0.9,0.7,1.2,1c0.9,1.1,1.7,2.2,2,3.4c0,0,0,0,0,0v0C142.5,117.5,142.6,117.5,142.5,117.6
		C142.6,117.6,142.5,117.6,142.5,117.6z M144.8,140.7c-1.3-0.4-1.9-2-1.1-2.7c0.7,0.2,1.1,0.5,1.1,1.1
		C144.8,139.6,144.8,140.1,144.8,140.7z M145,131.5c-0.1-1-0.1-1.9-0.2-2.9c0.1,0,0.1,0,0.2,0c0.1,1,0.2,1.9,0.3,2.9
		C145.2,131.5,145.1,131.5,145,131.5z M150.9,140.6c0,0-0.1-0.1-0.1-0.1c0.1-0.1,0.2-0.1,0.3-0.2c0.1,0,0.1,0.1,0.2,0.1
		C151.1,140.5,151,140.5,150.9,140.6z M164.7,116.4c-0.4-0.6-0.8-1.2-1.2-1.8c0.5,0.6,1,1.1,1.4,1.7
		C164.9,116.4,164.8,116.4,164.7,116.4z M167.8,114c0.2-0.1,0.4-0.1,0.6-0.2c0,0,0.1,0.1,0.1,0.1C168.3,113.9,168.1,114,167.8,114z
		 M170.8,118.1c0,0-0.1,0-0.1,0C170.7,118,170.7,118,170.8,118.1C170.8,118,170.8,118,170.8,118.1
		C170.8,118.1,170.8,118.1,170.8,118.1z M180.6,128.5c-0.9-0.2-1.1-0.8-0.6-1.6C180.9,127,181,127.3,180.6,128.5z M180.9,122.1
		C180.9,122.1,180.9,122.1,180.9,122.1l-0.1-0.9h0.1V122.1z M181.5,112.9L181.5,112.9c0,0,0.1-0.1,0.1-0.1l0,0
		C181.6,112.9,181.6,112.9,181.5,112.9z M184,115.3C184,115.3,184,115.3,184,115.3L184,115.3C184,115.3,184,115.3,184,115.3z
		 M184.1,115.2L184.1,115.2c0-0.1,0.1-0.1,0.1-0.2h0C184.2,115.1,184.2,115.1,184.1,115.2z M185.4,128.3c0.1,0,0.1,0,0.2,0.1
		c-0.1,0.1-0.1,0.1-0.2,0.2c0,0-0.1,0-0.1,0C185.3,128.5,185.4,128.4,185.4,128.3z"/>
	<g>
		<path d="M18.8,124.9v0.5h0.1L18.8,124.9C18.9,124.9,18.9,124.9,18.8,124.9z M23.2,136.1c-0.1,0-0.1,0.1-0.2,0.1c0,0,0.1,0,0.1,0.1
			c0.1-0.1,0.1-0.1,0.2-0.2C23.3,136.2,23.2,136.1,23.2,136.1z M68.2,134.9c0,0.1,0,0.1-0.1,0.2c0,0,0.1,0,0.1,0L68.2,134.9
			L68.2,134.9z M68.7,115.6c0,0.1-0.1,0.1-0.1,0.2c0.1,0,0.2,0,0.3-0.1C68.8,115.6,68.8,115.6,68.7,115.6z M71.7,118.6
			C71.7,118.6,71.7,118.6,71.7,118.6c0.2,0,0.3-0.1,0.4-0.2C71.9,118.5,71.8,118.5,71.7,118.6z M73.8,123.7c0,0.1,0,0.2,0,0.3h0
			L73.8,123.7C73.8,123.7,73.8,123.7,73.8,123.7z M170.7,118C170.7,118,170.7,118,170.7,118C170.7,118.1,170.7,118.1,170.7,118
			c0.1,0.1,0.1,0,0.1,0C170.8,118,170.8,118,170.7,118z M181.6,112.8c0,0-0.1,0.1-0.1,0.1v0C181.6,112.9,181.6,112.9,181.6,112.8
			L181.6,112.8z M184,115.3C184,115.3,184,115.3,184,115.3C184,115.3,184,115.3,184,115.3L184,115.3z M184.3,115
			c0,0.1-0.1,0.1-0.1,0.2h0C184.2,115.1,184.2,115.1,184.3,115L184.3,115z M185.4,128.3c-0.1,0.1-0.1,0.2-0.2,0.2c0,0,0.1,0,0.1,0
			c0.1-0.1,0.1-0.1,0.2-0.2C185.5,128.4,185.5,128.4,185.4,128.3z"/>
		<path d="M68.9,115.7c-0.1,0-0.2,0-0.3,0.1c0-0.1,0.1-0.1,0.1-0.2C68.8,115.6,68.8,115.6,68.9,115.7z"/>
		<path d="M181.5,112.9C181.5,112.9,181.5,112.9,181.5,112.9C181.4,112.9,181.4,112.9,181.5,112.9z"/>
		<path d="M181.7,112.8c0,0-0.1,0.1-0.1,0.1v0C181.6,112.9,181.6,112.9,181.7,112.8L181.7,112.8z"/>
		<path d="M72.1,118.4c-0.1,0.1-0.2,0.1-0.3,0.2c0,0,0,0-0.1-0.1C71.8,118.5,71.9,118.5,72.1,118.4z"/>
		<path d="M184,115.3C184,115.3,184,115.3,184,115.3C184,115.3,184,115.3,184,115.3L184,115.3z"/>
		<path d="M184.3,115c0,0.1-0.1,0.1-0.1,0.2h0C184.2,115.1,184.2,115.1,184.3,115L184.3,115z"/>
		<path d="M18.9,124.9v0.5h-0.1L18.9,124.9C18.9,124.9,18.9,124.9,18.9,124.9z"/>
		<path d="M185.6,128.4c-0.1,0.1-0.1,0.1-0.2,0.2c0,0-0.1,0-0.1,0c0.1-0.1,0.1-0.2,0.2-0.2C185.5,128.4,185.5,128.4,185.6,128.4z"/>
		<path d="M23.3,136.2c-0.1,0.1-0.1,0.1-0.2,0.2c0,0-0.1-0.1-0.1-0.1c0-0.1,0.1-0.1,0.2-0.1C23.2,136.1,23.3,136.2,23.3,136.2z"/>
		<path d="M73.8,123.6v0.3h0C73.8,123.9,73.8,123.8,73.8,123.6C73.8,123.7,73.8,123.7,73.8,123.6z"/>
		<path d="M68.2,134.9v0.2c0,0-0.1,0-0.1,0C68.1,135.1,68.1,135,68.2,134.9L68.2,134.9z"/>
		<path d="M170.8,118C170.8,118.1,170.8,118.1,170.8,118c-0.1,0.1-0.2,0-0.2,0c0,0,0.1,0,0.1,0C170.8,118,170.8,118,170.8,118z"/>
		<polygon points="103.6,112.4 103.6,112.4 103.6,112.4 		"/>
	</g>
	<polygon points="103.6,112.4 103.6,112.4 103.6,112.4 	"/>
	<path d="M107.2,109.2c-0.5,0.1-1,0.2-1.4,0.3c0,0,0-0.1-0.1-0.1c0.5-0.1,1-0.2,1.4-0.3C107.1,109.2,107.2,109.2,107.2,109.2z"/>
	<path d="M68.9,115.7c-0.1,0-0.2,0-0.3,0.1c0-0.1,0.1-0.1,0.1-0.2C68.8,115.6,68.8,115.6,68.9,115.7z"/>
	<path d="M72.1,118.4c-0.1,0.1-0.2,0.1-0.3,0.2c0,0,0,0-0.1-0.1C71.8,118.5,71.9,118.5,72.1,118.4z"/>
	<path d="M168.5,113.9c-0.2,0-0.5,0.1-0.7,0.1c0.2-0.1,0.4-0.1,0.6-0.2C168.5,113.8,168.5,113.9,168.5,113.9z"/>
	<path d="M170.8,118C170.8,118.1,170.8,118.1,170.8,118c-0.1,0.1-0.2,0-0.2,0c0,0,0.1,0,0.1,0C170.8,118,170.8,118,170.8,118z"/>
	<rect x="179.7" y="111.2" width="5.9" height="6.2"/>
	<path d="M191.2,185.5c0.7-0.1,0.7-0.4,0.7-0.8c0-2.5,0-5.1,0-7.6h0.1v-7.7c0-6.7-6-12.1-13.5-12.1h-153c-7.5,0-13.5,5.4-13.5,12.1
		v15.9c1.4,0.1,2.7,0.4,3.6,1c-1.2-0.3-2.3-0.7-3.6-0.7v1.5c0.8,0.1,1.7,0.2,2.4,0.5c2.2,0.9,3.5,2.2,3.6,3.9c0.1,1.1,0.1,2.2,0,3.2
		c-0.2,2.1-0.6,4.2-0.9,6.3c-0.2,1.7-0.4,3.5-0.5,5.2c0,1.2,0.4,2.4,1.8,3.4c1.5,0.9,4.4,0.4,5.5-1c0.8-1,1.2-2.1,1.1-3.3
		c-0.1-1.7-0.3-3.4-0.5-5c-0.3-2.4-0.7-4.8-1-7.1c-0.1-1-0.1-1.9,0.5-2.9c0.9-1.2,3.4-1.9,5.1-1.1c1,0.5,2,1.1,2.8,1.7
		c1.2,1,2.4,2,4.1,2.6c0.8,0.3,1.7,0.6,2.4,1c1.5,0.7,2.9,1.6,3.2,2.9c0.3,1.2,0.6,2.5,0.7,3.7c0.4,2.9,0.1,5.9-0.4,8.8
		c-0.4,2.7-1,5.3-1.4,8c-0.2,1.4,0.5,2.7,2.4,3.7c2,1,5,0.5,6.3-0.7c0.9-0.8,1.2-1.8,1.3-2.8c0.2-1.9-0.4-3.8-0.9-5.6
		c-0.6-2.2-1-4.5-1-6.7c-0.1-2.1-0.3-4.3,0.4-6.4c0.7-2.3,1.3-4.6,2.2-6.8c0.6-1.4,1.4-2.7,2.5-3.9c1.3-1.5,3.1-1.8,5.2-0.5
		c0.9,0.5,1.6,1.2,2.2,1.9c1.3,1.4,2.3,2.8,2.8,4.4c0.7,2.2,0.4,4.4,0.2,6.6c-0.1,1.6-0.3,3.3-0.3,4.9c0,0.7,0.3,1.5,0.7,2.1
		c0.8,1.1,2.1,1.1,3.4,0.2c0.5-0.3,0.8-0.9,1-1.3c0.7-1.7,0.3-3.5,0-5.2c-0.4-2.1-0.9-4.1-0.4-6.2c0.1-0.7,0.3-1.5,1.1-2.1
		c0.4-0.3,0.8-0.4,1.3-0.2c0.9,0.4,1.8,0.9,2,1.7c0.1,0.8,0.1,1.6,0.2,2.4c0.1,0.8,0.1,1.7,0.4,2.5c0.3,0.9,1,1,2.2,0.5l0,0
		c0.3-0.5,0.7-1,0.8-1.5c0.2-0.9,0.1-1.7,0.3-2.6c0.2-1.2,0.5-2.3,0.8-3.5c0.3-1.1,0.9-2.1,2-3c0.9-0.7,1.8-1.5,2.6-2.3
		c0.7-0.6,1.6-1.1,2.9-0.9c1.7,0.2,3.1,0.7,4.2,1.5c1.3,1,1.8,2.2,1.9,3.5c0.2,2.4-0.5,4.7-0.9,7.1c-0.3,1.8-0.3,3.5,0.8,5.2
		c0.5,0.8,1.4,1.4,2.6,1.7c2.5,0.6,5.4-0.2,6.2-2c0.6-1.3,0.6-2.6,0.4-3.8c-0.3-2.1-0.7-4.2-0.5-6.3c0.1-1.2,0.6-2.4,2.1-3.2
		c1.2-0.6,2.5-1.1,3.9-1.5c1.8-0.6,3.9-0.3,5.8-0.3c1,0,1.9-0.2,2.6-0.7c0.9-0.5,1.6-1.1,2.5-1.5c0.4-0.2,1.1-0.3,1.6-0.2
		c0.8,0.2,1.2,0.7,1.2,1.3c-0.1,1.2-0.1,2.3-0.2,3.5c-0.1,1.4-0.4,2.7-0.4,4.1c0,0.9,0.2,1.8,0.9,2.6c1,1.1,3.3,1.4,4.9,0.6
		c1.1-0.6,1.3-1.4,1.4-2.2c0.1-0.8,0.1-1.7,0-2.5c-0.1-1.2-0.3-2.5-0.5-3.7c-0.3-1.4-0.3-2.8,0.3-4.2c0.8-2.1,4.1-2.7,6.6-2.3
		c3.8,0.7,6.4,2.4,7.9,4.9c1.2,1.9,1.5,3.9,1.9,6c0.4,2.5,0.8,5,1,7.5c0.1,1.1,0.1,2.3,0,3.4c-0.2,1.3-0.7,2.6-1,3.9
		c-0.5,1.7-0.2,3.3,1.5,4.7c0.7,0.6,1.7,0.9,2.8,1.1c0.7,0.1,1.4,0.1,2.1,0c1.6-0.1,2.8-0.7,3.5-1.6c0.9-1.2,1.1-2.6,1.1-3.9
		c-0.1-2-0.4-4-0.5-6c-0.1-3.8-0.2-7.7,0.4-11.5c0.1-0.4-0.1-0.8,0.1-1.2c0.3-0.8,0.7-1.7,1.2-2.5c0.5-0.8,0.9-1.7,2-2.3
		c1.3-0.7,2.4-0.8,3.7-0.1c1.8,0.9,2.8,2.1,3.6,3.4c0.7,1.2,1.6,2.4,3,3.3c1.4,0.9,4.1,1.1,5.6-0.1c0.7-0.6,1.3-1.3,2-1.9
		c0.7-0.7,1.2-1.4,1.9-2c0.6-0.6,1.4-0.5,1.9,0.1c0.8,1.2,1.3,2.4,1.4,3.6c0.2,1.9-0.1,3.8-1,5.7c-0.4,0.8-0.6,1.6-0.1,2.4
		c0.3,0.4,0.6,0.8,1,1.1c1.5,1.5,4.9,1.4,6.2-0.2c0.7-0.9,0.6-1.8,0.4-2.8c-0.3-1.4-0.8-2.8-1-4.2c-0.1-1.1-0.2-2.3,0.2-3.3
		c0.7-1.9,2.5-3.3,5.7-3.5c0.2,0,0.4-0.1,0.5-0.2C192.2,186.5,191.9,185.9,191.2,185.5z M18.6,208.1c-0.2,0-0.5-0.1-0.6-0.2
		c-0.2-0.3-0.2-0.6-0.3-0.9c0-0.2,0-0.3,0.1-0.4c0.1-0.1,0.3-0.2,0.4-0.2c0.2,0,0.4,0.1,0.4,0.2c0.1,0.4,0.2,0.9,0.3,1.3
		C18.9,208,18.6,208.2,18.6,208.1z M18.9,197.2L18.9,197.2l-0.1-0.5c0,0,0,0,0.1,0V197.2z M19,196L19,196l-0.1-1.3c0,0,0,0,0.1,0
		V196z M23.1,208.1c0,0-0.1-0.1-0.1-0.1c0-0.1,0.1-0.1,0.2-0.1c0,0,0.1,0,0.1,0.1C23.2,208,23.2,208,23.1,208.1z M37.4,191.7
		c-1.7-0.6-3.4-1.1-4.6-2.1c-0.2-0.2-0.4-0.4-0.6-0.6c0,0,0.1,0,0.1-0.1c0.6,0.3,1.2,0.7,1.9,1c1.1,0.5,2.3,0.9,3.4,1.4
		c0.2,0.1,0.3,0.2,0.5,0.4C37.8,191.7,37.6,191.8,37.4,191.7z M43.4,201.7C43.4,201.7,43.4,201.7,43.4,201.7l0.1,2.8
		c0,0-0.1,0-0.1,0V201.7z M43.2,219.9c-0.4,0.1-0.9,0.1-1-0.3c-0.2-0.4-0.3-0.9-0.4-1.3c0-0.7,0.1-0.8,0.9-0.6
		c0.2,0,0.5,0.2,0.5,0.3c0.2,0.5,0.3,1.1,0.3,1.6C43.6,219.7,43.4,219.8,43.2,219.9z M49.2,218c0.1,0,0.2,0,0.3,0
		c-0.1,0.2-0.1,0.5-0.2,0.7c-0.1,0-0.2,0-0.3-0.1C49,218.4,49.1,218.2,49.2,218z M61.5,188.2c1,0.6,1.9,1.3,2.1,2.3
		C62.9,189.7,62.2,189,61.5,188.2z M65.4,198c0.1,0,0.1,0,0.2,0c0,0.6-0.1,1.1-0.1,1.7h0V198z M65.6,207.2c-0.1,0.1-0.3,0.1-0.3,0.1
		c-0.1,0-0.3-0.1-0.3-0.2c-0.1-0.5-0.1-1-0.1-1.4C65.5,205.8,65.8,206.9,65.6,207.2z M68.2,206.9c0,0-0.1,0-0.1,0
		c0-0.1,0-0.1,0.1-0.2h0.1V206.9z M68.6,187.5c0-0.1,0.1-0.1,0.1-0.2c0.1,0,0.1,0.1,0.1,0.1C68.8,187.5,68.7,187.5,68.6,187.5z
		 M71.8,190.4C71.7,190.3,71.7,190.3,71.8,190.4c0.1-0.1,0.2-0.2,0.3-0.2C72,190.2,71.9,190.3,71.8,190.4z M73.8,195.7L73.8,195.7
		c-0.1-0.1-0.1-0.2-0.1-0.3c0,0,0,0,0.1,0V195.7z M74.4,199.9c-0.1-0.2-0.2-0.5-0.4-0.7c0.1,0,0.2,0,0.3-0.1l0.3,0.7
		C74.6,199.8,74.5,199.8,74.4,199.9z M92.5,195.1c0.1,0,0.2,0,0.3,0c-0.1,0.6-0.2,1.2-0.2,1.9c-0.1,0-0.2,0-0.2,0
		C92.4,196.4,92.5,195.8,92.5,195.1z M87.6,185.5c0.1,0,0.1-0.1,0.2-0.1c0.3,0.1,0.7,0.1,0.9,0.3c2,1.1,2.8,2.7,3.6,4.2
		C91,188.3,90.3,186.5,87.6,185.5z M93.2,203.7c-0.1,0.1-0.4,0-0.5,0c-0.3-0.2-0.6-0.5-0.7-0.8c-0.1-0.2-0.1-0.5-0.2-0.8
		c0.8,0,1.2,0.1,1.3,0.6c0.1,0.2,0.2,0.4,0.2,0.7C93.3,203.5,93.3,203.7,93.2,203.7z M98.6,203.9c-0.1,0-0.1,0-0.2-0.1
		c0.2-0.2,0.3-0.4,0.5-0.6c0.1,0,0.1,0,0.2,0.1C98.9,203.4,98.8,203.7,98.6,203.9z M103.6,184.1L103.6,184.1L103.6,184.1
		L103.6,184.1z M105.8,181.3c0,0,0-0.1-0.1-0.1c0.5-0.1,1-0.2,1.4-0.3c0,0,0,0.1,0.1,0.1C106.7,181.1,106.2,181.2,105.8,181.3z
		 M115.7,185.2c-0.3,0.2-0.7,0.3-1,0.4c0,0,0,0,0,0l0,0c0,0,0,0,0,0c0.8-0.6,1.6-1.1,2.8-1.3c0.8-0.1,1.3,0.1,1.8,0.6
		C117.8,184.3,116.8,184.7,115.7,185.2z M120.8,189.1c0,0,0.1,0,0.1,0c-0.1,0.7-0.1,1.5-0.2,2.2c-0.1,0-0.1,0-0.2,0
		C120.7,190.6,120.7,189.8,120.8,189.1z M121,196.9c-0.2-0.1-0.5-0.1-0.5-0.2c-0.2-0.3-0.3-0.7-0.4-1.1c0.1-0.1,0.3-0.3,0.4-0.3
		c0.2,0,0.5,0.1,0.5,0.2c0.1,0.3,0.2,0.6,0.3,0.9C121.3,196.7,121.1,196.8,121,196.9z M125.2,196.5c-0.1,0-0.2,0-0.2,0
		c0.1-0.2,0.1-0.4,0.2-0.5c0.1,0,0.1,0,0.2,0C125.3,196.2,125.2,196.3,125.2,196.5z M142.5,189.3c0-0.1,0-0.1,0-0.2c0,0,0,0,0,0
		c0,0,0,0,0,0c-0.4-0.6-0.7-1.3-1.2-1.9c-0.6-0.8-1.4-1.7-2.1-2.5c0,0,0,0,0,0c0,0-0.1-0.1-0.1-0.1l0,0c0,0,0.1,0.1,0.1,0.1
		c0,0,0,0,0,0c0.4,0.3,0.9,0.7,1.2,1c0.9,1.1,1.7,2.2,2,3.4c0,0,0,0,0,0v0C142.5,189.2,142.6,189.3,142.5,189.3
		C142.6,189.3,142.5,189.3,142.5,189.3z M144.8,212.4c-1.3-0.4-1.9-2-1.1-2.7c0.7,0.2,1.1,0.5,1.1,1.1
		C144.8,211.3,144.8,211.8,144.8,212.4z M145,203.3c-0.1-1-0.1-1.9-0.2-2.9c0.1,0,0.1,0,0.2,0c0.1,1,0.2,1.9,0.3,2.9
		C145.2,203.2,145.1,203.2,145,203.3z M150.9,212.3c0,0-0.1-0.1-0.1-0.1c0.1-0.1,0.2-0.1,0.3-0.2c0.1,0,0.1,0.1,0.2,0.1
		C151.1,212.2,151,212.3,150.9,212.3z M164.7,188.2c-0.4-0.6-0.8-1.2-1.2-1.8c0.5,0.6,1,1.1,1.4,1.7
		C164.9,188.1,164.8,188.2,164.7,188.2z M167.8,185.8c0.2-0.1,0.4-0.1,0.6-0.2c0,0,0.1,0.1,0.1,0.1
		C168.3,185.7,168.1,185.7,167.8,185.8z M170.8,189.8c0,0-0.1,0-0.1,0C170.7,189.8,170.7,189.8,170.8,189.8
		C170.8,189.8,170.8,189.8,170.8,189.8C170.8,189.8,170.8,189.8,170.8,189.8z M180.6,200.2c-0.9-0.2-1.1-0.8-0.6-1.6
		C180.9,198.8,181,199.1,180.6,200.2z M180.9,193.9C180.9,193.9,180.9,193.9,180.9,193.9l-0.1-0.9h0.1V193.9z M181.5,184.7
		L181.5,184.7c0,0,0.1-0.1,0.1-0.1l0,0C181.6,184.6,181.6,184.6,181.5,184.7z M184,187.1C184,187.1,184,187.1,184,187.1L184,187.1
		C184,187.1,184,187.1,184,187.1z M184.1,187L184.1,187c0-0.1,0.1-0.1,0.1-0.2h0C184.2,186.8,184.2,186.9,184.1,187z M185.4,200.1
		c0.1,0,0.1,0,0.2,0.1c-0.1,0.1-0.1,0.1-0.2,0.2c0,0-0.1,0-0.1,0C185.3,200.3,185.4,200.2,185.4,200.1z"/>
	<g>
		<path d="M18.8,196.7v0.5h0.1L18.8,196.7C18.9,196.7,18.9,196.7,18.8,196.7z M23.2,207.9c-0.1,0-0.1,0.1-0.2,0.1c0,0,0.1,0,0.1,0.1
			c0.1-0.1,0.1-0.1,0.2-0.2C23.3,207.9,23.2,207.9,23.2,207.9z M68.2,206.7c0,0.1,0,0.1-0.1,0.2c0,0,0.1,0,0.1,0L68.2,206.7
			L68.2,206.7z M68.7,187.3c0,0.1-0.1,0.1-0.1,0.2c0.1,0,0.2,0,0.3-0.1C68.8,187.4,68.8,187.3,68.7,187.3z M71.7,190.3
			C71.7,190.3,71.7,190.3,71.7,190.3c0.2,0,0.3-0.1,0.4-0.2C71.9,190.2,71.8,190.3,71.7,190.3z M73.8,195.4c0,0.1,0,0.2,0,0.3h0
			L73.8,195.4C73.8,195.4,73.8,195.4,73.8,195.4z M170.7,189.8C170.7,189.8,170.7,189.8,170.7,189.8
			C170.7,189.8,170.7,189.8,170.7,189.8c0.1,0.1,0.1,0,0.1,0C170.8,189.8,170.8,189.8,170.7,189.8z M181.6,184.6
			c0,0-0.1,0.1-0.1,0.1v0C181.6,184.6,181.6,184.6,181.6,184.6L181.6,184.6z M184,187C184,187.1,184,187.1,184,187
			C184,187.1,184,187.1,184,187L184,187z M184.3,186.8c0,0.1-0.1,0.1-0.1,0.2h0C184.2,186.9,184.2,186.8,184.3,186.8L184.3,186.8z
			 M185.4,200.1c-0.1,0.1-0.1,0.2-0.2,0.2c0,0,0.1,0,0.1,0c0.1-0.1,0.1-0.1,0.2-0.2C185.5,200.1,185.5,200.1,185.4,200.1z"/>
		<path d="M68.9,187.4c-0.1,0-0.2,0-0.3,0.1c0-0.1,0.1-0.1,0.1-0.2C68.8,187.3,68.8,187.4,68.9,187.4z"/>
		<path d="M181.5,184.7C181.5,184.7,181.5,184.7,181.5,184.7C181.4,184.7,181.4,184.7,181.5,184.7z"/>
		<path d="M181.7,184.6c0,0-0.1,0.1-0.1,0.1v0C181.6,184.6,181.6,184.6,181.7,184.6L181.7,184.6z"/>
		<path d="M72.1,190.2c-0.1,0.1-0.2,0.1-0.3,0.2c0,0,0,0-0.1-0.1C71.8,190.3,71.9,190.2,72.1,190.2z"/>
		<path d="M184,187C184,187.1,184,187.1,184,187C184,187.1,184,187.1,184,187L184,187z"/>
		<path d="M184.3,186.8c0,0.1-0.1,0.1-0.1,0.2h0C184.2,186.9,184.2,186.8,184.3,186.8L184.3,186.8z"/>
		<path d="M18.9,196.7v0.5h-0.1L18.9,196.7C18.9,196.7,18.9,196.7,18.9,196.7z"/>
		<path d="M185.6,200.2c-0.1,0.1-0.1,0.1-0.2,0.2c0,0-0.1,0-0.1,0c0.1-0.1,0.1-0.2,0.2-0.2C185.5,200.1,185.5,200.1,185.6,200.2z"/>
		<path d="M23.3,207.9c-0.1,0.1-0.1,0.1-0.2,0.2c0,0-0.1-0.1-0.1-0.1c0-0.1,0.1-0.1,0.2-0.1C23.2,207.9,23.3,207.9,23.3,207.9z"/>
		<path d="M73.8,195.4v0.3h0C73.8,195.6,73.8,195.5,73.8,195.4C73.8,195.4,73.8,195.4,73.8,195.4z"/>
		<path d="M68.2,206.7v0.2c0,0-0.1,0-0.1,0C68.1,206.8,68.1,206.7,68.2,206.7L68.2,206.7z"/>
		<path d="M170.8,189.8C170.8,189.8,170.8,189.8,170.8,189.8c-0.1,0.1-0.2,0-0.2,0c0,0,0.1,0,0.1,0
			C170.8,189.8,170.8,189.8,170.8,189.8z"/>
		<polygon points="103.6,184.1 103.6,184.1 103.6,184.1 		"/>
	</g>
	<polygon points="103.6,184.1 103.6,184.1 103.6,184.1 	"/>
	<path d="M107.2,181c-0.5,0.1-1,0.2-1.4,0.3c0,0,0-0.1-0.1-0.1c0.5-0.1,1-0.2,1.4-0.3C107.1,180.9,107.2,181,107.2,181z"/>
	<path d="M68.9,187.4c-0.1,0-0.2,0-0.3,0.1c0-0.1,0.1-0.1,0.1-0.2C68.8,187.3,68.8,187.4,68.9,187.4z"/>
	<path d="M72.1,190.2c-0.1,0.1-0.2,0.1-0.3,0.2c0,0,0,0-0.1-0.1C71.8,190.3,71.9,190.2,72.1,190.2z"/>
	<path d="M168.5,185.6c-0.2,0-0.5,0.1-0.7,0.1c0.2-0.1,0.4-0.1,0.6-0.2C168.5,185.6,168.5,185.6,168.5,185.6z"/>
	<path d="M170.8,189.8C170.8,189.8,170.8,189.8,170.8,189.8c-0.1,0.1-0.2,0-0.2,0c0,0,0.1,0,0.1,0
		C170.8,189.8,170.8,189.8,170.8,189.8z"/>
	<rect x="179.7" y="182.9" width="5.9" height="6.2"/>
</g>
</svg>
