<?xml version="1.0" encoding="utf-8"?>
<!-- Generator: Adobe Illustrator 19.1.0, SVG Export Plug-In . SVG Version: 6.00 Build 0)  -->
<svg version="1.1" id="Layer_1" xmlns="http://www.w3.org/2000/svg" xmlns:xlink="http://www.w3.org/1999/xlink" x="0px" y="0px"
	 viewBox="0 0 576 576" style="enable-background:new 0 0 576 576;" xml:space="preserve">
<g>
	<path d="M0.3,476.9c0-125.9,0-251.9,0-377.8c0.2-1.5,0.5-2.9,0.6-4.4c2.8-21.4,10.9-40.3,25.3-56.6C47.3,14.1,73.4,0.5,105.5,0.5
		c121.9-0.2,243.7-0.2,365.6,0c21.2,0,40.8,6.2,58,18.8c29.7,21.6,46.5,50.4,46.5,87.7c0.2,120.7,0.1,241.4,0.1,362.2
		c0,15.8-2.8,31.2-10.2,45c-21,39.5-53.3,61.5-99,61.5c-119,0-238.1,0.1-357.1-0.1c-8.1,0-16.3-0.6-24.2-2.2
		c-39.5-8.1-72.2-39.8-81.8-79.1C2.1,488.5,1.3,482.7,0.3,476.9z M312.4,228.5c-2.9-10.5-5.1-12.4-14.7-12.4c-21-0.1-42.1,0-63.1,0
		c-5.6,0-10.9,1.1-15.4,4.7c-1.9,1.6-3,3.4-3,6.1c0.1,79.9,0.1,159.9,0,239.8c0,3.6,1.3,6.1,4,8.2c4.4,3.6,9.5,4.9,15,4.9
		c21.5,0,43,0,64.5,0c7.9,0,12.4-4.6,12.4-12.6c0-43.1-0.1-86.1,0.1-129.2c0-6.8,0.7-13.8,2-20.5c2.4-13.2,8.7-23.9,21.7-29.3
		c9.7-4.1,19.9-4.2,30.2-2.5c8.7,1.5,14.3,6.4,15.9,15.1c1.1,6,2,12.1,2,18.1c0.2,49.4,0.1,98.9,0,148.3c0,3.1,1.1,5.5,3.1,7.6
		c3.6,4,8.3,5,13.5,5c21.8,0,43.5,0,65.3,0c0.9,0,1.8,0,2.6-0.1c7.3-0.8,11.6-5.5,11.6-12.9c0-53.6,0-107.2,0-160.8
		c0-10-0.9-19.9-3.1-29.7c-6.7-29.7-24.3-49.9-52.6-60.6c-21.9-8.3-44.6-9.6-67.6-6.2C340.4,212,325.7,218.4,312.4,228.5z
		 M96.2,347.8c0,39.8,0,79.6,0.1,119.4c0,2.4,0.8,5.1,2,7.2c2.5,4.5,6.9,5.6,11.8,5.6c22,0,44,0,66,0c1.8,0,3.5-0.1,5.3-0.2
		c6.1-0.6,10.6-5.6,10.6-11.8c0-78.8,0-157.5,0-236.3c0-1.2,0-2.5,0-3.7c-0.2-6-4.8-11-10.8-11.4c-4.3-0.3-8.7-0.3-13-0.3
		c-19.4,0-38.7,0.2-58.1-0.1c-9.1-0.1-14.2,6.4-14.2,14C96.4,269.2,96.3,308.5,96.2,347.8z M188.7,142.7c0-25.9-20.4-46.4-46.4-46.4
		c-25.8-0.1-46.1,20.4-46.1,46.3c0,26,20.5,46.6,46.2,46.6C169.9,189.3,189.5,165.7,188.7,142.7z"/>
</g>
</svg>
