<svg xmlns="http://www.w3.org/2000/svg" viewBox="0 0 576 576" enable-background="new 0 0 576 576"><style type="text/css">.st0{fill:#FED245;}</style><path class="st0" d="M.3 476.9v-377.8c.2-1.5.5-2.9.6-4.4 2.8-21.4 10.9-40.3 25.3-56.6 21.1-24 47.2-37.6 79.3-37.6 121.9-.2 243.7-.2 365.6 0 21.2 0 40.8 6.2 58 18.8 29.7 21.6 46.5 50.4 46.5 87.7.2 120.7.1 241.4.1 362.2 0 15.8-2.8 31.2-10.2 45-21 39.5-53.3 61.5-99 61.5-119 0-238.1.1-357.1-.1-8.1 0-16.3-.6-24.2-2.2-39.5-8.1-72.2-39.8-81.8-79.1-1.3-5.8-2.1-11.6-3.1-17.4zm312.1-248.4c-2.9-10.5-5.1-12.4-14.7-12.4-21-.1-42.1 0-63.1 0-5.6 0-10.9 1.1-15.4 4.7-1.9 1.6-3 3.4-3 6.1.1 79.9.1 159.9 0 239.8 0 3.6 1.3 6.1 4 8.2 4.4 3.6 9.5 4.9 15 4.9h64.5c7.9 0 12.4-4.6 12.4-12.6 0-43.1-.1-86.1.1-129.2 0-6.8.7-13.8 2-20.5 2.4-13.2 8.7-23.9 21.7-29.3 9.7-4.1 19.9-4.2 30.2-2.5 8.7 1.5 14.3 6.4 15.9 15.1 1.1 6 2 12.1 2 18.1.2 49.4.1 98.9 0 148.3 0 3.1 1.1 5.5 3.1 7.6 3.6 4 8.3 5 13.5 5h65.3c.9 0 1.8 0 2.6-.1 7.3-.8 11.6-5.5 11.6-12.9v-160.8c0-10-.9-19.9-3.1-29.7-6.7-29.7-24.3-49.9-52.6-60.6-21.9-8.3-44.6-9.6-67.6-6.2-16.4 2.5-31.1 8.9-44.4 19zm-216.2 119.3c0 39.8 0 79.6.1 119.4 0 2.4.8 5.1 2 7.2 2.5 4.5 6.9 5.6 11.8 5.6h66c1.8 0 3.5-.1 5.3-.2 6.1-.6 10.6-5.6 10.6-11.8v-240c-.2-6-4.8-11-10.8-11.4-4.3-.3-8.7-.3-13-.3-19.4 0-38.7.2-58.1-.1-9.1-.1-14.2 6.4-14.2 14 .5 39 .4 78.3.3 117.6zm92.5-205.1c0-25.9-20.4-46.4-46.4-46.4-25.8-.1-46.1 20.4-46.1 46.3 0 26 20.5 46.6 46.2 46.6 27.5.1 47.1-23.5 46.3-46.5z"/></svg>