<?xml version="1.0" encoding="utf-8"?>
<!-- Generator: Adobe Illustrator 19.1.0, SVG Export Plug-In . SVG Version: 6.00 Build 0)  -->
<svg version="1.1" id="Layer_1" xmlns="http://www.w3.org/2000/svg" xmlns:xlink="http://www.w3.org/1999/xlink" x="0px" y="0px"
	 viewBox="0 0 771.3 704.2" style="enable-background:new 0 0 771.3 704.2;" xml:space="preserve">
<style type="text/css">
	.st0{fill:#FEE600;}
</style>
<g>
	<g>
		<g>
			<path d="M591.9,344.9c-0.9,4.9-2.5,9.7-1.2,14.7c1.8,7.1-4.6,14.3-10.4,15.8c-1.3,0.3-3.5-0.5-4.6-1.6c-3.5-3.3-5.9-7.2-4-12.4
				c1-2.6,1.9-5.2,2.8-7.9c0.1-0.3,0.1-0.7,0.1-1.1c-0.5,0.1-1,0.1-1.4,0.3c-1.2,0.8-2.2,2-3.4,2.5c-1.4,0.5-3.6,1.2-4.3,0.5
				c-1.2-1.1-2-3.2-1.9-4.8c0.2-3.5,1.1-7,1.7-10.4c0.1-0.7,0.4-1.4,0.5-2.1c0.2-2.3-0.4-2.8-2.6-2.3c-3,0.7-6,1.7-9.1,2.2
				c-2.3,0.4-3.1,1.8-3.1,3.8c-0.1,7.8-0.1,15.5-0.1,23.3c0,10.7,0.1,21.5,0.1,32.2c0,10.1-0.1,20.1-0.1,30.2c0,0.8,0,1.7,0.1,2.5
				c0.2,1.8,1,2.2,2.9,1.7c12.2-2.9,24.7-4.4,37.1-5.8c2.5-0.3,5.1,0.3,7.6,0.3c2.7-0.1,5.4-0.5,8-0.6c1.9-0.1,3.2,0.3,3.2,2.8
				c-0.1,5.2,0,10.4,0,15.7c-0.1,15.7-0.2,31.5-0.3,47.2c0,1.1,0,2.3,0,3.4c0,1.5-0.7,1.9-2.1,2c-1.6,0.1-4.1,0.1-4.5,1
				c-1.1,2.3-2.6,4.7-1.8,7.6c0.9,3.3,1.3,6.6,1.8,10c1,6.6-2.3,11.4-6.8,15.6c-1.4,1.3-3.1,1-3.7-1c-0.9-2.8-1.3-5.7-1.8-8.6
				c-0.2-1.2,0.2-2.6,0-3.8c-0.1-0.7-0.7-1.4-1.1-2.1c-0.7,0.4-1.5,0.7-1.9,1.3c-2.1,3.1-2.4,6.8-3.2,10.4
				c-0.8,3.6-1.6,7.2-2.5,10.8c-1.4,5.3-5.2,9-9.3,12.2c-2.1,1.6-5.9,0.2-6.9-2.7c-0.7-2.3-1.2-4.7-1.1-7.1
				c0.2-3.7,0.6-7.4,1.6-10.9c0.7-2.8,2.2-5.4,3.5-8.1c1.6-3.2,4.3-5.9,4.8-10c-3.2,0.8-6.1,1.3-8.9,2.4c-1,0.4-1.5,1.9-2.2,2.9
				c-0.9,1.3-1,3.8-3.1,3.5c-2.6-0.3-2.5-2.8-2.7-4.7c-0.4-3.9-0.6-7.9-1-11.8c-0.1-1.4,0-2.9-2.1-2.9c-2.8,0-3.7,0.6-3.7,3.2
				c0,10.1,0,20.1,0,30.2c-0.1,22.8-0.2,45.6-0.3,68.4c0,3.1,0.2,6.2,0.2,9.3c0,1.4,0.5,2,2.1,1.9c5-0.4,10.1-0.5,15.1-0.9
				c8.1-0.6,16.2-1.4,24.3-1.9c2.9-0.2,5.9,0.1,8.9,0.2c4.5,0.1,9.1,0.1,13.6,0.2c3.6,0,3.6,0,3.6,3.4c0,14.2-0.1,28.4-0.2,42.5
				c0,10.6,0,21.3,0,31.9c0,4.4-0.1,4.6-4.4,4.6c-16.2-0.2-32.3-0.5-48.5-0.7c-6.9-0.1-13.8,0.4-20.7,0.4c-9.5,0-19-0.3-28.5-0.4
				c-5.7-0.1-11.3-0.1-17-0.2c-3.8-0.1-3.9-0.2-3.9-3.8c0.1-24.9,0.2-49.9,0.2-74.8c0-27.7,0-55.3,0.1-83c0-32.8,0.1-65.5,0.2-98.3
				c0-17.3,0.1-34.6,0.2-51.9c0.1-11,0.3-22.1,0.3-33.1c0-9.3-0.2-18.7-0.3-28c0-4.7,0.1-9.3,0-14c-0.1-2.4,0.9-3.9,3.1-4.9
				c4.8-2.1,9.6-4.2,14.2-6.7c8.8-4.7,18.1-7.9,27.5-10.9c9.9-3.2,19.9-6.1,30.1-8.3c9.1-1.9,18.4-2.9,27.6-3.7
				c6-0.5,12.2,0,18.3,0.1c2.3,0,1.9,1.7,1.9,3c0,6.7-0.1,13.3-0.1,20c-0.1,10.2-0.1,20.4-0.2,30.6c0,0.9-0.1,1.7,0,2.6
				c0.2,2.1-0.9,2.7-2.8,2.6c-1.8-0.1-3.7-0.1-5.5-0.1c-3.7,0-6.2,2.9-5.7,6.6c0.2,1.4,0.5,2.8,0.8,4.2c1.2,4.6-0.8,7.9-3.9,11
				c-1.6,1.6-3.3,1.4-5.1,0.6c-1.9-0.8-3.1-2-2.9-4.2c0.1-1.3,0.3-2.6,0.4-3.9C592.7,345,592.3,344.9,591.9,344.9z"/>
			<path d="M450.3,413c0,4.3,0.1,8.3,0,12.4c-0.2,3.2-0.6,6.5-1.1,9.7c-0.2,1.3-1,2.7-1.7,3.9c-3.1,5-7.2,5.1-10.7,0.2
				c-2-2.8-2.4-5.8-1.6-9.3c1.4-6.1,2.4-12.2,3.4-18.3c0.3-1.5,1-3.6-1.2-4.4c-1.7-0.6-4.4,0.8-5,3c-0.7,2.6-1,5.3-1.1,7.9
				c-0.1,3.3-1.2,6.1-3.3,8.5c-2,2.3-3.5,2-4.5-0.8c-0.7-2-1-4.1-1.6-6.1c-0.2-0.7-0.7-1.3-1-1.9c-0.3,0.7-0.8,1.5-0.8,2.2
				c0.1,2.9-0.9,5.2-3.4,6.9c-2.8,1.9-4.2,1.4-4.5-2c-0.2-2.3,0.2-4.6,0.4-7.2c-2.8,2.6-3.7,5.7-3.8,9.3c-0.2,4.4,0,8.8-2,12.9
				c-1.1,2.2-2.4,4.2-5.2,4.2c-2.7-0.1-5.7-3.1-5.9-6.2c-0.1-2.5,0.3-5.1,0.4-7.6c0-0.4-0.4-0.9-0.6-1.3c-0.3,0.2-0.8,0.4-1,0.7
				c-1.1,2.1-2,4.4-3.2,6.4c-4.3,7-7.3,14.7-9.6,22.5c-4,13.8-6.7,27.9-8.2,42.3c-1.3,12.4-1.2,24.8-1.2,37.2c0,5.3-0.5,10.7-0.2,16
				c0.3,7.4-0.1,14.9,1.4,22.3c0.7,3.7,1.1,7.5,1.4,11.3c0.8,7.2,2.8,14.1,5.1,21c3.4,10.1,8.3,19.2,17.9,24.7
				c6.9,3.9,14.3,4.8,22.1,3.5c2.3-0.4,3.3-2,3.3-4.3c0-8.6-0.1-17.2-0.1-25.9c0-6.2,0.1-12.4,0.1-18.6c0-11.5,0-22.9-0.1-34.4
				c0-0.4-0.2-0.7-0.4-1.2c-3.5,3.4-4.1,7.6-4.4,12.1c-0.4,6-1.1,12.1-1.9,18.1c-0.5,3.6-3.1,6-5.7,8.2c-0.7,0.6-2.7,0.2-3.9-0.2
				c-1.8-0.6-2.7-2.1-2.3-4c0.9-4.4,1.8-8.8,2.8-13.2c0.1-0.7,0.5-1.3,0.8-2.1c-0.5-0.1-0.9-0.3-1.3-0.2c-2,0.5-4,2.6-5.9-0.5
				c-2.6-4.1-2.7-5.9-0.4-9.1c1.4-1.9,2.4-4.1,3.6-6.2c0.2-0.3,0.2-0.9,0-1.1c-0.2-0.2-0.8-0.3-1.1-0.2c-1.5,0.5-2.9,1-4.4,1.6
				c-2.3,0.9-2.6,0.8-2.7-1.7c-0.1-3.8,0-7.7,0-11.5c0-11.3,0.1-22.7,0-34c0-2.6,0.7-4.1,3.1-5.3c7.5-3.7,14.8-7.6,22.2-11.4
				c12.5-6.3,24.9-12.7,37.4-18.8c4.3-2.1,8.8-3.8,13.2-5.6c1.4-0.6,1.7,0.4,1.7,1.5c0,4.8,0,9.6,0,14.5c0,8.6-0.1,17.3-0.1,25.9
				c-0.1,12.3-0.3,24.6-0.3,36.9c0,11,0.3,22,0.3,33c0,6.6-0.3,13.3-0.4,19.9c0,5.5,0.2,11,0.2,16.5c0,7.1-0.1,14.1-0.1,21.2
				c0,6.2,0.1,12.4,0.2,18.7c0,6.5,0,13,0.1,19.5c0,2.1-0.5,3.8-2.6,4.9c-4.6,2.4-9.1,5.1-13.9,7.2c-8.7,3.8-17.5,7.2-27.1,8.1
				c-11.1,1-22.1,0.5-33-2.6c-8-2.3-16.1-4.3-23.6-8.1c-8.2-4.2-16-8.8-22.8-15.2c-13.5-12.7-22.4-28-27.8-45.7
				c-3.3-10.9-5.3-22-6.3-33.3c-1-10.7-0.8-21.5-0.9-32.2c-0.1-12.2,1.5-24.2,2.9-36.3c1.6-14.1,4.5-27.9,8.4-41.5
				c3-10.6,6.6-21,11.1-31.1c6.4-14.4,13.4-28.3,21.9-41.5c3.3-5.1,6.9-10,10.6-14.8c4.9-6.4,10-12.6,15.1-18.8
				c1.3-1.5,2.8-2.8,4.3-4.1c7.1-6.2,14.2-12.5,21.5-18.5c7.2-5.9,15.2-10.7,23.5-15.1c6.5-3.5,13.5-5.6,20.5-7.6
				c1.3-0.4,2.7-0.6,4.1-0.7c3.8-0.4,3.8-0.3,3.8,3.4c-0.1,10,0,20.1-0.1,30.1c-0.1,11-0.2,22-0.4,33c0,2.2-0.8,4.4-1.2,6.7
				c-0.4,2.6-0.8,5.3-1.3,7.9c-0.2,1.1-0.4,2.2-0.9,3.2c-2.2,4.5-4.3,4.8-8,1.4C451.2,413.4,450.8,413.3,450.3,413z M447.7,403.7
				c0.1,0,0.2,0.1,0.4,0.1c0,0.1,0,0.3,0,0.4c0.4,1.2,0.9,2.4,1.3,3.6c0.3-1,0.5-2,0.9-3c0.3-0.9,0.8-1.8,1.1-2.8
				c0.3-1.1,0.6-2.2,0.6-3.3c0-0.5-0.5-1.1-0.8-1.7c-0.6,0.4-1.4,0.6-1.6,1.1C448.7,400,448.2,401.9,447.7,403.7z"/>
			<path d="M750.7,425.2c-0.3,0-0.5,0.1-0.6,0c-1-0.6-2.1-1.3-3.1-1.9c-0.2,1.4-0.8,2.9-0.7,4.3c0.2,2.7,0.7,5.3,1.2,7.9
				c0.7,3.5-2,5.2-4.2,6.7c-2.5,1.8-6.3-1.2-6.4-5.1c-0.1-3.4,0.3-6.8,0.5-10.2c0.1-1.4,0.3-2.8,0.3-4.2c0-0.4-0.5-0.9-0.7-1.3
				c-0.4,0.3-1.1,0.5-1.2,0.9c-0.5,1.9-1.3,3.9-1.2,5.8c0.3,8.1-1.8,16-2.5,24c-0.3,3.5-4.7,7.8-8,8.4c-2.7,0.5-6.5-2.5-6.6-5.8
				c0-2.8,0.2-5.8,1.4-8.2c4-8.5,6.5-17.3,6.3-26.6c-0.1-5.4-1.3-10.9-2.1-16.3c-0.4-2.8-0.9-5.6-1.5-8.3c-0.2-1.1-0.6-2.2-1.3-3
				c-2-2.4-4.1-4.7-6.2-7c-0.4-0.5-1.1-0.7-1.7-1.1c-0.3,0.7-0.9,1.4-0.9,2.2c-0.1,5.7-0.1,11.3-0.1,17c-0.1,10.7-0.4,21.4-0.5,32.1
				c-0.1,12.6-0.1,25.2-0.2,37.8c-0.2,23.2-0.4,46.5-0.5,69.7c-0.1,11.3,0.2,22.6,0.2,33.9c0,11.2-0.3,22.3-0.4,33.5
				c-0.1,6.9,0,13.8,0,20.8c0,20-0.1,40-0.1,59.9c0,3.4-0.1,3.4-3.6,3.4c-14.6-0.1-29.2-0.3-43.7-0.5c-1.7,0-3.4,0.1-5.1,0
				c-3.7-0.2-3.8-0.3-3.8-3.9c0-8.2,0-16.5,0.1-24.7c0.1-16,0.4-32,0.5-48c0.1-27.1,0-54.2,0.1-81.2c0.1-22,0.3-43.9,0.4-65.9
				c0.1-13.7,0.1-27.5,0.2-41.2c0.1-19.4,0.3-38.8,0.4-58.3c0.1-7.5,0.1-15,0.1-22.5c0-1.5,0.7-3.7-1.3-3.9
				c-2.2-0.3-2.3,2.2-2.6,3.8c-0.5,2.6-0.8,5.3-1.2,8c-0.5,3.4-4.5,7.6-7.7,8.3c-1.5,0.4-2.1-0.6-2.5-1.7c-1.1-2.8-0.8-5.4,0.2-8.2
				c1-2.7,1.5-5.7,2-8.6c0.2-1.2,0-3-1.7-2.8c-1.1,0.2-2.7,1.4-2.9,2.4c-0.5,2.2-0.3,4.5-0.5,6.8c-0.3,3.8-0.1,7.7-1,11.4
				c-1.7,6.7-5.6,12-11.7,15.4c-2.3,1.3-3.8,0.8-4.2-1.8c-0.4-2.9-0.4-6,0.2-8.8c1.2-6.5,2.9-12.9,4.3-19.4
				c0.9-4.5-0.1-8.9-1.1-13.3c-0.3-1.5-1.5-2.3-3.4-2.7c-4.3-0.8-4.3-1-4.2-5.5c0.2-16,0.3-32,0.5-48c0-1.4,0.1-2.8,0.1-4.3
				c0-1.5,0.9-2.2,2.2-1.9c5.5,1.3,11.1,2.4,16.4,4.3c8,2.9,15.8,6.1,23.5,9.6c5,2.3,9.6,5.4,14.3,8.1c11.2,6.6,21.5,14.4,31.1,23
				c8.2,7.3,15.6,15.5,23.1,23.5c4.4,4.6,8.6,9.3,12.6,14.2c3.7,4.5,7.1,9.4,10.5,14.2c0.7,0.9,0.8,2.4,0.8,3.6
				c-0.1,9.2-0.3,18.4-0.5,27.6c-0.1,7.1-0.2,14.2-0.3,21.2C750.8,423.6,750.7,424.4,750.7,425.2z"/>
			<path d="M60.3,644.6c0.2,13.7,0.5,27.5,0.7,41.2c0.1,5.1,0,5-5.1,5c-11.6,0-23.2,0.2-34.9,0.1c-4.6,0-9.2-0.7-13.9-1
				c-1.9-0.1-1.9-1.4-2-2.7c-0.1-3.5-0.1-7.1-0.2-10.6c-0.5-15.9-1.1-31.7-1.4-47.6c-0.3-16.1-0.5-32.3-0.5-48.4
				C3,561.2,3,541.6,3,522c0-16.6,0.2-33.2-0.1-49.8c-0.3-18.7-1-37.4-1.6-56.1C0.9,402,0.4,387.9,0,373.8c0-1.2,0.4-2.4,0.6-3.6
				c0.8,0.8,1.7,1.6,2.5,2.6c3.6,4.4,6.9,8.9,10.7,13.1c5.9,6.6,12,13.1,18.3,19.4c5.4,5.5,10.9,11,16.8,16.1
				c6.1,5.3,12.6,9.9,18.9,15c6.1,4.8,12.1,9.7,18.1,14.6c3.5,2.9,6.8,5.9,10.4,8.7c8.3,6.4,15.8,13.7,22.9,21.4
				c4.8,5.2,9.8,10.3,13.8,16c4.5,6.4,8.1,13.6,12,20.4c3.3,5.7,4.5,12.1,6.3,18.4c2.3,8.1,3,16.4,2.9,24.7
				c-0.1,6.1,0.2,12.2-0.3,18.2c-0.7,9.1-3.6,17.8-8.3,25.6c-4.9,8.1-11.9,14.1-20.9,17.9c-8.2,3.4-16.4,5-25.1,4.9
				c-2.8,0-5.7,0.5-8.5,0.1c-6.9-0.9-13.8-2-20.6-3.3c-2.9-0.5-5.7-1.5-8.5-2.5c-1.8-0.6-2.4-0.1-2.3,1.6c0.1,3.4,0.1,6.8,0.3,10.2
				c0.2,3.8,0.4,7.6,0.6,11.5C60.3,644.6,60.3,644.6,60.3,644.6z M87.2,521.6c-0.8,2.7-2.8,4.4-5.2,4.1c-2.2-0.3-4.3-1.9-6.4-2.9
				c-0.2,0.9-0.1,2.4-0.7,3.7c-1.2,2.7-2.3,5.6-4.2,7.7c-2.3,2.7-6.6,1.2-7-2.3c-0.5-4.5-1.1-9,0-13.5c0.8-3.4,1.7-6.9,2.2-10.3
				c0.5-2.9,0.8-5.9,0.9-8.9c0-1-0.7-2.1-1-3.1c-0.9,0.5-1.8,1-2.6,1.6c-0.4,0.3-0.7,1.2-1.1,1.2c-4,0.6-3.4,3.4-3.1,6.2
				c0.1,1,0.1,2,0.1,3c-0.1,7.2-0.2,14.4-0.2,21.6c0,6.7,0.2,13.3,0.1,20c0,9.1-0.2,18.1-0.3,27.2c0,1.4,0.3,2.5,1.7,3
				c3.3,1.2,6.5,2.8,9.9,3.8c3.8,1.1,7.7,1.9,11.7,0.9c8.7-2,13.1-8.2,15.6-16.2c2.2-7.3,1.9-14.9,1.6-22.3
				c-0.2-5.5-1.5-10.9-2.4-16.3c-0.1-0.6-0.6-1.2-0.9-1.7c-0.5,0.4-1.2,0.6-1.6,1.1c-2.2,2.5-4.2,2.5-6-0.3c-0.6-1-0.8-2.3-1-3.5
				C87.1,524.1,87.2,522.8,87.2,521.6z M76.1,518.7c0.4-1.1,0.8-1.7,0.9-2.3c0.1-1.4,0-2.7-0.1-4.1c-0.3,0-0.7,0-0.7,0.1
				c-0.3,1.4-0.7,2.9-0.9,4.4C75.2,517.2,75.6,517.7,76.1,518.7z"/>
			<path d="M300.6,692.4c-5.5,0-11,0-16.6,0c-4.2,0-8.4,0.2-12.6,0.2c-3.7,0-3.8,0-4.7-3.4c-1.9-6.8-3.7-13.6-5.6-20.4
				c-1-3.5-2.1-7-3.2-10.5c-0.5-1.8-1.1-1.5-2.2-0.3c-3,3.2-4.9,6.1-3.2,11c1.1,3,0.5,6.7,0,10c-0.5,3.1-2.3,5.8-5.1,7.4
				c-0.7,0.4-2.1,0.5-2.5,0c-2.1-2.2-3.9-4.5-2.9-7.9c0.6-1.9,0.8-3.9,1.1-5.8c0.3-1.9-0.5-3.6-2.5-3.8c-1.7-0.2-2.2,1.3-2.6,2.8
				c-1,4.1-2,8.3-3,12.4c-1,4.1-2.1,8.2-2.1,12.5c0,3.2-2.2,5.2-4.5,6.8c-3.2,2.2-8.6-0.7-8.9-4.6c-0.3-4.5,0.8-8.7,2.5-12.8
				c2-4.8,4-9.6,6-14.5c0.4-0.9,0.7-1.9,0.7-2.8c0-0.7-0.4-1.5-0.6-2.2c-0.6,0.3-1.2,0.7-1.8,1c-1.3,0.8-2.5,1.9-3.9,2.5
				c-4,1.7-7,0.1-8-4.1c-0.1-0.5-0.1-1.1-0.1-1.7c-0.2-1.7,0.5-3.9-2.5-4c-3.6-0.1-4.3,0.2-5.3,3.4c-2.4,8.1-4.7,16.3-7.1,24.4
				c-1.2,4.1-1.3,4.1-5.6,4c-10.8,0-21.5-0.1-32.3-0.1c-4.8,0-9.6,0.1-14.4,0c-2.5-0.1-2.6-0.5-1.8-2.8c4.7-12.3,9.6-24.5,14-36.8
				c2.4-6.6,3.9-13.6,5.8-20.3c1.5-5.3,3.1-10.5,4.6-15.9c1.3-4.9,2.4-9.9,3.6-14.8c1.5-6.3,3.2-12.6,4.7-18.9
				c2.2-9.1,4.7-18.1,6.7-27.2c3-13.9,5.8-27.9,8.6-41.9c3.1-15.5,6.1-31.1,9.1-46.6c0.4-2.1,1.4-2.9,3.6-3.4
				c5.9-1.3,11.7-3,17.5-4.8c5.8-1.8,11.5-3.7,17.2-5.9c6.1-2.3,12-4.9,18-7.4c2.8-1.2,3.1-1.2,3.7,1.5c2.9,13.1,5.7,26.1,8.6,39.2
				c3.1,13.8,6.1,27.5,9.2,41.3c2,8.6,4.4,17.2,6.5,25.8c2.3,9.2,4.5,18.4,6.8,27.5c3,11.8,6,23.5,9.1,35.2
				c2.3,8.8,4.5,17.5,6.8,26.3c3,11.2,6.1,22.3,9.1,33.6c1.2,4.6,2.2,9.4,3.1,14.1c0.6,2.9,0.3,3.1-2.8,3.1c-6.1,0-12.2,0-18.3,0
				C300.6,692.6,300.6,692.5,300.6,692.4z M237.6,584.7c0,0,0.1,0,0.1,0c-0.3,3.9-0.5,7.9-0.9,11.8c-0.1,0.9-0.5,2-1,2.7
				c-0.9,1.2-2.4,3.1-3.1,2.9c-1.7-0.5-3.4-1.8-4.6-3.2c-0.7-0.8-0.9-2.4-0.8-3.6c0.2-1.9,0.8-3.8,1.2-5.7c0.5-2.5,1.2-4.9,1.6-7.4
				c0.2-1.6-1.1-2.8-2.6-2.7c-0.7,0-1.8,1.3-2,2.1c-0.9,3.8-1.6,7.7-2.4,11.6c-1.4,6.8-2.8,13.5-4.2,20.3c-0.9,4.2-1.9,8.3-2.7,12.4
				c-0.5,2.7-0.2,2.9,2.6,2.6c1.5-0.2,3-0.5,4.6-0.8c7.4-1.4,14.9-2.8,22.3-4.3c2.2-0.4,2.5-1.4,2-3.7c-0.5-2.1-1-4.1-1.4-6.2
				c-2.3-10-4.5-20.1-6.8-30.1c-0.2-0.8-0.5-1.6-0.8-2.5c-0.3,0.9-0.7,1.7-0.9,2.6C237.5,583.8,237.6,584.2,237.6,584.7z"/>
		</g>
		<g>
			<path d="M233.9,325.3c-0.2-9.9-0.5-19.8-0.7-29.7c-0.2-16.1-0.2-32.3-0.3-48.4c-0.3-27.9-0.8-55.8-1.1-83.7
				c-0.3-26.1-0.4-52.2-0.7-78.2c-0.3-23.1-0.7-46.2-1-69.3c0-2.7-0.2-5.4-0.3-8c-0.1-3.5,0-3.6,3.4-3.7c7.5-0.1,15-0.2,22.5-0.2
				c12.3,0,24.7,0.5,37-0.2c18.1-1,36.2-0.6,54.3-0.8c7-0.1,6.1-1,6.2,6.4c0.1,13.2,0.4,26.3,0.7,39.5c0.1,4,0.1,7.9,0.1,11.9
				c0,1.3,0.2,2.8-1.5,3.1c-2.2,0.5-2.1,1.9-1.7,3.6c0.4,1.8,0.8,3.6,1.3,5.4c1.4,4.9,0.4,9.2-3.1,12.9c-2.1,2.3-3,2.6-5,1.5
				c-2.3-1.3-3.4-3.8-2.6-6.1c0.3-0.8,0.9-1.4,1.2-2.2c1.1-2.8-0.3-5.6-2.9-6c-1.7-0.3-2.8,0.5-2.8,2.3c0,1.4,0.4,2.9,0.3,4.2
				c-0.3,2.3-1,4.6-1.5,6.9c-0.4,1.5-1.1,3-1.1,4.4c-0.2,6.6,0.1,13.2-0.3,19.8c-0.2,3.1-1.1,6.3-2.3,9.2c-1.3,3.2-5.5,4.1-9,2.4
				c-1.6-0.8-3.2-1.9-4.5-3.2c-2.4-2.3-2.6-5.2-1.8-8.2c1.7-6.1,3.5-12.2,5.2-18.3c0.1-0.5,0.4-1.2,0.2-1.6
				c-0.3-0.7-0.9-1.2-1.4-1.8c-0.5,0.5-1.2,0.9-1.4,1.4c-0.7,1.7-1.1,3.5-1.8,5.1c-0.8,1.9-2.7,2.1-4.4,1.7c-1.8-0.4-2.5-2-2.4-3.6
				c0.1-2.1,0.6-4.2,1-6.2c0.2-1,0.8-1.9,0.9-2.8c0.1-0.6-0.4-1.5-0.8-1.7c-0.4-0.2-1.5,0.1-1.7,0.6c-0.8,1.5-1.4,3.1-1.9,4.7
				c-2,5.5-1.8,11.4-2.6,17.1c-0.5,3.4-2,6.2-3.7,8.9c-1.1,1.8-2.7,3.4-5.3,2.8c-1.9-0.4-3.6-2.5-3.9-5c-0.7-4.7,1.2-8.9,2.5-13.2
				c1.4-4.4,1.9-8.8,1.1-13.3c-0.3-1.8-1.1-1.6-2.3-0.9c-1.2,0.7-2.6,1.7-3.9,1.6c-3.1-0.2-3.3,1.3-3.3,3.8
				c0.4,25.2,0.7,50.4,0.9,75.6c0,2.8-0.2,5.7-0.1,8.5c0.1,2.4,0.5,2.8,2.9,1.9c7.3-2.6,14.6-5.2,21.8-8c5.9-2.3,11.8-4.8,17.6-7.2
				c4.3-1.8,8.6-3.6,12.8-5.4c3.5-1.5,3.9-1.3,3.9,2.4c0.1,7.1,0.1,14.1,0.1,21.2c0,9.8-0.1,19.5,0.2,29.3c0.1,3.1-0.9,4.8-3.6,5.9
				c-2.1,0.9-4,2.1-6,3.1c-4.1,2.1-6,7.6-4,11.8c1.3,2.7,2.5,5.4,2,8.5c-0.6,3.9-2.9,5.8-6.7,5.4c-3-0.3-4.9-2.9-4.7-6.4
				c0-0.8,0.3-1.7,0.3-2.5c0-0.7-0.3-1.4-0.5-2.2c-0.7,0.5-1.6,0.8-1.9,1.4c-0.8,1.8-1.5,3.7-1.8,5.6c-1,6.5-3.3,12.7-2.6,19.6
				c0.5,5.4,1.2,11-0.4,16.5c-0.7,2.3-1.4,4.6-2.4,6.8c-1.5,3.3-4.7,4.1-7.7,2.1c-2-1.4-3.1-3.3-3.5-5.9c-1.5-8.6,2.2-16.3,4.1-24.3
				c1-4.4,1.6-8.9,2.3-13.3c0.1-0.8-0.7-1.7-1.1-2.5c-0.6,0.7-1.5,1.3-1.6,2c-0.4,1.9-0.5,3.9-0.7,5.9c-0.3,2.2-0.4,4.5-0.9,6.7
				c-0.5,2.1-2.7,3.8-4.2,3.4c-2-0.6-3.7-1.6-3.6-4.1c0-3.8,0.1-7.6,0.1-11.3c0-2.8-0.2-2.9-2.9-1.8c-6.5,2.5-6.5,2.5-6.5,9.7
				c0.2,24.1,0.3,48.2,0.5,72.3c0,3,0,6,0.1,8.9c0.1,2.2,0.6,2.5,2.5,1.4c5.2-2.9,10.4-5.7,15.5-8.6c3.6-2.1,7.2-4.4,10.8-6.6
				c2.9-1.8,5.7-3.7,8.5-5.5c9.3-5.8,18.6-11.6,28-17.4c1.8-1.1,2.4-0.8,2.5,1.5c0.1,6.2,0.1,12.5,0.1,18.7
				c0.1,9.9,0.1,19.8,0.2,29.8c0,2.2-0.5,3.9-1.9,5.8c-2.2,3-3.6,6.7-5,10.2c-0.4,0.9-0.1,2.3,0.2,3.3c1.1,4.1,0.6,8.2-0.2,12.2
				c-0.6,2.8-2.9,4.8-4.8,4.6c-3.1-0.3-6.2-3-6.5-5.7c-0.1-0.7,0-1.4-0.1-2.1c-0.2-0.9-0.5-1.8-0.7-2.7c-0.8,0.8-2.2,1.5-2.4,2.5
				c-0.8,3-1.2,6.1-1.8,9.1c-0.2,1.1-0.4,2.2-1,3.2c-1,1.9-2.2,3.8-4.8,3.3c-2.5-0.5-4.5-1.8-5.2-4.4c-0.1-0.4-0.1-0.9-0.2-1.3
				c-0.3-0.9-0.6-1.7-0.9-2.5c-0.7,0.8-1.9,1.6-1.9,2.5c-0.1,1.8,0.2,3.7,0.7,5.4c1.7,5.3,2.1,10.8,1.8,16.3
				c-0.2,3.8,0,7.6-0.5,11.4c-0.4,3.2-2.2,5.7-5.5,7c-3.8,1.5-5.6,1.3-7.1-2.6c-1.4-3.6-2.5-7.6-2.6-11.4c-0.2-4.6,0.7-9.2,1.3-13.8
				c0.4-2.7-0.1-5.5-1.4-5.8c-1.2-0.3-2.5,2.2-3.2,5c-0.7,2.6-1.6,5.1-2.7,7.5c-0.8,1.7-2.2,2-3.9,1.2c-3.2-1.5-4.9-5.8-3.5-9.1
				c0.6-1.3,1.3-2.5,1.8-3.8c0.2-0.4,0-1,0-1.6c-0.6,0-1.4-0.1-1.9,0.2c-3.8,2.2-7.4,4.7-11.2,6.7c-8.1,4.3-16.3,8.5-24.5,12.5
				c-6.5,3.1-13.2,5.8-19.8,8.5c-3.1,1.2-3.3,1-3.3-2.4c0-28.9,0-57.8,0-86.7C234,325.3,233.9,325.3,233.9,325.3z"/>
			<path d="M199.1,85.6c0,15.2-0.1,30.3,0,45.4c0.1,11.9,0.4,23.8,0.5,35.7c0.2,15.8,0.2,31.6,0.4,47.5c0.1,8.2,0.4,16.4,0.5,24.6
				c0.2,11.9,0.3,23.7,0.4,35.6c0.3,18.7,0.6,37.4,0.8,56.1c0.1,8.7,0.1,17.5-0.3,26.2c-0.4,8.4-2.3,16.5-4.6,24.5
				c-0.7,2.6-1.4,5.3-1.3,7.9c0.3,8.9-1.4,17.2-5.8,24.8c-2.2,3.8-4.6,7.4-6.9,11.1c-2.2,3.5-3,7.3-2.6,11.4
				c0.3,3.4,0.4,6.8,0.9,10.1c0.7,5.2-0.8,9.8-3.2,14.3c-1.1,2-2.3,3.9-3.4,5.9c-2.1,3.8-6.4,5.5-10.5,4c-8.2-2.9-10.6-9-7.4-17.2
				c1.1-2.9,2.3-5.8,3-8.8c0.8-3.9-0.7-5-4.5-3.3c-1.8,0.8-3.4,2.1-4.9,3.3c-3,2.4-4,2.6-7.3,0.9c-4.2-2.3-6.7-1.7-9.6,2.2
				c-1.6,2.2-3,4.5-4.9,6.4c-4.2,4.2-8.5,3-10.8-2.5c-1.2-2.9-1.5-5.7-0.9-8.7c0.3-1.5,0.4-3.1,0.2-4.6c-0.1-0.7-1-1.7-1.7-2
				c-0.7-0.2-2,0.1-2.6,0.6c-1.1,1-1.9,2.4-3,3.6c-1.9,2-4.4,2-6.2-0.1c-1-1.2-1.7-2.6-2.5-4c-1-1.8-1.8-3.4-4.2-4.3
				c-1.5-0.6-2.5-3.2-3.2-5.1c-0.5-1.4-0.3-3.1-0.4-4.6c-0.1-1.3,0.2-2.7-0.3-3.8c-3-6.7-1.6-13.9-2-20.8
				c-0.8-12.9-0.8-25.8-1.1-38.7c0-0.3,0-0.6,0-0.8c0.2-0.9,0.4-1.9,0.5-2.8c1,0.4,2.2,0.5,3,1.2c5.8,4.8,11.8,9.3,19,11.7
				c7.2,2.5,14.5,4,21.7-0.3c2.6-1.6,4.8-3.5,6.1-6.3c2.5-5.5,4.7-11.1,4.5-17.4c-0.3-8.6,0-17.2,0-25.9
				c-0.1-15.4-0.3-30.8-0.5-46.2c-0.2-13.7-0.6-27.5-0.8-41.2c-0.3-20.1-0.5-40.2-0.8-60.4c-0.3-23.4-0.7-46.8-1-70.1
				c-0.3-24.2-0.5-48.5-0.7-72.7c-0.1-7.1-0.1-14.2-0.4-21.2c-0.1-2,0.3-2.8,2.5-2.8c8.5,0.2,17,0.3,25.5,0.3c7.3,0,14.7-0.2,22-0.2
				c6.8-0.1,7,0,7.1,6.5c0.3,12.3,0.4,24.6,0.5,36.9c0.1,12.7,0,25.5,0,38.2C198.5,85.6,198.8,85.6,199.1,85.6z"/>
			<path d="M498.8,26.2c0,5.5,0,11.1,0,16.6c0,1.5,0,3.1-2.4,2.1c-0.3-0.1-1.8,1-1.8,1.6c0.1,3.5-1.9,6.1-3.7,8.9
				c-2.6,4-2.3,8.7-2.7,13.2c-0.2,2.2,0,4.5,0.2,6.8c0.5,4.6-0.9,8.6-3,12.6c-1.8,3.3-4.6,3.3-7.7,2.8c-3.1-0.5-4.3-1.6-5.1-4.8
				c-0.8-3-0.4-5.7,0.8-8.6c2-4.8,3.5-9.8,4.7-14.9c0.6-2.4,0.1-5.1-0.2-7.6c-0.1-1-0.7-2.1-1.4-3c-1.4-1.7-3-1.4-3.8,0.8
				c-0.3,0.8-0.5,1.7-0.5,2.5c0,2.8-0.4,5.8,0.3,8.5c0.8,2.9-0.4,5-1.6,7.2c-0.6,1-2.2,2-3.3,2c-1.1-0.1-2.2-1.4-3.3-2.2
				c-0.2-0.1-0.2-0.5-0.3-0.8c-0.3-1.2-0.2-3.2-1.8-2.7c-1.9,0.7-1,2.6-0.2,4c1.2,2.3,2.1,4.5,1.1,7.3c-1.1,2.9-2.9,4.5-5.9,4.4
				c-4.4-0.1-8.6-3.5-9.5-7.8c-0.7-3.5-0.6-7,1.3-10.3c1.3-2.2,2.4-4.5,3.6-6.7c0.2-0.5,0.5-1.4,0.3-1.5c-0.5-0.4-1.2-0.5-1.9-0.5
				c-0.5,0-1.1,0.2-1.6,0.4c-4.7,1.5-8.4,0.3-11-3.9c-1.2-1.9-1.9-1.5-3.2-0.4c-5.7,5.2-8.8,11.8-8.9,19.5c-0.1,6.9,1.8,13.2,7.6,18
				c8.2,6.8,17.1,12.4,26.3,17.6c6,3.4,11.5,7.7,17.4,11.2c7.3,4.4,13.9,9.7,19.9,15.7c7.3,7.4,11.6,16.3,12.8,26.6
				c2,16.5,0.9,32.6-4.5,48.5c-3.3,9.5-7.4,18.6-12.5,27.3c-8.5,14.5-18.9,27.5-30.9,39.1c-11.9,11.5-25,21.4-39.6,29.4
				c-8.6,4.7-17.1,9.2-26.3,12.4c-6.1,2.1-12.4,3.6-18.6,5.4c-1.8,0.5-2.6,0.1-2.6-1.9c0.1-5.8,0.1-11.6,0.1-17.4
				c0-4.5-0.2-9-0.2-13.6c-0.1-7.8-0.1-15.6-0.1-23.4c0-3.5,0.1-3.4,3.5-3.7c10.1-0.7,20.1-2.1,29.8-5.2c10.5-3.3,19.9-9,28.2-16.1
				c8.4-7.1,14.9-16,17.6-27c1.9-8,2-16.1-2.3-23.5c-1.6-2.7-4.1-5-6.4-7.3c-1.5-1.4-2.9-0.9-3.3,1.2c-0.3,1.4-0.2,2.8-0.2,4.2
				c-0.1,2.4-0.9,4.4-2.7,6c-1.8,1.6-3.9,1.8-5.9,0.6c-2.2-1.3-2.6-2.6-1.8-5.4c0.5-2,1.2-4.1,1.4-6.2c0.1-1.2-0.3-3.5-0.8-3.6
				c-2.1-0.5-2.5,1.7-2.6,3c-0.4,3.5-0.8,7.1-0.4,10.5c0.8,6.5-0.2,12.7-1.3,19c-0.7,4.4-4.5,7.2-8.7,7.3c-3.7,0.1-9.2-4.6-9.3-8.5
				c-0.3-5.8,0.4-11.4,3.2-16.8c2.3-4.4,3.6-9.5,4.8-14.4c0.5-2.3,0.4-5.2-2.4-6.7c-1.4-0.8-2-0.6-2.2,1.1
				c-0.5,3.6-0.8,7.3-1.6,10.8c-0.5,2.1-1.6,4.2-2.7,6.1c-1.1,1.8-2.9,1.5-4.6,0.7c-2.8-1.4-4.4-3.8-4.4-6.8
				c0.1-3.9,0.6-7.8,1.3-11.7c0.6-3.5,1.8-6.8,2.5-10.2c0.7-3.6-0.6-6.5-3.6-8.9c-8.3-6.6-16-13.9-21.1-23.4
				c-4.3-7.9-6.7-16.3-7.4-25.1c-0.7-7.9-1-15.8-0.9-23.7c0.2-9.6,1.9-19.1,4.4-28.4c2-7.7,5.5-14.8,9.7-21.5
				c10.3-16.4,24.6-27.3,44-31c8.5-1.6,17.1-2.1,25.7-1.5c8.3,0.6,16.6,1.1,24.8,2.2c6,0.8,11.9,2.4,17.7,3.8
				c0.7,0.2,1.4,1.7,1.4,2.6c0.1,4.7,0.1,9.3,0.1,14C498.8,24,498.8,25.1,498.8,26.2C498.8,26.2,498.8,26.2,498.8,26.2z"/>
			<path d="M612.2,36.7c-0.4,1.2-0.8,2.3-1.2,3.5c-1.3,3.6-5.5,5.4-8.9,3.7c-2.8-1.3-3.7-3.2-2.9-6.2c0.8-2.7,1.5-5.4,2.3-8.1
				c0.5-1.6-0.4-2.2-1.8-2c-6.4,1.1-12.8,2.1-18.2,6.2c-4.7,3.5-6.8,11.4-3.4,16.2c2.3,3.3,5.1,6.4,8.2,8.9c8.5,6.8,17.4,13,26,19.7
				c3.6,2.8,6.7,6,10.1,9.1c6.2,5.7,11.8,12,17.2,18.5c10.7,12.9,18.2,27.4,20.6,43.9c1.8,12.7,2,25.6-1.6,38.2
				c-1.8,6.4-4.8,12.3-9,17.5c-2.6,3.2-5.3,6.3-5.7,10.7c-0.2,1.9-0.3,4,0.3,5.8c2.5,7.4,0.4,13.7-4.4,19.3c-1.5,1.8-4,2.7-5.8,4.2
				c-1.3,1.1-2.5,2.6-3.5,4.1c-3.6,5.6-5.2,12.1-7.3,18.4c-0.5,1.5-0.8,3.5-2.6,3.3c-2.2-0.2-2.5-2.3-2.6-4.3
				c-0.3-4.7-0.6-9.3,1.2-13.8c0.5-1.2,0.3-2.7,0.5-4.9c-2.3,2.6-4,4.6-5.7,6.6c-1.4,1.7-3.3,2.2-5.4,1.7c-1.1-0.3-2.7-1-3-1.8
				c-0.4-1.3,0-3,0.5-4.3c0.3-0.8,1.3-1.5,2.1-2c3.4-2.4,4.2-5.9,4.5-9.7c0.2-3-1.3-4.2-4.2-3c-1.8,0.7-3.4,1.9-4.9,3
				c-1.8,1.4-3.4,2.9-5.1,4.4c-2.1,1.9-4.5,0.6-6.7,0.9c-2,0.2-2.6,3.6-5.3,3.7c-2,0-3.3-0.4-3.8-2.5c-0.5-2.3-2.1-2.7-4.2-2.6
				c-6.2,0.2-9.7,5.1-8.3,11.3c0.7,3.1,1.6,6.2-0.4,9.4c-2,3.2-4.7,4.1-7.9,3.8c-6.2-0.5-9.2-5.8-6.9-11.5c1.4-3.5,2.7-7.1,4-10.7
				c0.2-0.7-0.1-1.6-0.1-2.4c-0.8,0.1-1.7-0.1-2.3,0.2c-1.4,0.7-2.6,1.7-3.9,2.6c-3.2,2.3-5.1,2.2-7.9-0.5c-0.9-0.9-2.1-1.8-2.4-2.9
				c-1.1-3.2-3.3-3.7-6.3-3.6c-2.8,0.1-5.7,0.1-8.5-0.3c-3-0.4-3.2-0.9-3.2-3.9c0.1-12,0.2-24,0.3-36.1c0-3.8-0.2-7.6-0.3-11.5
				c-0.1-3.7,0.7-4.4,4.2-3.8c12.8,2.4,25.7,4,38.7,3.4c9.8-0.4,19.4-2.2,27.7-7.7c6-4,9.7-9.8,10-17.3c0.3-7.3-1.1-14-5.3-20
				c-0.8-1.2-1.4-3.1-3.5-2.2c-1.9,0.8-1.9,2.5-1.9,4.3c0.1,3,0.1,5.9-0.2,8.9c-0.4,4.7-4.1,7.1-7.6,6.9c-3.6-0.2-6.5-3.6-6-7.9
				c0.5-4.3,1.6-8.6,2.5-12.8c0.2-0.8,0.8-1.6,0.8-2.4c0.1-0.9-0.3-1.8-0.4-2.7c-0.7,0.4-1.5,0.7-2.1,1.2c-0.7,0.5-1.1,1.3-1.7,1.8
				c-2.8,2.6-7.3,1.3-8.4-2.4c-0.7-2.4-0.2-4.6,0.5-7c0.8-2.8,1.2-5.9,0.9-8.7c-0.3-2.4-1.7-4.5-4-6.1c-7-4.7-14.2-9.3-20.7-14.7
				c-5.9-4.8-12.3-9.1-17.1-15.2c-4.9-6.2-8.5-12.9-9.8-20.8c-1.2-7.7-1-15.2,0.9-22.7c1.7-6.8,4.9-13,9.9-17.9
				c8.1-8,17.7-13.3,28.8-16.1c14.9-3.7,30-5,45.4-4.5c5.4,0.2,10.7,0.2,16.1,0.8c8.1,0.9,16.2,2.3,24.3,3.4
				c2.4,0.3,3.4,1.4,3.4,3.9c-0.1,8.4,0,16.7-0.1,25.1c0,3.7-0.5,3.9-3.9,2.7c-4.2-1.6-8.5-3.1-12.7-4.6c-2.7-1-3.9-0.8-5,1.8
				c-1.5,3.4-2.6,7-1.7,10.7c1.2,5.4,0.3,10.7-0.4,16c-0.6,4.1-4.1,7-7.8,6.7c-4.6-0.3-8.3-3.5-8.4-7.8c-0.1-2.5,0.3-5,0.9-7.5
				c0.9-4,2.2-7.9,3.1-11.9c0.2-0.9-0.1-2-0.2-2.9C612.8,36.7,612.5,36.7,612.2,36.7z"/>
		</g>
	</g>
	<g>
		<g>
			<path class="st0" d="M603.8,344.9c-0.9,4.9-2.5,9.7-1.2,14.7c1.8,7.1-4.6,14.3-10.4,15.8c-1.3,0.3-3.5-0.5-4.6-1.6
				c-3.5-3.3-5.9-7.2-4-12.4c1-2.6,1.9-5.2,2.8-7.9c0.1-0.3,0.1-0.7,0.1-1.1c-0.5,0.1-1,0.1-1.4,0.3c-1.2,0.8-2.2,2-3.4,2.5
				c-1.4,0.5-3.6,1.2-4.3,0.5c-1.2-1.1-2-3.2-1.9-4.8c0.2-3.5,1.1-7,1.7-10.4c0.1-0.7,0.4-1.4,0.5-2.1c0.2-2.3-0.4-2.8-2.6-2.3
				c-3,0.7-6,1.7-9.1,2.2c-2.3,0.4-3.1,1.8-3.1,3.8c-0.1,7.8-0.1,15.5-0.1,23.3c0,10.7,0.1,21.5,0.1,32.2c0,10.1-0.1,20.1-0.1,30.2
				c0,0.8,0,1.7,0.1,2.5c0.2,1.8,1,2.2,2.9,1.7c12.2-2.9,24.7-4.4,37.1-5.8c2.5-0.3,5.1,0.3,7.6,0.3c2.7-0.1,5.4-0.5,8-0.6
				c1.9-0.1,3.2,0.3,3.2,2.8c-0.1,5.2,0,10.4,0,15.7c-0.1,15.7-0.2,31.5-0.3,47.2c0,1.1,0,2.3,0,3.4c0,1.5-0.7,1.9-2.1,2
				c-1.6,0.1-4.1,0.1-4.5,1c-1.1,2.3-2.6,4.7-1.8,7.6c0.9,3.3,1.3,6.6,1.8,10c1,6.6-2.3,11.4-6.8,15.6c-1.4,1.3-3.1,1-3.7-1
				c-0.9-2.8-1.3-5.7-1.8-8.6c-0.2-1.2,0.2-2.6,0-3.8c-0.1-0.7-0.7-1.4-1.1-2.1c-0.7,0.4-1.5,0.7-1.9,1.3c-2.1,3.1-2.4,6.8-3.2,10.4
				c-0.8,3.6-1.6,7.2-2.5,10.8c-1.4,5.3-5.2,9-9.3,12.2c-2.1,1.6-5.9,0.2-6.9-2.7c-0.7-2.3-1.2-4.7-1.1-7.1
				c0.2-3.7,0.6-7.4,1.6-10.9c0.7-2.8,2.2-5.4,3.5-8.1c1.6-3.2,4.3-5.9,4.8-10c-3.2,0.8-6.1,1.3-8.9,2.4c-1,0.4-1.5,1.9-2.2,2.9
				c-0.9,1.3-1,3.8-3.1,3.5c-2.6-0.3-2.5-2.8-2.7-4.7c-0.4-3.9-0.6-7.9-1-11.8c-0.1-1.4,0-2.9-2.1-2.9c-2.8,0-3.7,0.6-3.7,3.2
				c0,10.1,0,20.1,0,30.2c-0.1,22.8-0.2,45.6-0.3,68.4c0,3.1,0.2,6.2,0.2,9.3c0,1.4,0.5,2,2.1,1.9c5-0.4,10.1-0.5,15.1-0.9
				c8.1-0.6,16.2-1.4,24.3-1.9c2.9-0.2,5.9,0.1,8.9,0.2c4.5,0.1,9.1,0.1,13.6,0.2c3.6,0,3.6,0,3.6,3.4c0,14.2-0.1,28.4-0.2,42.5
				c0,10.6,0,21.3,0,31.9c0,4.4-0.1,4.6-4.4,4.6c-16.2-0.2-32.3-0.5-48.5-0.7c-6.9-0.1-13.8,0.4-20.7,0.4c-9.5,0-19-0.3-28.5-0.4
				c-5.7-0.1-11.3-0.1-17-0.2c-3.8-0.1-3.9-0.2-3.9-3.8c0.1-24.9,0.2-49.9,0.2-74.8c0-27.7,0-55.3,0.1-83c0-32.8,0.1-65.5,0.2-98.3
				c0-17.3,0.1-34.6,0.2-51.9c0.1-11,0.3-22.1,0.3-33.1c0-9.3-0.2-18.7-0.3-28c0-4.7,0.1-9.3,0-14c-0.1-2.4,0.9-3.9,3.1-4.9
				c4.8-2.1,9.6-4.2,14.2-6.7c8.8-4.7,18.1-7.9,27.5-10.9c9.9-3.2,19.9-6.1,30.1-8.3c9.1-1.9,18.4-2.9,27.6-3.7
				c6-0.5,12.2,0,18.3,0.1c2.3,0,1.9,1.7,1.9,3c0,6.7-0.1,13.3-0.1,20c-0.1,10.2-0.1,20.4-0.2,30.6c0,0.9-0.1,1.7,0,2.6
				c0.2,2.1-0.9,2.7-2.8,2.6c-1.8-0.1-3.7-0.1-5.5-0.1c-3.7,0-6.2,2.9-5.7,6.6c0.2,1.4,0.5,2.8,0.8,4.2c1.2,4.6-0.8,7.9-3.9,11
				c-1.6,1.6-3.3,1.4-5.1,0.6c-1.9-0.8-3.1-2-2.9-4.2c0.1-1.3,0.3-2.6,0.4-3.9C604.6,345,604.2,344.9,603.8,344.9z"/>
			<path class="st0" d="M462.2,413c0,4.3,0.1,8.3,0,12.4c-0.2,3.2-0.6,6.5-1.1,9.7c-0.2,1.3-1,2.7-1.7,3.9c-3.1,5-7.2,5.1-10.7,0.2
				c-2-2.8-2.4-5.8-1.6-9.3c1.4-6.1,2.4-12.2,3.4-18.3c0.3-1.5,1-3.6-1.2-4.4c-1.7-0.6-4.4,0.8-5,3c-0.7,2.6-1,5.3-1.1,7.9
				c-0.1,3.3-1.2,6.1-3.3,8.5c-2,2.3-3.5,2-4.5-0.8c-0.7-2-1-4.1-1.6-6.1c-0.2-0.7-0.7-1.3-1-1.9c-0.3,0.7-0.8,1.5-0.8,2.2
				c0.1,2.9-0.9,5.2-3.4,6.9c-2.8,1.9-4.2,1.4-4.5-2c-0.2-2.3,0.2-4.6,0.4-7.2c-2.8,2.6-3.7,5.7-3.8,9.3c-0.2,4.4,0,8.8-2,12.9
				c-1.1,2.2-2.4,4.2-5.2,4.2c-2.7-0.1-5.7-3.1-5.9-6.2c-0.1-2.5,0.3-5.1,0.4-7.6c0-0.4-0.4-0.9-0.6-1.3c-0.3,0.2-0.8,0.4-1,0.7
				c-1.1,2.1-2,4.4-3.2,6.4c-4.3,7-7.3,14.7-9.6,22.5c-4,13.8-6.7,27.9-8.2,42.3c-1.3,12.4-1.2,24.8-1.2,37.2c0,5.3-0.5,10.7-0.2,16
				c0.3,7.4-0.1,14.9,1.4,22.3c0.7,3.7,1.1,7.5,1.4,11.3c0.8,7.2,2.8,14.1,5.1,21c3.4,10.1,8.3,19.2,17.9,24.7
				c6.9,3.9,14.3,4.8,22.1,3.5c2.3-0.4,3.3-2,3.3-4.3c0-8.6-0.1-17.2-0.1-25.9c0-6.2,0.1-12.4,0.1-18.6c0-11.5,0-22.9-0.1-34.4
				c0-0.4-0.2-0.7-0.4-1.2c-3.5,3.4-4.1,7.6-4.4,12.1c-0.4,6-1.1,12.1-1.9,18.1c-0.5,3.6-3.1,6-5.7,8.2c-0.7,0.6-2.7,0.2-3.9-0.2
				c-1.8-0.6-2.7-2.1-2.3-4c0.9-4.4,1.8-8.8,2.8-13.2c0.1-0.7,0.5-1.3,0.8-2.1c-0.5-0.1-0.9-0.3-1.3-0.2c-2,0.5-4,2.6-5.9-0.5
				c-2.6-4.1-2.7-5.9-0.4-9.1c1.4-1.9,2.4-4.1,3.6-6.2c0.2-0.3,0.2-0.9,0-1.1c-0.2-0.2-0.8-0.3-1.1-0.2c-1.5,0.5-2.9,1-4.4,1.6
				c-2.3,0.9-2.6,0.8-2.7-1.7c-0.1-3.8,0-7.7,0-11.5c0-11.3,0.1-22.7,0-34c0-2.6,0.7-4.1,3.1-5.3c7.5-3.7,14.8-7.6,22.2-11.4
				c12.5-6.3,24.9-12.7,37.4-18.8c4.3-2.1,8.8-3.8,13.2-5.6c1.4-0.6,1.7,0.4,1.7,1.5c0,4.8,0,9.6,0,14.5c0,8.6-0.1,17.3-0.1,25.9
				c-0.1,12.3-0.3,24.6-0.3,36.9c0,11,0.3,22,0.3,33c0,6.6-0.3,13.3-0.4,19.9c0,5.5,0.2,11,0.2,16.5c0,7.1-0.1,14.1-0.1,21.2
				c0,6.2,0.1,12.4,0.2,18.7c0,6.5,0,13,0.1,19.5c0,2.1-0.5,3.8-2.6,4.9c-4.6,2.4-9.1,5.1-13.9,7.2c-8.7,3.8-17.5,7.2-27.1,8.1
				c-11.1,1-22.1,0.5-33-2.6c-8-2.3-16.1-4.3-23.6-8.1c-8.2-4.2-16-8.8-22.8-15.2c-13.5-12.7-22.4-28-27.8-45.7
				c-3.3-10.9-5.3-22-6.3-33.3c-1-10.7-0.8-21.5-0.9-32.2c-0.1-12.2,1.5-24.2,2.9-36.3c1.6-14.1,4.5-27.9,8.4-41.5
				c3-10.6,6.6-21,11.1-31.1c6.4-14.4,13.4-28.3,21.9-41.5c3.3-5.1,6.9-10,10.6-14.8c4.9-6.4,10-12.6,15.1-18.8
				c1.3-1.5,2.8-2.8,4.3-4.1c7.1-6.2,14.2-12.5,21.5-18.5c7.2-5.9,15.2-10.7,23.5-15.1c6.5-3.5,13.5-5.6,20.5-7.6
				c1.3-0.4,2.7-0.6,4.1-0.7c3.8-0.4,3.8-0.3,3.8,3.4c-0.1,10,0,20.1-0.1,30.1c-0.1,11-0.2,22-0.4,33c0,2.2-0.8,4.4-1.2,6.7
				c-0.4,2.6-0.8,5.3-1.3,7.9c-0.2,1.1-0.4,2.2-0.9,3.2c-2.2,4.5-4.3,4.8-8,1.4C463.1,413.4,462.7,413.3,462.2,413z M459.5,403.7
				c0.1,0,0.2,0.1,0.4,0.1c0,0.1,0,0.3,0,0.4c0.4,1.2,0.9,2.4,1.3,3.6c0.3-1,0.5-2,0.9-3c0.3-0.9,0.8-1.8,1.1-2.8
				c0.3-1.1,0.6-2.2,0.6-3.3c0-0.5-0.5-1.1-0.8-1.7c-0.6,0.4-1.4,0.6-1.6,1.1C460.6,400,460.1,401.9,459.5,403.7z"/>
			<path class="st0" d="M762.5,425.2c-0.3,0-0.5,0.1-0.6,0c-1-0.6-2.1-1.3-3.1-1.9c-0.2,1.4-0.8,2.9-0.7,4.3
				c0.2,2.7,0.7,5.3,1.2,7.9c0.7,3.5-2,5.2-4.2,6.7c-2.5,1.8-6.3-1.2-6.4-5.1c-0.1-3.4,0.3-6.8,0.5-10.2c0.1-1.4,0.3-2.8,0.3-4.2
				c0-0.4-0.5-0.9-0.7-1.3c-0.4,0.3-1.1,0.5-1.2,0.9c-0.5,1.9-1.3,3.9-1.2,5.8c0.3,8.1-1.8,16-2.5,24c-0.3,3.5-4.7,7.8-8,8.4
				c-2.7,0.5-6.5-2.5-6.6-5.8c0-2.8,0.2-5.8,1.4-8.2c4-8.5,6.5-17.3,6.3-26.6c-0.1-5.4-1.3-10.9-2.1-16.3c-0.4-2.8-0.9-5.6-1.5-8.3
				c-0.2-1.1-0.6-2.2-1.3-3c-2-2.4-4.1-4.7-6.2-7c-0.4-0.5-1.1-0.7-1.7-1.1c-0.3,0.7-0.9,1.4-0.9,2.2c-0.1,5.7-0.1,11.3-0.1,17
				c-0.1,10.7-0.4,21.4-0.5,32.1c-0.1,12.6-0.1,25.2-0.2,37.8c-0.2,23.2-0.4,46.5-0.5,69.7c-0.1,11.3,0.2,22.6,0.2,33.9
				c0,11.2-0.3,22.3-0.4,33.5c-0.1,6.9,0,13.8,0,20.8c0,20-0.1,40-0.1,59.9c0,3.4-0.1,3.4-3.6,3.4c-14.6-0.1-29.2-0.3-43.7-0.5
				c-1.7,0-3.4,0.1-5.1,0c-3.7-0.2-3.8-0.3-3.8-3.9c0-8.2,0-16.5,0.1-24.7c0.1-16,0.4-32,0.5-48c0.1-27.1,0-54.2,0.1-81.2
				c0.1-22,0.3-43.9,0.4-65.9c0.1-13.7,0.1-27.5,0.2-41.2c0.1-19.4,0.3-38.8,0.4-58.3c0.1-7.5,0.1-15,0.1-22.5
				c0-1.5,0.7-3.7-1.3-3.9c-2.2-0.3-2.3,2.2-2.6,3.8c-0.5,2.6-0.8,5.3-1.2,8c-0.5,3.4-4.5,7.6-7.7,8.3c-1.5,0.4-2.1-0.6-2.5-1.7
				c-1.1-2.8-0.8-5.4,0.2-8.2c1-2.7,1.5-5.7,2-8.6c0.2-1.2,0-3-1.7-2.8c-1.1,0.2-2.7,1.4-2.9,2.4c-0.5,2.2-0.3,4.5-0.5,6.8
				c-0.3,3.8-0.1,7.7-1,11.4c-1.7,6.7-5.6,12-11.7,15.4c-2.3,1.3-3.8,0.8-4.2-1.8c-0.4-2.9-0.4-6,0.2-8.8c1.2-6.5,2.9-12.9,4.3-19.4
				c0.9-4.5-0.1-8.9-1.1-13.3c-0.3-1.5-1.5-2.3-3.4-2.7c-4.3-0.8-4.3-1-4.2-5.5c0.2-16,0.3-32,0.5-48c0-1.4,0.1-2.8,0.1-4.3
				c0-1.5,0.9-2.2,2.2-1.9c5.5,1.3,11.1,2.4,16.4,4.3c8,2.9,15.8,6.1,23.5,9.6c5,2.3,9.6,5.4,14.3,8.1c11.2,6.6,21.5,14.4,31.1,23
				c8.2,7.3,15.6,15.5,23.1,23.5c4.4,4.6,8.6,9.3,12.6,14.2c3.7,4.5,7.1,9.4,10.5,14.2c0.7,0.9,0.8,2.4,0.8,3.6
				c-0.1,9.2-0.3,18.4-0.5,27.6c-0.1,7.1-0.2,14.2-0.3,21.2C762.7,423.6,762.6,424.4,762.5,425.2z"/>
			<path class="st0" d="M72.1,644.6c0.2,13.7,0.5,27.5,0.7,41.2c0.1,5.1,0,5-5.1,5c-11.6,0-23.2,0.2-34.9,0.1c-4.6,0-9.2-0.7-13.9-1
				c-1.9-0.1-1.9-1.4-2-2.7c-0.1-3.5-0.1-7.1-0.2-10.6c-0.5-15.9-1.1-31.7-1.4-47.6c-0.3-16.1-0.5-32.3-0.5-48.4
				c-0.1-19.6,0-39.1,0-58.7c0-16.6,0.2-33.2-0.1-49.8c-0.3-18.7-1-37.4-1.6-56.1c-0.4-14.1-0.9-28.3-1.3-42.4
				c0-1.2,0.4-2.4,0.6-3.6c0.8,0.8,1.7,1.6,2.5,2.6c3.6,4.4,6.9,8.9,10.7,13.1c5.9,6.6,12,13.1,18.3,19.4c5.4,5.5,10.9,11,16.8,16.1
				c6.1,5.3,12.6,9.9,18.9,15c6.1,4.8,12.1,9.7,18.1,14.6c3.5,2.9,6.8,5.9,10.4,8.7c8.3,6.4,15.8,13.7,22.9,21.4
				c4.8,5.2,9.8,10.3,13.8,16c4.5,6.4,8.1,13.6,12,20.4c3.3,5.7,4.5,12.1,6.3,18.4c2.3,8.1,3,16.4,2.9,24.7
				c-0.1,6.1,0.2,12.2-0.3,18.2c-0.7,9.1-3.6,17.8-8.3,25.6c-4.9,8.1-11.9,14.1-20.9,17.9c-8.2,3.4-16.4,5-25.1,4.9
				c-2.8,0-5.7,0.5-8.5,0.1c-6.9-0.9-13.8-2-20.6-3.3c-2.9-0.5-5.7-1.5-8.5-2.5c-1.8-0.6-2.4-0.1-2.3,1.6c0.1,3.4,0.1,6.8,0.3,10.2
				c0.2,3.8,0.4,7.6,0.6,11.5C72.2,644.6,72.2,644.6,72.1,644.6z M99.1,521.6c-0.8,2.7-2.8,4.4-5.2,4.1c-2.2-0.3-4.3-1.9-6.4-2.9
				c-0.2,0.9-0.1,2.4-0.7,3.7c-1.2,2.7-2.3,5.6-4.2,7.7c-2.3,2.7-6.6,1.2-7-2.3c-0.5-4.5-1.1-9,0-13.5c0.8-3.4,1.7-6.9,2.2-10.3
				c0.5-2.9,0.8-5.9,0.9-8.9c0-1-0.7-2.1-1-3.1c-0.9,0.5-1.8,1-2.6,1.6c-0.4,0.3-0.7,1.2-1.1,1.2c-4,0.6-3.4,3.4-3.1,6.2
				c0.1,1,0.1,2,0.1,3c-0.1,7.2-0.2,14.4-0.2,21.6c0,6.7,0.2,13.3,0.1,20c0,9.1-0.2,18.1-0.3,27.2c0,1.4,0.3,2.5,1.7,3
				c3.3,1.2,6.5,2.8,9.9,3.8c3.8,1.1,7.7,1.9,11.7,0.9c8.7-2,13.1-8.2,15.6-16.2c2.2-7.3,1.9-14.9,1.6-22.3
				c-0.2-5.5-1.5-10.9-2.4-16.3c-0.1-0.6-0.6-1.2-0.9-1.7c-0.5,0.4-1.2,0.6-1.6,1.1c-2.2,2.5-4.2,2.5-6-0.3c-0.6-1-0.8-2.3-1-3.5
				C98.9,524.1,99.1,522.8,99.1,521.6z M87.9,518.7c0.4-1.1,0.8-1.7,0.9-2.3c0.1-1.4,0-2.7-0.1-4.1c-0.3,0-0.7,0-0.7,0.1
				c-0.3,1.4-0.7,2.9-0.9,4.4C87.1,517.2,87.5,517.7,87.9,518.7z"/>
			<path class="st0" d="M312.5,692.4c-5.5,0-11,0-16.6,0c-4.2,0-8.4,0.2-12.6,0.2c-3.7,0-3.8,0-4.7-3.4c-1.9-6.8-3.7-13.6-5.6-20.4
				c-1-3.5-2.1-7-3.2-10.5c-0.5-1.8-1.1-1.5-2.2-0.3c-3,3.2-4.9,6.1-3.2,11c1.1,3,0.5,6.7,0,10c-0.5,3.1-2.3,5.8-5.1,7.4
				c-0.7,0.4-2.1,0.5-2.5,0c-2.1-2.2-3.9-4.5-2.9-7.9c0.6-1.9,0.8-3.9,1.1-5.8c0.3-1.9-0.5-3.6-2.5-3.8c-1.7-0.2-2.2,1.3-2.6,2.8
				c-1,4.1-2,8.3-3,12.4c-1,4.1-2.1,8.2-2.1,12.5c0,3.2-2.2,5.2-4.5,6.8c-3.2,2.2-8.6-0.7-8.9-4.6c-0.3-4.5,0.8-8.7,2.5-12.8
				c2-4.8,4-9.6,6-14.5c0.4-0.9,0.7-1.9,0.7-2.8c0-0.7-0.4-1.5-0.6-2.2c-0.6,0.3-1.2,0.7-1.8,1c-1.3,0.8-2.5,1.9-3.9,2.5
				c-4,1.7-7,0.1-8-4.1c-0.1-0.5-0.1-1.1-0.1-1.7c-0.2-1.7,0.5-3.9-2.5-4c-3.6-0.1-4.3,0.2-5.3,3.4c-2.4,8.1-4.7,16.3-7.1,24.4
				c-1.2,4.1-1.3,4.1-5.6,4c-10.8,0-21.5-0.1-32.3-0.1c-4.8,0-9.6,0.1-14.4,0c-2.5-0.1-2.6-0.5-1.8-2.8c4.7-12.3,9.6-24.5,14-36.8
				c2.4-6.6,3.9-13.6,5.8-20.3c1.5-5.3,3.1-10.5,4.6-15.9c1.3-4.9,2.4-9.9,3.6-14.8c1.5-6.3,3.2-12.6,4.7-18.9
				c2.2-9.1,4.7-18.1,6.7-27.2c3-13.9,5.8-27.9,8.6-41.9c3.1-15.5,6.1-31.1,9.1-46.6c0.4-2.1,1.4-2.9,3.6-3.4
				c5.9-1.3,11.7-3,17.5-4.8c5.8-1.8,11.5-3.7,17.2-5.9c6.1-2.3,12-4.9,18-7.4c2.8-1.2,3.1-1.2,3.7,1.5c2.9,13.1,5.7,26.1,8.6,39.2
				c3.1,13.8,6.1,27.5,9.2,41.3c2,8.6,4.4,17.2,6.5,25.8c2.3,9.2,4.5,18.4,6.8,27.5c3,11.8,6,23.5,9.1,35.2
				c2.3,8.8,4.5,17.5,6.8,26.3c3,11.2,6.1,22.3,9.1,33.6c1.2,4.6,2.2,9.4,3.1,14.1c0.6,2.9,0.3,3.1-2.8,3.1c-6.1,0-12.2,0-18.3,0
				C312.5,692.6,312.5,692.5,312.5,692.4z M249.5,584.7c0,0,0.1,0,0.1,0c-0.3,3.9-0.5,7.9-0.9,11.8c-0.1,0.9-0.5,2-1,2.7
				c-0.9,1.2-2.4,3.1-3.1,2.9c-1.7-0.5-3.4-1.8-4.6-3.2c-0.7-0.8-0.9-2.4-0.8-3.6c0.2-1.9,0.8-3.8,1.2-5.7c0.5-2.5,1.2-4.9,1.6-7.4
				c0.2-1.6-1.1-2.8-2.6-2.7c-0.7,0-1.8,1.3-2,2.1c-0.9,3.8-1.6,7.7-2.4,11.6c-1.4,6.8-2.8,13.5-4.2,20.3c-0.9,4.2-1.9,8.3-2.7,12.4
				c-0.5,2.7-0.2,2.9,2.6,2.6c1.5-0.2,3-0.5,4.6-0.8c7.4-1.4,14.9-2.8,22.3-4.3c2.2-0.4,2.5-1.4,2-3.7c-0.5-2.1-1-4.1-1.4-6.2
				c-2.3-10-4.5-20.1-6.8-30.1c-0.2-0.8-0.5-1.6-0.8-2.5c-0.3,0.9-0.7,1.7-0.9,2.6C249.4,583.8,249.5,584.2,249.5,584.7z"/>
		</g>
		<g>
			<path class="st0" d="M245.7,325.3c-0.2-9.9-0.5-19.8-0.7-29.7c-0.2-16.1-0.2-32.3-0.3-48.4c-0.3-27.9-0.8-55.8-1.1-83.7
				c-0.3-26.1-0.4-52.2-0.7-78.2c-0.3-23.1-0.7-46.2-1-69.3c0-2.7-0.2-5.4-0.3-8c-0.1-3.5,0-3.6,3.4-3.7c7.5-0.1,15-0.2,22.5-0.2
				c12.3,0,24.7,0.5,37-0.2c18.1-1,36.2-0.6,54.3-0.8c7-0.1,6.1-1,6.2,6.4c0.1,13.2,0.4,26.3,0.7,39.5c0.1,4,0.1,7.9,0.1,11.9
				c0,1.3,0.2,2.8-1.5,3.1c-2.2,0.5-2.1,1.9-1.7,3.6c0.4,1.8,0.8,3.6,1.3,5.4c1.4,4.9,0.4,9.2-3.1,12.9c-2.1,2.3-3,2.6-5,1.5
				c-2.3-1.3-3.4-3.8-2.6-6.1c0.3-0.8,0.9-1.4,1.2-2.2c1.1-2.8-0.3-5.6-2.9-6c-1.7-0.3-2.8,0.5-2.8,2.3c0,1.4,0.4,2.9,0.3,4.2
				c-0.3,2.3-1,4.6-1.5,6.9c-0.4,1.5-1.1,3-1.1,4.4c-0.2,6.6,0.1,13.2-0.3,19.8c-0.2,3.1-1.1,6.3-2.3,9.2c-1.3,3.2-5.5,4.1-9,2.4
				c-1.6-0.8-3.2-1.9-4.5-3.2c-2.4-2.3-2.6-5.2-1.8-8.2c1.7-6.1,3.5-12.2,5.2-18.3c0.1-0.5,0.4-1.2,0.2-1.6
				c-0.3-0.7-0.9-1.2-1.4-1.8c-0.5,0.5-1.2,0.9-1.4,1.4c-0.7,1.7-1.1,3.5-1.8,5.1c-0.8,1.9-2.7,2.1-4.4,1.7c-1.8-0.4-2.5-2-2.4-3.6
				c0.1-2.1,0.6-4.2,1-6.2c0.2-1,0.8-1.9,0.9-2.8c0.1-0.6-0.4-1.5-0.8-1.7c-0.4-0.2-1.5,0.1-1.7,0.6c-0.8,1.5-1.4,3.1-1.9,4.7
				c-2,5.5-1.8,11.4-2.6,17.1c-0.5,3.4-2,6.2-3.7,8.9c-1.1,1.8-2.7,3.4-5.3,2.8c-1.9-0.4-3.6-2.5-3.9-5c-0.7-4.7,1.2-8.9,2.5-13.2
				c1.4-4.4,1.9-8.8,1.1-13.3c-0.3-1.8-1.1-1.6-2.3-0.9c-1.2,0.7-2.6,1.7-3.9,1.6c-3.1-0.2-3.3,1.3-3.3,3.8
				c0.4,25.2,0.7,50.4,0.9,75.6c0,2.8-0.2,5.7-0.1,8.5c0.1,2.4,0.5,2.8,2.9,1.9c7.3-2.6,14.6-5.2,21.8-8c5.9-2.3,11.8-4.8,17.6-7.2
				c4.3-1.8,8.6-3.6,12.8-5.4c3.5-1.5,3.9-1.3,3.9,2.4c0.1,7.1,0.1,14.1,0.1,21.2c0,9.8-0.1,19.5,0.2,29.3c0.1,3.1-0.9,4.8-3.6,5.9
				c-2.1,0.9-4,2.1-6,3.1c-4.1,2.1-6,7.6-4,11.8c1.3,2.7,2.5,5.4,2,8.5c-0.6,3.9-2.9,5.8-6.7,5.4c-3-0.3-4.9-2.9-4.7-6.4
				c0-0.8,0.3-1.7,0.3-2.5c0-0.7-0.3-1.4-0.5-2.2c-0.7,0.5-1.6,0.8-1.9,1.4c-0.8,1.8-1.5,3.7-1.8,5.6c-1,6.5-3.3,12.7-2.6,19.6
				c0.5,5.4,1.2,11-0.4,16.5c-0.7,2.3-1.4,4.6-2.4,6.8c-1.5,3.3-4.7,4.1-7.7,2.1c-2-1.4-3.1-3.3-3.5-5.9c-1.5-8.6,2.2-16.3,4.1-24.3
				c1-4.4,1.6-8.9,2.3-13.3c0.1-0.8-0.7-1.7-1.1-2.5c-0.6,0.7-1.5,1.3-1.6,2c-0.4,1.9-0.5,3.9-0.7,5.9c-0.3,2.2-0.4,4.5-0.9,6.7
				c-0.5,2.1-2.7,3.8-4.2,3.4c-2-0.6-3.7-1.6-3.6-4.1c0-3.8,0.1-7.6,0.1-11.3c0-2.8-0.2-2.9-2.9-1.8c-6.5,2.5-6.5,2.5-6.5,9.7
				c0.2,24.1,0.3,48.2,0.5,72.3c0,3,0,6,0.1,8.9c0.1,2.2,0.6,2.5,2.5,1.4c5.2-2.9,10.4-5.7,15.5-8.6c3.6-2.1,7.2-4.4,10.8-6.6
				c2.9-1.8,5.7-3.7,8.5-5.5c9.3-5.8,18.6-11.6,28-17.4c1.8-1.1,2.4-0.8,2.5,1.5c0.1,6.2,0.1,12.5,0.1,18.7
				c0.1,9.9,0.1,19.8,0.2,29.8c0,2.2-0.5,3.9-1.9,5.8c-2.2,3-3.6,6.7-5,10.2c-0.4,0.9-0.1,2.3,0.2,3.3c1.1,4.1,0.6,8.2-0.2,12.2
				c-0.6,2.8-2.9,4.8-4.8,4.6c-3.1-0.3-6.2-3-6.5-5.7c-0.1-0.7,0-1.4-0.1-2.1c-0.2-0.9-0.5-1.8-0.7-2.7c-0.8,0.8-2.2,1.5-2.4,2.5
				c-0.8,3-1.2,6.1-1.8,9.1c-0.2,1.1-0.4,2.2-1,3.2c-1,1.9-2.2,3.8-4.8,3.3c-2.5-0.5-4.5-1.8-5.2-4.4c-0.1-0.4-0.1-0.9-0.2-1.3
				c-0.3-0.9-0.6-1.7-0.9-2.5c-0.7,0.8-1.9,1.6-1.9,2.5c-0.1,1.8,0.2,3.7,0.7,5.4c1.7,5.3,2.1,10.8,1.8,16.3
				c-0.2,3.8,0,7.6-0.5,11.4c-0.4,3.2-2.2,5.7-5.5,7c-3.8,1.5-5.6,1.3-7.1-2.6c-1.4-3.6-2.5-7.6-2.6-11.4c-0.2-4.6,0.7-9.2,1.3-13.8
				c0.4-2.7-0.1-5.5-1.4-5.8c-1.2-0.3-2.5,2.2-3.2,5c-0.7,2.6-1.6,5.1-2.7,7.5c-0.8,1.7-2.2,2-3.9,1.2c-3.2-1.5-4.9-5.8-3.5-9.1
				c0.6-1.3,1.3-2.5,1.8-3.8c0.2-0.4,0-1,0-1.6c-0.6,0-1.4-0.1-1.9,0.2c-3.8,2.2-7.4,4.7-11.2,6.7c-8.1,4.3-16.3,8.5-24.5,12.5
				c-6.5,3.1-13.2,5.8-19.8,8.5c-3.1,1.2-3.3,1-3.3-2.4c0-28.9,0-57.8,0-86.7C245.9,325.3,245.8,325.3,245.7,325.3z"/>
			<path class="st0" d="M211,85.6c0,15.2-0.1,30.3,0,45.4c0.1,11.9,0.4,23.8,0.5,35.7c0.2,15.8,0.2,31.6,0.4,47.5
				c0.1,8.2,0.4,16.4,0.5,24.6c0.2,11.9,0.3,23.7,0.4,35.6c0.3,18.7,0.6,37.4,0.8,56.1c0.1,8.7,0.1,17.5-0.3,26.2
				c-0.4,8.4-2.3,16.5-4.6,24.5c-0.7,2.6-1.4,5.3-1.3,7.9c0.3,8.9-1.4,17.2-5.8,24.8c-2.2,3.8-4.6,7.4-6.9,11.1
				c-2.2,3.5-3,7.3-2.6,11.4c0.3,3.4,0.4,6.8,0.9,10.1c0.7,5.2-0.8,9.8-3.2,14.3c-1.1,2-2.3,3.9-3.4,5.9c-2.1,3.8-6.4,5.5-10.5,4
				c-8.2-2.9-10.6-9-7.4-17.2c1.1-2.9,2.3-5.8,3-8.8c0.8-3.9-0.7-5-4.5-3.3c-1.8,0.8-3.4,2.1-4.9,3.3c-3,2.4-4,2.6-7.3,0.9
				c-4.2-2.3-6.7-1.7-9.6,2.2c-1.6,2.2-3,4.5-4.9,6.4c-4.2,4.2-8.5,3-10.8-2.5c-1.2-2.9-1.5-5.7-0.9-8.7c0.3-1.5,0.4-3.1,0.2-4.6
				c-0.1-0.7-1-1.7-1.7-2c-0.7-0.2-2,0.1-2.6,0.6c-1.1,1-1.9,2.4-3,3.6c-1.9,2-4.4,2-6.2-0.1c-1-1.2-1.7-2.6-2.5-4
				c-1-1.8-1.8-3.4-4.2-4.3c-1.5-0.6-2.5-3.2-3.2-5.1c-0.5-1.4-0.3-3.1-0.4-4.6c-0.1-1.3,0.2-2.7-0.3-3.8c-3-6.7-1.6-13.9-2-20.8
				c-0.8-12.9-0.8-25.8-1.1-38.7c0-0.3,0-0.6,0-0.8c0.2-0.9,0.4-1.9,0.5-2.8c1,0.4,2.2,0.5,3,1.2c5.8,4.8,11.8,9.3,19,11.7
				c7.2,2.5,14.5,4,21.7-0.3c2.6-1.6,4.8-3.5,6.1-6.3c2.5-5.5,4.7-11.1,4.5-17.4c-0.3-8.6,0-17.2,0-25.9
				c-0.1-15.4-0.3-30.8-0.5-46.2c-0.2-13.7-0.6-27.5-0.8-41.2c-0.3-20.1-0.5-40.2-0.8-60.4c-0.3-23.4-0.7-46.8-1-70.1
				c-0.3-24.2-0.5-48.5-0.7-72.7c-0.1-7.1-0.1-14.2-0.4-21.2c-0.1-2,0.3-2.8,2.5-2.8c8.5,0.2,17,0.3,25.5,0.3c7.3,0,14.7-0.2,22-0.2
				c6.8-0.1,7,0,7.1,6.5c0.3,12.3,0.4,24.6,0.5,36.9c0.1,12.7,0,25.5,0,38.2C210.3,85.6,210.6,85.6,211,85.6z"/>
			<path class="st0" d="M510.7,26.2c0,5.5,0,11.1,0,16.6c0,1.5,0,3.1-2.4,2.1c-0.3-0.1-1.8,1-1.8,1.6c0.1,3.5-1.9,6.1-3.7,8.9
				c-2.6,4-2.3,8.7-2.7,13.2c-0.2,2.2,0,4.5,0.2,6.8c0.5,4.6-0.9,8.6-3,12.6c-1.8,3.3-4.6,3.3-7.7,2.8c-3.1-0.5-4.3-1.6-5.1-4.8
				c-0.8-3-0.4-5.7,0.8-8.6c2-4.8,3.5-9.8,4.7-14.9c0.6-2.4,0.1-5.1-0.2-7.6c-0.1-1-0.7-2.1-1.4-3c-1.4-1.7-3-1.4-3.8,0.8
				c-0.3,0.8-0.5,1.7-0.5,2.5c0,2.8-0.4,5.8,0.3,8.5c0.8,2.9-0.4,5-1.6,7.2c-0.6,1-2.2,2-3.3,2c-1.1-0.1-2.2-1.4-3.3-2.2
				c-0.2-0.1-0.2-0.5-0.3-0.8c-0.3-1.2-0.2-3.2-1.8-2.7c-1.9,0.7-1,2.6-0.2,4c1.2,2.3,2.1,4.5,1.1,7.3c-1.1,2.9-2.9,4.5-5.9,4.4
				c-4.4-0.1-8.6-3.5-9.5-7.8c-0.7-3.5-0.6-7,1.3-10.3c1.3-2.2,2.4-4.5,3.6-6.7c0.2-0.5,0.5-1.4,0.3-1.5c-0.5-0.4-1.2-0.5-1.9-0.5
				c-0.5,0-1.1,0.2-1.6,0.4c-4.7,1.5-8.4,0.3-11-3.9c-1.2-1.9-1.9-1.5-3.2-0.4c-5.7,5.2-8.8,11.8-8.9,19.5c-0.1,6.9,1.8,13.2,7.6,18
				c8.2,6.8,17.1,12.4,26.3,17.6c6,3.4,11.5,7.7,17.4,11.2c7.3,4.4,13.9,9.7,19.9,15.7c7.3,7.4,11.6,16.3,12.8,26.6
				c2,16.5,0.9,32.6-4.5,48.5c-3.3,9.5-7.4,18.6-12.5,27.3c-8.5,14.5-18.9,27.5-30.9,39.1c-11.9,11.5-25,21.4-39.6,29.4
				c-8.6,4.7-17.1,9.2-26.3,12.4c-6.1,2.1-12.4,3.6-18.6,5.4c-1.8,0.5-2.6,0.1-2.6-1.9c0.1-5.8,0.1-11.6,0.1-17.4
				c0-4.5-0.2-9-0.2-13.6c-0.1-7.8-0.1-15.6-0.1-23.4c0-3.5,0.1-3.4,3.5-3.7c10.1-0.7,20.1-2.1,29.8-5.2c10.5-3.3,19.9-9,28.2-16.1
				c8.4-7.1,14.9-16,17.6-27c1.9-8,2-16.1-2.3-23.5c-1.6-2.7-4.1-5-6.4-7.3c-1.5-1.4-2.9-0.9-3.3,1.2c-0.3,1.4-0.2,2.8-0.2,4.2
				c-0.1,2.4-0.9,4.4-2.7,6c-1.8,1.6-3.9,1.8-5.9,0.6c-2.2-1.3-2.6-2.6-1.8-5.4c0.5-2,1.2-4.1,1.4-6.2c0.1-1.2-0.3-3.5-0.8-3.6
				c-2.1-0.5-2.5,1.7-2.6,3c-0.4,3.5-0.8,7.1-0.4,10.5c0.8,6.5-0.2,12.7-1.3,19c-0.7,4.4-4.5,7.2-8.7,7.3c-3.7,0.1-9.2-4.6-9.3-8.5
				c-0.3-5.8,0.4-11.4,3.2-16.8c2.3-4.4,3.6-9.5,4.8-14.4c0.5-2.3,0.4-5.2-2.4-6.7c-1.4-0.8-2-0.6-2.2,1.1
				c-0.5,3.6-0.8,7.3-1.6,10.8c-0.5,2.1-1.6,4.2-2.7,6.1c-1.1,1.8-2.9,1.5-4.6,0.7c-2.8-1.4-4.4-3.8-4.4-6.8
				c0.1-3.9,0.6-7.8,1.3-11.7c0.6-3.5,1.8-6.8,2.5-10.2c0.7-3.6-0.6-6.5-3.6-8.9c-8.3-6.6-16-13.9-21.1-23.4
				c-4.3-7.9-6.7-16.3-7.4-25.1c-0.7-7.9-1-15.8-0.9-23.7c0.2-9.6,1.9-19.1,4.4-28.4c2-7.7,5.5-14.8,9.7-21.5
				c10.3-16.4,24.6-27.3,44-31c8.5-1.6,17.1-2.1,25.7-1.5c8.3,0.6,16.6,1.1,24.8,2.2c6,0.8,11.9,2.4,17.7,3.8
				c0.7,0.2,1.4,1.7,1.4,2.6c0.1,4.7,0.1,9.3,0.1,14C510.7,24,510.7,25.1,510.7,26.2C510.7,26.2,510.7,26.2,510.7,26.2z"/>
			<path class="st0" d="M624.1,36.7c-0.4,1.2-0.8,2.3-1.2,3.5c-1.3,3.6-5.5,5.4-8.9,3.7c-2.8-1.3-3.7-3.2-2.9-6.2
				c0.8-2.7,1.5-5.4,2.3-8.1c0.5-1.6-0.4-2.2-1.8-2c-6.4,1.1-12.8,2.1-18.2,6.2c-4.7,3.5-6.8,11.4-3.4,16.2c2.3,3.3,5.1,6.4,8.2,8.9
				c8.5,6.8,17.4,13,26,19.7c3.6,2.8,6.7,6,10.1,9.1c6.2,5.7,11.8,12,17.2,18.5c10.7,12.9,18.2,27.4,20.6,43.9
				c1.8,12.7,2,25.6-1.6,38.2c-1.8,6.4-4.8,12.3-9,17.5c-2.6,3.2-5.3,6.3-5.7,10.7c-0.2,1.9-0.3,4,0.3,5.8
				c2.5,7.4,0.4,13.7-4.4,19.3c-1.5,1.8-4,2.7-5.8,4.2c-1.3,1.1-2.5,2.6-3.5,4.1c-3.6,5.6-5.2,12.1-7.3,18.4
				c-0.5,1.5-0.8,3.5-2.6,3.3c-2.2-0.2-2.5-2.3-2.6-4.3c-0.3-4.7-0.6-9.3,1.2-13.8c0.5-1.2,0.3-2.7,0.5-4.9c-2.3,2.6-4,4.6-5.7,6.6
				c-1.4,1.7-3.3,2.2-5.4,1.7c-1.1-0.3-2.7-1-3-1.8c-0.4-1.3,0-3,0.5-4.3c0.3-0.8,1.3-1.5,2.1-2c3.4-2.4,4.2-5.9,4.5-9.7
				c0.2-3-1.3-4.2-4.2-3c-1.8,0.7-3.4,1.9-4.9,3c-1.8,1.4-3.4,2.9-5.1,4.4c-2.1,1.9-4.5,0.6-6.7,0.9c-2,0.2-2.6,3.6-5.3,3.7
				c-2,0-3.3-0.4-3.8-2.5c-0.5-2.3-2.1-2.7-4.2-2.6c-6.2,0.2-9.7,5.1-8.3,11.3c0.7,3.1,1.6,6.2-0.4,9.4c-2,3.2-4.7,4.1-7.9,3.8
				c-6.2-0.5-9.2-5.8-6.9-11.5c1.4-3.5,2.7-7.1,4-10.7c0.2-0.7-0.1-1.6-0.1-2.4c-0.8,0.1-1.7-0.1-2.3,0.2c-1.4,0.7-2.6,1.7-3.9,2.6
				c-3.2,2.3-5.1,2.2-7.9-0.5c-0.9-0.9-2.1-1.8-2.4-2.9c-1.1-3.2-3.3-3.7-6.3-3.6c-2.8,0.1-5.7,0.1-8.5-0.3c-3-0.4-3.2-0.9-3.2-3.9
				c0.1-12,0.2-24,0.3-36.1c0-3.8-0.2-7.6-0.3-11.5c-0.1-3.7,0.7-4.4,4.2-3.8c12.8,2.4,25.7,4,38.7,3.4c9.8-0.4,19.4-2.2,27.7-7.7
				c6-4,9.7-9.8,10-17.3c0.3-7.3-1.1-14-5.3-20c-0.8-1.2-1.4-3.1-3.5-2.2c-1.9,0.8-1.9,2.5-1.9,4.3c0.1,3,0.1,5.9-0.2,8.9
				c-0.4,4.7-4.1,7.1-7.6,6.9c-3.6-0.2-6.5-3.6-6-7.9c0.5-4.3,1.6-8.6,2.5-12.8c0.2-0.8,0.8-1.6,0.8-2.4c0.1-0.9-0.3-1.8-0.4-2.7
				c-0.7,0.4-1.5,0.7-2.1,1.2c-0.7,0.5-1.1,1.3-1.7,1.8c-2.8,2.6-7.3,1.3-8.4-2.4c-0.7-2.4-0.2-4.6,0.5-7c0.8-2.8,1.2-5.9,0.9-8.7
				c-0.3-2.4-1.7-4.5-4-6.1c-7-4.7-14.2-9.3-20.7-14.7c-5.9-4.8-12.3-9.1-17.1-15.2c-4.9-6.2-8.5-12.9-9.8-20.8
				c-1.2-7.7-1-15.2,0.9-22.7c1.7-6.8,4.9-13,9.9-17.9c8.1-8,17.7-13.3,28.8-16.1c14.9-3.7,30-5,45.4-4.5c5.4,0.2,10.7,0.2,16.1,0.8
				c8.1,0.9,16.2,2.3,24.3,3.4c2.4,0.3,3.4,1.4,3.4,3.9c-0.1,8.4,0,16.7-0.1,25.1c0,3.7-0.5,3.9-3.9,2.7c-4.2-1.6-8.5-3.1-12.7-4.6
				c-2.7-1-3.9-0.8-5,1.8c-1.5,3.4-2.6,7-1.7,10.7c1.2,5.4,0.3,10.7-0.4,16c-0.6,4.1-4.1,7-7.8,6.7c-4.6-0.3-8.3-3.5-8.4-7.8
				c-0.1-2.5,0.3-5,0.9-7.5c0.9-4,2.2-7.9,3.1-11.9c0.2-0.9-0.1-2-0.2-2.9C624.6,36.7,624.4,36.7,624.1,36.7z"/>
		</g>
	</g>
	<g>
		<g>
			<path d="M611.7,344.9c-0.9,4.9-2.5,9.7-1.2,14.7c1.8,7.1-4.6,14.3-10.4,15.8c-1.3,0.3-3.5-0.5-4.6-1.6c-3.5-3.3-5.9-7.2-4-12.4
				c1-2.6,1.9-5.2,2.8-7.9c0.1-0.3,0.1-0.7,0.1-1.1c-0.5,0.1-1,0.1-1.4,0.3c-1.2,0.8-2.2,2-3.4,2.5c-1.4,0.5-3.6,1.2-4.3,0.5
				c-1.2-1.1-2-3.2-1.9-4.8c0.2-3.5,1.1-7,1.7-10.4c0.1-0.7,0.4-1.4,0.5-2.1c0.2-2.3-0.4-2.8-2.6-2.3c-3,0.7-6,1.7-9.1,2.2
				c-2.3,0.4-3.1,1.8-3.1,3.8c-0.1,7.8-0.1,15.5-0.1,23.3c0,10.7,0.1,21.5,0.1,32.2c0,10.1-0.1,20.1-0.1,30.2c0,0.8,0,1.7,0.1,2.5
				c0.2,1.8,1,2.2,2.9,1.7c12.2-2.9,24.7-4.4,37.1-5.8c2.5-0.3,5.1,0.3,7.6,0.3c2.7-0.1,5.4-0.5,8-0.6c1.9-0.1,3.2,0.3,3.2,2.8
				c-0.1,5.2,0,10.4,0,15.7c-0.1,15.7-0.2,31.5-0.3,47.2c0,1.1,0,2.3,0,3.4c0,1.5-0.7,1.9-2.1,2c-1.6,0.1-4.1,0.1-4.5,1
				c-1.1,2.3-2.6,4.7-1.8,7.6c0.9,3.3,1.3,6.6,1.8,10c1,6.6-2.3,11.4-6.8,15.6c-1.4,1.3-3.1,1-3.7-1c-0.9-2.8-1.3-5.7-1.8-8.6
				c-0.2-1.2,0.2-2.6,0-3.8c-0.1-0.7-0.7-1.4-1.1-2.1c-0.7,0.4-1.5,0.7-1.9,1.3c-2.1,3.1-2.4,6.8-3.2,10.4
				c-0.8,3.6-1.6,7.2-2.5,10.8c-1.4,5.3-5.2,9-9.3,12.2c-2.1,1.6-5.9,0.2-6.9-2.7c-0.7-2.3-1.2-4.7-1.1-7.1
				c0.2-3.7,0.6-7.4,1.6-10.9c0.7-2.8,2.2-5.4,3.5-8.1c1.6-3.2,4.3-5.9,4.8-10c-3.2,0.8-6.1,1.3-8.9,2.4c-1,0.4-1.5,1.9-2.2,2.9
				c-0.9,1.3-1,3.8-3.1,3.5c-2.6-0.3-2.5-2.8-2.7-4.7c-0.4-3.9-0.6-7.9-1-11.8c-0.1-1.4,0-2.9-2.1-2.9c-2.8,0-3.7,0.6-3.7,3.2
				c0,10.1,0,20.1,0,30.2c-0.1,22.8-0.2,45.6-0.3,68.4c0,3.1,0.2,6.2,0.2,9.3c0,1.4,0.5,2,2.1,1.9c5-0.4,10.1-0.5,15.1-0.9
				c8.1-0.6,16.2-1.4,24.3-1.9c2.9-0.2,5.9,0.1,8.9,0.2c4.5,0.1,9.1,0.1,13.6,0.2c3.6,0,3.6,0,3.6,3.4c0,14.2-0.1,28.4-0.2,42.5
				c0,10.6,0,21.3,0,31.9c0,4.4-0.1,4.6-4.4,4.6c-16.2-0.2-32.3-0.5-48.5-0.7c-6.9-0.1-13.8,0.4-20.7,0.4c-9.5,0-19-0.3-28.5-0.4
				c-5.7-0.1-11.3-0.1-17-0.2c-3.8-0.1-3.9-0.2-3.9-3.8c0.1-24.9,0.2-49.9,0.2-74.8c0-27.7,0-55.3,0.1-83c0-32.8,0.1-65.5,0.2-98.3
				c0-17.3,0.1-34.6,0.2-51.9c0.1-11,0.3-22.1,0.3-33.1c0-9.3-0.2-18.7-0.3-28c0-4.7,0.1-9.3,0-14c-0.1-2.4,0.9-3.9,3.1-4.9
				c4.8-2.1,9.6-4.2,14.2-6.7c8.8-4.7,18.1-7.9,27.5-10.9c9.9-3.2,19.9-6.1,30.1-8.3c9.1-1.9,18.4-2.9,27.6-3.7
				c6-0.5,12.2,0,18.3,0.1c2.3,0,1.9,1.7,1.9,3c0,6.7-0.1,13.3-0.1,20c-0.1,10.2-0.1,20.4-0.2,30.6c0,0.9-0.1,1.7,0,2.6
				c0.2,2.1-0.9,2.7-2.8,2.6c-1.8-0.1-3.7-0.1-5.5-0.1c-3.7,0-6.2,2.9-5.7,6.6c0.2,1.4,0.5,2.8,0.8,4.2c1.2,4.6-0.8,7.9-3.9,11
				c-1.6,1.6-3.3,1.4-5.1,0.6c-1.9-0.8-3.1-2-2.9-4.2c0.1-1.3,0.3-2.6,0.4-3.9C612.5,345,612.1,344.9,611.7,344.9z"/>
			<path d="M470.1,413c0,4.3,0.1,8.3,0,12.4c-0.2,3.2-0.6,6.5-1.1,9.7c-0.2,1.3-1,2.7-1.7,3.9c-3.1,5-7.2,5.1-10.7,0.2
				c-2-2.8-2.4-5.8-1.6-9.3c1.4-6.1,2.4-12.2,3.4-18.3c0.3-1.5,1-3.6-1.2-4.4c-1.7-0.6-4.4,0.8-5,3c-0.7,2.6-1,5.3-1.1,7.9
				c-0.1,3.3-1.2,6.1-3.3,8.5c-2,2.3-3.5,2-4.5-0.8c-0.7-2-1-4.1-1.6-6.1c-0.2-0.7-0.7-1.3-1-1.9c-0.3,0.7-0.8,1.5-0.8,2.2
				c0.1,2.9-0.9,5.2-3.4,6.9c-2.8,1.9-4.2,1.4-4.5-2c-0.2-2.3,0.2-4.6,0.4-7.2c-2.8,2.6-3.7,5.7-3.8,9.3c-0.2,4.4,0,8.8-2,12.9
				c-1.1,2.2-2.4,4.2-5.2,4.2c-2.7-0.1-5.7-3.1-5.9-6.2c-0.1-2.5,0.3-5.1,0.4-7.6c0-0.4-0.4-0.9-0.6-1.3c-0.3,0.2-0.8,0.4-1,0.7
				c-1.1,2.1-2,4.4-3.2,6.4c-4.3,7-7.3,14.7-9.6,22.5c-4,13.8-6.7,27.9-8.2,42.3c-1.3,12.4-1.2,24.8-1.2,37.2c0,5.3-0.5,10.7-0.2,16
				c0.3,7.4-0.1,14.9,1.4,22.3c0.7,3.7,1.1,7.5,1.4,11.3c0.8,7.2,2.8,14.1,5.1,21c3.4,10.1,8.3,19.2,17.9,24.7
				c6.9,3.9,14.3,4.8,22.1,3.5c2.3-0.4,3.3-2,3.3-4.3c0-8.6-0.1-17.2-0.1-25.9c0-6.2,0.1-12.4,0.1-18.6c0-11.5,0-22.9-0.1-34.4
				c0-0.4-0.2-0.7-0.4-1.2c-3.5,3.4-4.1,7.6-4.4,12.1c-0.4,6-1.1,12.1-1.9,18.1c-0.5,3.6-3.1,6-5.7,8.2c-0.7,0.6-2.7,0.2-3.9-0.2
				c-1.8-0.6-2.7-2.1-2.3-4c0.9-4.4,1.8-8.8,2.8-13.2c0.1-0.7,0.5-1.3,0.8-2.1c-0.5-0.1-0.9-0.3-1.3-0.2c-2,0.5-4,2.6-5.9-0.5
				c-2.6-4.1-2.7-5.9-0.4-9.1c1.4-1.9,2.4-4.1,3.6-6.2c0.2-0.3,0.2-0.9,0-1.1c-0.2-0.2-0.8-0.3-1.1-0.2c-1.5,0.5-2.9,1-4.4,1.6
				c-2.3,0.9-2.6,0.8-2.7-1.7c-0.1-3.8,0-7.7,0-11.5c0-11.3,0.1-22.7,0-34c0-2.6,0.7-4.1,3.1-5.3c7.5-3.7,14.8-7.6,22.2-11.4
				c12.5-6.3,24.9-12.7,37.4-18.8c4.3-2.1,8.8-3.8,13.2-5.6c1.4-0.6,1.7,0.4,1.7,1.5c0,4.8,0,9.6,0,14.5c0,8.6-0.1,17.3-0.1,25.9
				c-0.1,12.3-0.3,24.6-0.3,36.9c0,11,0.3,22,0.3,33c0,6.6-0.3,13.3-0.4,19.9c0,5.5,0.2,11,0.2,16.5c0,7.1-0.1,14.1-0.1,21.2
				c0,6.2,0.1,12.4,0.2,18.7c0,6.5,0,13,0.1,19.5c0,2.1-0.5,3.8-2.6,4.9c-4.6,2.4-9.1,5.1-13.9,7.2c-8.7,3.8-17.5,7.2-27.1,8.1
				c-11.1,1-22.1,0.5-33-2.6c-8-2.3-16.1-4.3-23.6-8.1c-8.2-4.2-16-8.8-22.8-15.2c-13.5-12.7-22.4-28-27.8-45.7
				c-3.3-10.9-5.3-22-6.3-33.3c-1-10.7-0.8-21.5-0.9-32.2c-0.1-12.2,1.5-24.2,2.9-36.3c1.6-14.1,4.5-27.9,8.4-41.5
				c3-10.6,6.6-21,11.1-31.1c6.4-14.4,13.4-28.3,21.9-41.5c3.3-5.1,6.9-10,10.6-14.8c4.9-6.4,10-12.6,15.1-18.8
				c1.3-1.5,2.8-2.8,4.3-4.1c7.1-6.2,14.2-12.5,21.5-18.5c7.2-5.9,15.2-10.7,23.5-15.1c6.5-3.5,13.5-5.6,20.5-7.6
				c1.3-0.4,2.7-0.6,4.1-0.7c3.8-0.4,3.8-0.3,3.8,3.4c-0.1,10,0,20.1-0.1,30.1c-0.1,11-0.2,22-0.4,33c0,2.2-0.8,4.4-1.2,6.7
				c-0.4,2.6-0.8,5.3-1.3,7.9c-0.2,1.1-0.4,2.2-0.9,3.2c-2.2,4.5-4.3,4.8-8,1.4C471,413.4,470.6,413.3,470.1,413z M467.4,403.7
				c0.1,0,0.2,0.1,0.4,0.1c0,0.1,0,0.3,0,0.4c0.4,1.2,0.9,2.4,1.3,3.6c0.3-1,0.5-2,0.9-3c0.3-0.9,0.8-1.8,1.1-2.8
				c0.3-1.1,0.6-2.2,0.6-3.3c0-0.5-0.5-1.1-0.8-1.7c-0.6,0.4-1.4,0.6-1.6,1.1C468.5,400,468,401.9,467.4,403.7z"/>
			<path d="M770.5,425.2c-0.3,0-0.5,0.1-0.6,0c-1-0.6-2.1-1.3-3.1-1.9c-0.2,1.4-0.8,2.9-0.7,4.3c0.2,2.7,0.7,5.3,1.2,7.9
				c0.7,3.5-2,5.2-4.2,6.7c-2.5,1.8-6.3-1.2-6.4-5.1c-0.1-3.4,0.3-6.8,0.5-10.2c0.1-1.4,0.3-2.8,0.3-4.2c0-0.4-0.5-0.9-0.7-1.3
				c-0.4,0.3-1.1,0.5-1.2,0.9c-0.5,1.9-1.3,3.9-1.2,5.8c0.3,8.1-1.8,16-2.5,24c-0.3,3.5-4.7,7.8-8,8.4c-2.7,0.5-6.5-2.5-6.6-5.8
				c0-2.8,0.2-5.8,1.4-8.2c4-8.5,6.5-17.3,6.3-26.6c-0.1-5.4-1.3-10.9-2.1-16.3c-0.4-2.8-0.9-5.6-1.5-8.3c-0.2-1.1-0.6-2.2-1.3-3
				c-2-2.4-4.1-4.7-6.2-7c-0.4-0.5-1.1-0.7-1.7-1.1c-0.3,0.7-0.9,1.4-0.9,2.2c-0.1,5.7-0.1,11.3-0.1,17c-0.1,10.7-0.4,21.4-0.5,32.1
				c-0.1,12.6-0.1,25.2-0.2,37.8c-0.2,23.2-0.4,46.5-0.5,69.7c-0.1,11.3,0.2,22.6,0.2,33.9c0,11.2-0.3,22.3-0.4,33.5
				c-0.1,6.9,0,13.8,0,20.8c0,20-0.1,40-0.1,59.9c0,3.4-0.1,3.4-3.6,3.4c-14.6-0.1-29.2-0.3-43.7-0.5c-1.7,0-3.4,0.1-5.1,0
				c-3.7-0.2-3.8-0.3-3.8-3.9c0-8.2,0-16.5,0.1-24.7c0.1-16,0.4-32,0.5-48c0.1-27.1,0-54.2,0.1-81.2c0.1-22,0.3-43.9,0.4-65.9
				c0.1-13.7,0.1-27.5,0.2-41.2c0.1-19.4,0.3-38.8,0.4-58.3c0.1-7.5,0.1-15,0.1-22.5c0-1.5,0.7-3.7-1.3-3.9
				c-2.2-0.3-2.3,2.2-2.6,3.8c-0.5,2.6-0.8,5.3-1.2,8c-0.5,3.4-4.5,7.6-7.7,8.3c-1.5,0.4-2.1-0.6-2.5-1.7c-1.1-2.8-0.8-5.4,0.2-8.2
				c1-2.7,1.5-5.7,2-8.6c0.2-1.2,0-3-1.7-2.8c-1.1,0.2-2.7,1.4-2.9,2.4c-0.5,2.2-0.3,4.5-0.5,6.8c-0.3,3.8-0.1,7.7-1,11.4
				c-1.7,6.7-5.6,12-11.7,15.4c-2.3,1.3-3.8,0.8-4.2-1.8c-0.4-2.9-0.4-6,0.2-8.8c1.2-6.5,2.9-12.9,4.3-19.4
				c0.9-4.5-0.1-8.9-1.1-13.3c-0.3-1.5-1.5-2.3-3.4-2.7c-4.3-0.8-4.3-1-4.2-5.5c0.2-16,0.3-32,0.5-48c0-1.4,0.1-2.8,0.1-4.3
				c0-1.5,0.9-2.2,2.2-1.9c5.5,1.3,11.1,2.4,16.4,4.3c8,2.9,15.8,6.1,23.5,9.6c5,2.3,9.6,5.4,14.3,8.1c11.2,6.6,21.5,14.4,31.1,23
				c8.2,7.3,15.6,15.5,23.1,23.5c4.4,4.6,8.6,9.3,12.6,14.2c3.7,4.5,7.1,9.4,10.5,14.2c0.7,0.9,0.8,2.4,0.8,3.6
				c-0.1,9.2-0.3,18.4-0.5,27.6c-0.1,7.1-0.2,14.2-0.3,21.2C770.6,423.6,770.5,424.4,770.5,425.2z"/>
			<path d="M80,644.6c0.2,13.7,0.5,27.5,0.7,41.2c0.1,5.1,0,5-5.1,5c-11.6,0-23.2,0.2-34.9,0.1c-4.6,0-9.2-0.7-13.9-1
				c-1.9-0.1-1.9-1.4-2-2.7c-0.1-3.5-0.1-7.1-0.2-10.6c-0.5-15.9-1.1-31.7-1.4-47.6c-0.3-16.1-0.5-32.3-0.5-48.4
				c-0.1-19.6,0-39.1,0-58.7c0-16.6,0.2-33.2-0.1-49.8c-0.3-18.7-1-37.4-1.6-56.1c-0.4-14.1-0.9-28.3-1.3-42.4
				c0-1.2,0.4-2.4,0.6-3.6c0.8,0.8,1.7,1.6,2.5,2.6c3.6,4.4,6.9,8.9,10.7,13.1c5.9,6.6,12,13.1,18.3,19.4c5.4,5.5,10.9,11,16.8,16.1
				c6.1,5.3,12.6,9.9,18.9,15c6.1,4.8,12.1,9.7,18.1,14.6c3.5,2.9,6.8,5.9,10.4,8.7c8.3,6.4,15.8,13.7,22.9,21.4
				c4.8,5.2,9.8,10.3,13.8,16c4.5,6.4,8.1,13.6,12,20.4c3.3,5.7,4.5,12.1,6.3,18.4c2.3,8.1,3,16.4,2.9,24.7
				c-0.1,6.1,0.2,12.2-0.3,18.2c-0.7,9.1-3.6,17.8-8.3,25.6c-4.9,8.1-11.9,14.1-20.9,17.9c-8.2,3.4-16.4,5-25.1,4.9
				c-2.8,0-5.7,0.5-8.5,0.1c-6.9-0.9-13.8-2-20.6-3.3c-2.9-0.5-5.7-1.5-8.5-2.5c-1.8-0.6-2.4-0.1-2.3,1.6c0.1,3.4,0.1,6.8,0.3,10.2
				c0.2,3.8,0.4,7.6,0.6,11.5C80.1,644.6,80.1,644.6,80,644.6z M107,521.6c-0.8,2.7-2.8,4.4-5.2,4.1c-2.2-0.3-4.3-1.9-6.4-2.9
				c-0.2,0.9-0.1,2.4-0.7,3.7c-1.2,2.7-2.3,5.6-4.2,7.7c-2.3,2.7-6.6,1.2-7-2.3c-0.5-4.5-1.1-9,0-13.5c0.8-3.4,1.7-6.9,2.2-10.3
				c0.5-2.9,0.8-5.9,0.9-8.9c0-1-0.7-2.1-1-3.1c-0.9,0.5-1.8,1-2.6,1.6c-0.4,0.3-0.7,1.2-1.1,1.2c-4,0.6-3.4,3.4-3.1,6.2
				c0.1,1,0.1,2,0.1,3c-0.1,7.2-0.2,14.4-0.2,21.6c0,6.7,0.2,13.3,0.1,20c0,9.1-0.2,18.1-0.3,27.2c0,1.4,0.3,2.5,1.7,3
				c3.3,1.2,6.5,2.8,9.9,3.8c3.8,1.1,7.7,1.9,11.7,0.9c8.7-2,13.1-8.2,15.6-16.2c2.2-7.3,1.9-14.9,1.6-22.3
				c-0.2-5.5-1.5-10.9-2.4-16.3c-0.1-0.6-0.6-1.2-0.9-1.7c-0.5,0.4-1.2,0.6-1.6,1.1c-2.2,2.5-4.2,2.5-6-0.3c-0.6-1-0.8-2.3-1-3.5
				C106.8,524.1,107,522.8,107,521.6z M95.8,518.7c0.4-1.1,0.8-1.7,0.9-2.3c0.1-1.4,0-2.7-0.1-4.1c-0.3,0-0.7,0-0.7,0.1
				c-0.3,1.4-0.7,2.9-0.9,4.4C95,517.2,95.4,517.7,95.8,518.7z"/>
			<path d="M320.4,692.4c-5.5,0-11,0-16.6,0c-4.2,0-8.4,0.2-12.6,0.2c-3.7,0-3.8,0-4.7-3.4c-1.9-6.8-3.7-13.6-5.6-20.4
				c-1-3.5-2.1-7-3.2-10.5c-0.5-1.8-1.1-1.5-2.2-0.3c-3,3.2-4.9,6.1-3.2,11c1.1,3,0.5,6.7,0,10c-0.5,3.1-2.3,5.8-5.1,7.4
				c-0.7,0.4-2.1,0.5-2.5,0c-2.1-2.2-3.9-4.5-2.9-7.9c0.6-1.9,0.8-3.9,1.1-5.8c0.3-1.9-0.5-3.6-2.5-3.8c-1.7-0.2-2.2,1.3-2.6,2.8
				c-1,4.1-2,8.3-3,12.4c-1,4.1-2.1,8.2-2.1,12.5c0,3.2-2.2,5.2-4.5,6.8c-3.2,2.2-8.6-0.7-8.9-4.6c-0.3-4.5,0.8-8.7,2.5-12.8
				c2-4.8,4-9.6,6-14.5c0.4-0.9,0.7-1.9,0.7-2.8c0-0.7-0.4-1.5-0.6-2.2c-0.6,0.3-1.2,0.7-1.8,1c-1.3,0.8-2.5,1.9-3.9,2.5
				c-4,1.7-7,0.1-8-4.1c-0.1-0.5-0.1-1.1-0.1-1.7c-0.2-1.7,0.5-3.9-2.5-4c-3.6-0.1-4.3,0.2-5.3,3.4c-2.4,8.1-4.7,16.3-7.1,24.4
				c-1.2,4.1-1.3,4.1-5.6,4c-10.8,0-21.5-0.1-32.3-0.1c-4.8,0-9.6,0.1-14.4,0c-2.5-0.1-2.6-0.5-1.8-2.8c4.7-12.3,9.6-24.5,14-36.8
				c2.4-6.6,3.9-13.6,5.8-20.3c1.5-5.3,3.1-10.5,4.6-15.9c1.3-4.9,2.4-9.9,3.6-14.8c1.5-6.3,3.2-12.6,4.7-18.9
				c2.2-9.1,4.7-18.1,6.7-27.2c3-13.9,5.8-27.9,8.6-41.9c3.1-15.5,6.1-31.1,9.1-46.6c0.4-2.1,1.4-2.9,3.6-3.4
				c5.9-1.3,11.7-3,17.5-4.8c5.8-1.8,11.5-3.7,17.2-5.9c6.1-2.3,12-4.9,18-7.4c2.8-1.2,3.1-1.2,3.7,1.5c2.9,13.1,5.7,26.1,8.6,39.2
				c3.1,13.8,6.1,27.5,9.2,41.3c2,8.6,4.4,17.2,6.5,25.8c2.3,9.2,4.5,18.4,6.8,27.5c3,11.8,6,23.5,9.1,35.2
				c2.3,8.8,4.5,17.5,6.8,26.3c3,11.2,6.1,22.3,9.1,33.6c1.2,4.6,2.2,9.4,3.1,14.1c0.6,2.9,0.3,3.1-2.8,3.1c-6.1,0-12.2,0-18.3,0
				C320.4,692.6,320.4,692.5,320.4,692.4z M257.4,584.7c0,0,0.1,0,0.1,0c-0.3,3.9-0.5,7.9-0.9,11.8c-0.1,0.9-0.5,2-1,2.7
				c-0.9,1.2-2.4,3.1-3.1,2.9c-1.7-0.5-3.4-1.8-4.6-3.2c-0.7-0.8-0.9-2.4-0.8-3.6c0.2-1.9,0.8-3.8,1.2-5.7c0.5-2.5,1.2-4.9,1.6-7.4
				c0.2-1.6-1.1-2.8-2.6-2.7c-0.7,0-1.8,1.3-2,2.1c-0.9,3.8-1.6,7.7-2.4,11.6c-1.4,6.8-2.8,13.5-4.2,20.3c-0.9,4.2-1.9,8.3-2.7,12.4
				c-0.5,2.7-0.2,2.9,2.6,2.6c1.5-0.2,3-0.5,4.6-0.8c7.4-1.4,14.9-2.8,22.3-4.3c2.2-0.4,2.5-1.4,2-3.7c-0.5-2.1-1-4.1-1.4-6.2
				c-2.3-10-4.5-20.1-6.8-30.1c-0.2-0.8-0.5-1.6-0.8-2.5c-0.3,0.9-0.7,1.7-0.9,2.6C257.3,583.8,257.4,584.2,257.4,584.7z"/>
		</g>
		<g>
			<path d="M253.6,325.3c-0.2-9.9-0.5-19.8-0.7-29.7c-0.2-16.1-0.2-32.3-0.3-48.4c-0.3-27.9-0.8-55.8-1.1-83.7
				c-0.3-26.1-0.4-52.2-0.7-78.2c-0.3-23.1-0.7-46.2-1-69.3c0-2.7-0.2-5.4-0.3-8c-0.1-3.5,0-3.6,3.4-3.7c7.5-0.1,15-0.2,22.5-0.2
				c12.3,0,24.7,0.5,37-0.2c18.1-1,36.2-0.6,54.3-0.8c7-0.1,6.1-1,6.2,6.4c0.1,13.2,0.4,26.3,0.7,39.5c0.1,4,0.1,7.9,0.1,11.9
				c0,1.3,0.2,2.8-1.5,3.1c-2.2,0.5-2.1,1.9-1.7,3.6c0.4,1.8,0.8,3.6,1.3,5.4c1.4,4.9,0.4,9.2-3.1,12.9c-2.1,2.3-3,2.6-5,1.5
				c-2.3-1.3-3.4-3.8-2.6-6.1c0.3-0.8,0.9-1.4,1.2-2.2c1.1-2.8-0.3-5.6-2.9-6c-1.7-0.3-2.8,0.5-2.8,2.3c0,1.4,0.4,2.9,0.3,4.2
				c-0.3,2.3-1,4.6-1.5,6.9c-0.4,1.5-1.1,3-1.1,4.4c-0.2,6.6,0.1,13.2-0.3,19.8c-0.2,3.1-1.1,6.3-2.3,9.2c-1.3,3.2-5.5,4.1-9,2.4
				c-1.6-0.8-3.2-1.9-4.5-3.2c-2.4-2.3-2.6-5.2-1.8-8.2c1.7-6.1,3.5-12.2,5.2-18.3c0.1-0.5,0.4-1.2,0.2-1.6
				c-0.3-0.7-0.9-1.2-1.4-1.8c-0.5,0.5-1.2,0.9-1.4,1.4c-0.7,1.7-1.1,3.5-1.8,5.1c-0.8,1.9-2.7,2.1-4.4,1.7c-1.8-0.4-2.5-2-2.4-3.6
				c0.1-2.1,0.6-4.2,1-6.2c0.2-1,0.8-1.9,0.9-2.8c0.1-0.6-0.4-1.5-0.8-1.7c-0.4-0.2-1.5,0.1-1.7,0.6c-0.8,1.5-1.4,3.1-1.9,4.7
				c-2,5.5-1.8,11.4-2.6,17.1c-0.5,3.4-2,6.2-3.7,8.9c-1.1,1.8-2.7,3.4-5.3,2.8c-1.9-0.4-3.6-2.5-3.9-5c-0.7-4.7,1.2-8.9,2.5-13.2
				c1.4-4.4,1.9-8.8,1.1-13.3c-0.3-1.8-1.1-1.6-2.3-0.9c-1.2,0.7-2.6,1.7-3.9,1.6c-3.1-0.2-3.3,1.3-3.3,3.8
				c0.4,25.2,0.7,50.4,0.9,75.6c0,2.8-0.2,5.7-0.1,8.5c0.1,2.4,0.5,2.8,2.9,1.9c7.3-2.6,14.6-5.2,21.8-8c5.9-2.3,11.8-4.8,17.6-7.2
				c4.3-1.8,8.6-3.6,12.8-5.4c3.5-1.5,3.9-1.3,3.9,2.4c0.1,7.1,0.1,14.1,0.1,21.2c0,9.8-0.1,19.5,0.2,29.3c0.1,3.1-0.9,4.8-3.6,5.9
				c-2.1,0.9-4,2.1-6,3.1c-4.1,2.1-6,7.6-4,11.8c1.3,2.7,2.5,5.4,2,8.5c-0.6,3.9-2.9,5.8-6.7,5.4c-3-0.3-4.9-2.9-4.7-6.4
				c0-0.8,0.3-1.7,0.3-2.5c0-0.7-0.3-1.4-0.5-2.2c-0.7,0.5-1.6,0.8-1.9,1.4c-0.8,1.8-1.5,3.7-1.8,5.6c-1,6.5-3.3,12.7-2.6,19.6
				c0.5,5.4,1.2,11-0.4,16.5c-0.7,2.3-1.4,4.6-2.4,6.8c-1.5,3.3-4.7,4.1-7.7,2.1c-2-1.4-3.1-3.3-3.5-5.9c-1.5-8.6,2.2-16.3,4.1-24.3
				c1-4.4,1.6-8.9,2.3-13.3c0.1-0.8-0.7-1.7-1.1-2.5c-0.6,0.7-1.5,1.3-1.6,2c-0.4,1.9-0.5,3.9-0.7,5.9c-0.3,2.2-0.4,4.5-0.9,6.7
				c-0.5,2.1-2.7,3.8-4.2,3.4c-2-0.6-3.7-1.6-3.6-4.1c0-3.8,0.1-7.6,0.1-11.3c0-2.8-0.2-2.9-2.9-1.8c-6.5,2.5-6.5,2.5-6.5,9.7
				c0.2,24.1,0.3,48.2,0.5,72.3c0,3,0,6,0.1,8.9c0.1,2.2,0.6,2.5,2.5,1.4c5.2-2.9,10.4-5.7,15.5-8.6c3.6-2.1,7.2-4.4,10.8-6.6
				c2.9-1.8,5.7-3.7,8.5-5.5c9.3-5.8,18.6-11.6,28-17.4c1.8-1.1,2.4-0.8,2.5,1.5c0.1,6.2,0.1,12.5,0.1,18.7
				c0.1,9.9,0.1,19.8,0.2,29.8c0,2.2-0.5,3.9-1.9,5.8c-2.2,3-3.6,6.7-5,10.2c-0.4,0.9-0.1,2.3,0.2,3.3c1.1,4.1,0.6,8.2-0.2,12.2
				c-0.6,2.8-2.9,4.8-4.8,4.6c-3.1-0.3-6.2-3-6.5-5.7c-0.1-0.7,0-1.4-0.1-2.1c-0.2-0.9-0.5-1.8-0.7-2.7c-0.8,0.8-2.2,1.5-2.4,2.5
				c-0.8,3-1.2,6.1-1.8,9.1c-0.2,1.1-0.4,2.2-1,3.2c-1,1.9-2.2,3.8-4.8,3.3c-2.5-0.5-4.5-1.8-5.2-4.4c-0.1-0.4-0.1-0.9-0.2-1.3
				c-0.3-0.9-0.6-1.7-0.9-2.5c-0.7,0.8-1.9,1.6-1.9,2.5c-0.1,1.8,0.2,3.7,0.7,5.4c1.7,5.3,2.1,10.8,1.8,16.3
				c-0.2,3.8,0,7.6-0.5,11.4c-0.4,3.2-2.2,5.7-5.5,7c-3.8,1.5-5.6,1.3-7.1-2.6c-1.4-3.6-2.5-7.6-2.6-11.4c-0.2-4.6,0.7-9.2,1.3-13.8
				c0.4-2.7-0.1-5.5-1.4-5.8c-1.2-0.3-2.5,2.2-3.2,5c-0.7,2.6-1.6,5.1-2.7,7.5c-0.8,1.7-2.2,2-3.9,1.2c-3.2-1.5-4.9-5.8-3.5-9.1
				c0.6-1.3,1.3-2.5,1.8-3.8c0.2-0.4,0-1,0-1.6c-0.6,0-1.4-0.1-1.9,0.2c-3.8,2.2-7.4,4.7-11.2,6.7c-8.1,4.3-16.3,8.5-24.5,12.5
				c-6.5,3.1-13.2,5.8-19.8,8.5c-3.1,1.2-3.3,1-3.3-2.4c0-28.9,0-57.8,0-86.7C253.8,325.3,253.7,325.3,253.6,325.3z"/>
			<path d="M218.9,85.6c0,15.2-0.1,30.3,0,45.4c0.1,11.9,0.4,23.8,0.5,35.7c0.2,15.8,0.2,31.6,0.4,47.5c0.1,8.2,0.4,16.4,0.5,24.6
				c0.2,11.9,0.3,23.7,0.4,35.6c0.3,18.7,0.6,37.4,0.8,56.1c0.1,8.7,0.1,17.5-0.3,26.2c-0.4,8.4-2.3,16.5-4.6,24.5
				c-0.7,2.6-1.4,5.3-1.3,7.9c0.3,8.9-1.4,17.2-5.8,24.8c-2.2,3.8-4.6,7.4-6.9,11.1c-2.2,3.5-3,7.3-2.6,11.4
				c0.3,3.4,0.4,6.8,0.9,10.1c0.7,5.2-0.8,9.8-3.2,14.3c-1.1,2-2.3,3.9-3.4,5.9c-2.1,3.8-6.4,5.5-10.5,4c-8.2-2.9-10.6-9-7.4-17.2
				c1.1-2.9,2.3-5.8,3-8.8c0.8-3.9-0.7-5-4.5-3.3c-1.8,0.8-3.4,2.1-4.9,3.3c-3,2.4-4,2.6-7.3,0.9c-4.2-2.3-6.7-1.7-9.6,2.2
				c-1.6,2.2-3,4.5-4.9,6.4c-4.2,4.2-8.5,3-10.8-2.5c-1.2-2.9-1.5-5.7-0.9-8.7c0.3-1.5,0.4-3.1,0.2-4.6c-0.1-0.7-1-1.7-1.7-2
				c-0.7-0.2-2,0.1-2.6,0.6c-1.1,1-1.9,2.4-3,3.6c-1.9,2-4.4,2-6.2-0.1c-1-1.2-1.7-2.6-2.5-4c-1-1.8-1.8-3.4-4.2-4.3
				c-1.5-0.6-2.5-3.2-3.2-5.1c-0.5-1.4-0.3-3.1-0.4-4.6c-0.1-1.3,0.2-2.7-0.3-3.8c-3-6.7-1.6-13.9-2-20.8
				c-0.8-12.9-0.8-25.8-1.1-38.7c0-0.3,0-0.6,0-0.8c0.2-0.9,0.4-1.9,0.5-2.8c1,0.4,2.2,0.5,3,1.2c5.8,4.8,11.8,9.3,19,11.7
				c7.2,2.5,14.5,4,21.7-0.3c2.6-1.6,4.8-3.5,6.1-6.3c2.5-5.5,4.7-11.1,4.5-17.4c-0.3-8.6,0-17.2,0-25.9
				c-0.1-15.4-0.3-30.8-0.5-46.2c-0.2-13.7-0.6-27.5-0.8-41.2c-0.3-20.1-0.5-40.2-0.8-60.4c-0.3-23.4-0.7-46.8-1-70.1
				c-0.3-24.2-0.5-48.5-0.7-72.7c-0.1-7.1-0.1-14.2-0.4-21.2c-0.1-2,0.3-2.8,2.5-2.8c8.5,0.2,17,0.3,25.5,0.3c7.3,0,14.7-0.2,22-0.2
				c6.8-0.1,7,0,7.1,6.5c0.3,12.3,0.4,24.6,0.5,36.9c0.1,12.7,0,25.5,0,38.2C218.2,85.6,218.6,85.6,218.9,85.6z"/>
			<path d="M518.6,26.2c0,5.5,0,11.1,0,16.6c0,1.5,0,3.1-2.4,2.1c-0.3-0.1-1.8,1-1.8,1.6c0.1,3.5-1.9,6.1-3.7,8.9
				c-2.6,4-2.3,8.7-2.7,13.2c-0.2,2.2,0,4.5,0.2,6.8c0.5,4.6-0.9,8.6-3,12.6c-1.8,3.3-4.6,3.3-7.7,2.8c-3.1-0.5-4.3-1.6-5.1-4.8
				c-0.8-3-0.4-5.7,0.8-8.6c2-4.8,3.5-9.8,4.7-14.9c0.6-2.4,0.1-5.1-0.2-7.6c-0.1-1-0.7-2.1-1.4-3c-1.4-1.7-3-1.4-3.8,0.8
				c-0.3,0.8-0.5,1.7-0.5,2.5c0,2.8-0.4,5.8,0.3,8.5c0.8,2.9-0.4,5-1.6,7.2c-0.6,1-2.2,2-3.3,2c-1.1-0.1-2.2-1.4-3.3-2.2
				c-0.2-0.1-0.2-0.5-0.3-0.8c-0.3-1.2-0.2-3.2-1.8-2.7c-1.9,0.7-1,2.6-0.2,4c1.2,2.3,2.1,4.5,1.1,7.3c-1.1,2.9-2.9,4.5-5.9,4.4
				c-4.4-0.1-8.6-3.5-9.5-7.8c-0.7-3.5-0.6-7,1.3-10.3c1.3-2.2,2.4-4.5,3.6-6.7c0.2-0.5,0.5-1.4,0.3-1.5c-0.5-0.4-1.2-0.5-1.9-0.5
				c-0.5,0-1.1,0.2-1.6,0.4c-4.7,1.5-8.4,0.3-11-3.9c-1.2-1.9-1.9-1.5-3.2-0.4c-5.7,5.2-8.8,11.8-8.9,19.5c-0.1,6.9,1.8,13.2,7.6,18
				c8.2,6.8,17.1,12.4,26.3,17.6c6,3.4,11.5,7.7,17.4,11.2c7.3,4.4,13.9,9.7,19.9,15.7c7.3,7.4,11.6,16.3,12.8,26.6
				c2,16.5,0.9,32.6-4.5,48.5c-3.3,9.5-7.4,18.6-12.5,27.3c-8.5,14.5-18.9,27.5-30.9,39.1c-11.9,11.5-25,21.4-39.6,29.4
				c-8.6,4.7-17.1,9.2-26.3,12.4c-6.1,2.1-12.4,3.6-18.6,5.4c-1.8,0.5-2.6,0.1-2.6-1.9c0.1-5.8,0.1-11.6,0.1-17.4
				c0-4.5-0.2-9-0.2-13.6c-0.1-7.8-0.1-15.6-0.1-23.4c0-3.5,0.1-3.4,3.5-3.7c10.1-0.7,20.1-2.1,29.8-5.2c10.5-3.3,19.9-9,28.2-16.1
				c8.4-7.1,14.9-16,17.6-27c1.9-8,2-16.1-2.3-23.5c-1.6-2.7-4.1-5-6.4-7.3c-1.5-1.4-2.9-0.9-3.3,1.2c-0.3,1.4-0.2,2.8-0.2,4.2
				c-0.1,2.4-0.9,4.4-2.7,6c-1.8,1.6-3.9,1.8-5.9,0.6c-2.2-1.3-2.6-2.6-1.8-5.4c0.5-2,1.2-4.1,1.4-6.2c0.1-1.2-0.3-3.5-0.8-3.6
				c-2.1-0.5-2.5,1.7-2.6,3c-0.4,3.5-0.8,7.1-0.4,10.5c0.8,6.5-0.2,12.7-1.3,19c-0.7,4.4-4.5,7.2-8.7,7.3c-3.7,0.1-9.2-4.6-9.3-8.5
				c-0.3-5.8,0.4-11.4,3.2-16.8c2.3-4.4,3.6-9.5,4.8-14.4c0.5-2.3,0.4-5.2-2.4-6.7c-1.4-0.8-2-0.6-2.2,1.1
				c-0.5,3.6-0.8,7.3-1.6,10.8c-0.5,2.1-1.6,4.2-2.7,6.1c-1.1,1.8-2.9,1.5-4.6,0.7c-2.8-1.4-4.4-3.8-4.4-6.8
				c0.1-3.9,0.6-7.8,1.3-11.7c0.6-3.5,1.8-6.8,2.5-10.2c0.7-3.6-0.6-6.5-3.6-8.9c-8.3-6.6-16-13.9-21.1-23.4
				c-4.3-7.9-6.7-16.3-7.4-25.1c-0.7-7.9-1-15.8-0.9-23.7c0.2-9.6,1.9-19.1,4.4-28.4c2-7.7,5.5-14.8,9.7-21.5
				c10.3-16.4,24.6-27.3,44-31c8.5-1.6,17.1-2.1,25.7-1.5c8.3,0.6,16.6,1.1,24.8,2.2c6,0.8,11.9,2.4,17.7,3.8
				c0.7,0.2,1.4,1.7,1.4,2.6c0.1,4.7,0.1,9.3,0.1,14C518.6,24,518.6,25.1,518.6,26.2C518.6,26.2,518.6,26.2,518.6,26.2z"/>
			<path d="M632,36.7c-0.4,1.2-0.8,2.3-1.2,3.5c-1.3,3.6-5.5,5.4-8.9,3.7c-2.8-1.3-3.7-3.2-2.9-6.2c0.8-2.7,1.5-5.4,2.3-8.1
				c0.5-1.6-0.4-2.2-1.8-2c-6.4,1.1-12.8,2.1-18.2,6.2c-4.7,3.5-6.8,11.4-3.4,16.2c2.3,3.3,5.1,6.4,8.2,8.9c8.5,6.8,17.4,13,26,19.7
				c3.6,2.8,6.7,6,10.1,9.1c6.2,5.7,11.8,12,17.2,18.5c10.7,12.9,18.2,27.4,20.6,43.9c1.8,12.7,2,25.6-1.6,38.2
				c-1.8,6.4-4.8,12.3-9,17.5c-2.6,3.2-5.3,6.3-5.7,10.7c-0.2,1.9-0.3,4,0.3,5.8c2.5,7.4,0.4,13.7-4.4,19.3c-1.5,1.8-4,2.7-5.8,4.2
				c-1.3,1.1-2.5,2.6-3.5,4.1c-3.6,5.6-5.2,12.1-7.3,18.4c-0.5,1.5-0.8,3.5-2.6,3.3c-2.2-0.2-2.5-2.3-2.6-4.3
				c-0.3-4.7-0.6-9.3,1.2-13.8c0.5-1.2,0.3-2.7,0.5-4.9c-2.3,2.6-4,4.6-5.7,6.6c-1.4,1.7-3.3,2.2-5.4,1.7c-1.1-0.3-2.7-1-3-1.8
				c-0.4-1.3,0-3,0.5-4.3c0.3-0.8,1.3-1.5,2.1-2c3.4-2.4,4.2-5.9,4.5-9.7c0.2-3-1.3-4.2-4.2-3c-1.8,0.7-3.4,1.9-4.9,3
				c-1.8,1.4-3.4,2.9-5.1,4.4c-2.1,1.9-4.5,0.6-6.7,0.9c-2,0.2-2.6,3.6-5.3,3.7c-2,0-3.3-0.4-3.8-2.5c-0.5-2.3-2.1-2.7-4.2-2.6
				c-6.2,0.2-9.7,5.1-8.3,11.3c0.7,3.1,1.6,6.2-0.4,9.4c-2,3.2-4.7,4.1-7.9,3.8c-6.2-0.5-9.2-5.8-6.9-11.5c1.4-3.5,2.7-7.1,4-10.7
				c0.2-0.7-0.1-1.6-0.1-2.4c-0.8,0.1-1.7-0.1-2.3,0.2c-1.4,0.7-2.6,1.7-3.9,2.6c-3.2,2.3-5.1,2.2-7.9-0.5c-0.9-0.9-2.1-1.8-2.4-2.9
				c-1.1-3.2-3.3-3.7-6.3-3.6c-2.8,0.1-5.7,0.1-8.5-0.3c-3-0.4-3.2-0.9-3.2-3.9c0.1-12,0.2-24,0.3-36.1c0-3.8-0.2-7.6-0.3-11.5
				c-0.1-3.7,0.7-4.4,4.2-3.8c12.8,2.4,25.7,4,38.7,3.4c9.8-0.4,19.4-2.2,27.7-7.7c6-4,9.7-9.8,10-17.3c0.3-7.3-1.1-14-5.3-20
				c-0.8-1.2-1.4-3.1-3.5-2.2c-1.9,0.8-1.9,2.5-1.9,4.3c0.1,3,0.1,5.9-0.2,8.9c-0.4,4.7-4.1,7.1-7.6,6.9c-3.6-0.2-6.5-3.6-6-7.9
				c0.5-4.3,1.6-8.6,2.5-12.8c0.2-0.8,0.8-1.6,0.8-2.4c0.1-0.9-0.3-1.8-0.4-2.7c-0.7,0.4-1.5,0.7-2.1,1.2c-0.7,0.5-1.1,1.3-1.7,1.8
				c-2.8,2.6-7.3,1.3-8.4-2.4c-0.7-2.4-0.2-4.6,0.5-7c0.8-2.8,1.2-5.9,0.9-8.7c-0.3-2.4-1.7-4.5-4-6.1c-7-4.7-14.2-9.3-20.7-14.7
				c-5.9-4.8-12.3-9.1-17.1-15.2c-4.9-6.2-8.5-12.9-9.8-20.8c-1.2-7.7-1-15.2,0.9-22.7c1.7-6.8,4.9-13,9.9-17.9
				c8.1-8,17.7-13.3,28.8-16.1c14.9-3.7,30-5,45.4-4.5c5.4,0.2,10.7,0.2,16.1,0.8c8.1,0.9,16.2,2.3,24.3,3.4
				c2.4,0.3,3.4,1.4,3.4,3.9c-0.1,8.4,0,16.7-0.1,25.1c0,3.7-0.5,3.9-3.9,2.7c-4.2-1.6-8.5-3.1-12.7-4.6c-2.7-1-3.9-0.8-5,1.8
				c-1.5,3.4-2.6,7-1.7,10.7c1.2,5.4,0.3,10.7-0.4,16c-0.6,4.1-4.1,7-7.8,6.7c-4.6-0.3-8.3-3.5-8.4-7.8c-0.1-2.5,0.3-5,0.9-7.5
				c0.9-4,2.2-7.9,3.1-11.9c0.2-0.9-0.1-2-0.2-2.9C632.5,36.7,632.3,36.7,632,36.7z"/>
		</g>
	</g>
</g>
</svg>
