<?xml version="1.0" encoding="utf-8"?>
<!-- Generator: Adobe Illustrator 19.1.0, SVG Export Plug-In . SVG Version: 6.00 Build 0)  -->
<svg version="1.1" id="Layer_1" xmlns="http://www.w3.org/2000/svg" xmlns:xlink="http://www.w3.org/1999/xlink" x="0px" y="0px"
	 viewBox="0 0 52.1 282.8" style="enable-background:new 0 0 52.1 282.8;" xml:space="preserve">
<style type="text/css">
	.st0{fill:none;stroke:#000000;stroke-width:3;stroke-miterlimit:10;}
</style>
<line class="st0" x1="25.7" y1="0" x2="25.7" y2="223"/>
<circle cx="25.7" cy="233.1" r="16.9"/>
<g>
	<path d="M31.8,221.2c0,0,0.1-0.1,0.2-0.2c0.1-0.1,0.3-0.4,0.6-0.7c0.5-0.6,1.2-1.6,2-2.7c1.5-2.4,3.2-5.8,3.6-9.6
		c0.1-0.9,0.1-1.9,0.1-2.8c-0.1-0.9-0.2-1.9-0.4-2.7c-0.2-0.9-0.5-1.7-0.8-2.5c-0.3-0.8-0.7-1.5-1-2.2c-0.4-0.6-0.7-1.2-1.1-1.7
		c-0.4-0.5-0.7-0.9-1-1.3c-0.6-0.7-0.9-1.1-0.9-1.1s0.4,0.3,1.1,0.9c0.4,0.3,0.7,0.7,1.2,1.1c0.5,0.4,0.9,1,1.5,1.5
		c0.5,0.6,1,1.3,1.5,2c0.5,0.8,1,1.6,1.4,2.5c0.4,0.9,0.7,1.9,1,3c0.2,1,0.4,2.1,0.5,3.2c0.2,2.2,0,4.4-0.5,6.4
		c-0.4,2-1,3.9-1.6,5.4c-0.6,1.5-1.2,2.8-1.7,3.6c-0.2,0.4-0.4,0.8-0.6,1c-0.2,0.3-0.2,0.4-0.2,0.4L31.8,221.2z"/>
</g>
<g>
	<path d="M14.9,224.8c0,0-0.1-0.1-0.2-0.4c-0.1-0.2-0.3-0.6-0.6-1c-0.5-0.9-1.1-2.1-1.7-3.6c-0.6-1.5-1.2-3.4-1.6-5.4
		c-0.4-2-0.6-4.2-0.5-6.4c0.1-1.1,0.3-2.2,0.5-3.2c0.3-1,0.6-2,1-3c0.4-0.9,0.9-1.8,1.4-2.5c0.5-0.8,1-1.4,1.5-2
		c0.5-0.6,1-1.1,1.5-1.5c0.5-0.4,0.9-0.8,1.2-1.1c0.7-0.6,1.1-0.9,1.1-0.9s-0.3,0.4-0.9,1.1c-0.3,0.3-0.6,0.8-1,1.3
		c-0.4,0.5-0.7,1.1-1.1,1.7c-0.4,0.7-0.7,1.4-1,2.2c-0.3,0.8-0.6,1.6-0.8,2.5c-0.2,0.9-0.3,1.8-0.4,2.7c0,0.9,0,1.9,0.1,2.8
		c0.4,3.8,2.1,7.2,3.6,9.6c0.8,1.2,1.5,2.1,2,2.7c0.3,0.3,0.5,0.5,0.6,0.7c0.1,0.1,0.2,0.2,0.2,0.2L14.9,224.8z"/>
</g>
<g>
	<path d="M38,223.3C38,223.3,38,223.4,38,223.3c0.1,0,0.1,0,0.2,0.1c0.1,0,0.4,0.1,0.7,0.1c0.6,0.1,1.5,0.2,2.6,0.1
		c1.1-0.1,2.3-0.3,3.3-1c0.5-0.3,1-0.8,1.5-1.3c0.5-0.5,0.8-1.2,1.1-1.9c0.3-0.7,0.5-1.5,0.7-2.3c0.2-0.8,0.2-1.6,0.3-2.4
		c0-0.4,0-0.8,0-1.2c0-0.4,0-0.8,0-1.2c0-0.8-0.1-1.5-0.2-2.1c-0.1-0.7-0.2-1.3-0.2-1.8c-0.1-0.5-0.2-1-0.2-1.4
		c-0.1-0.8-0.2-1.2-0.2-1.2s0.2,0.4,0.5,1.2c0.1,0.4,0.3,0.8,0.5,1.3c0.2,0.5,0.4,1.1,0.6,1.8c0.2,0.7,0.4,1.4,0.6,2.1
		c0.1,0.4,0.2,0.8,0.3,1.2c0.1,0.4,0.1,0.8,0.2,1.3c0.1,0.9,0.2,1.8,0.2,2.7c0,1-0.1,1.9-0.2,3c-0.2,1-0.5,2-1,3
		c-0.5,1-1.1,1.9-1.9,2.6c-0.8,0.7-1.6,1.3-2.5,1.8c-0.9,0.4-1.7,0.8-2.5,1c-1.6,0.5-2.9,0.6-3.9,0.6c-0.5,0-0.9,0-1.1,0
		c-0.1,0-0.3,0-0.4,0c-0.1,0-0.1,0-0.1,0L38,223.3z"/>
</g>
<g>
	<path d="M14.3,229.3c0,0,0,0-0.1,0c-0.1,0-0.2,0-0.4,0c-0.3,0-0.7,0-1.1,0c-1,0-2.3-0.2-3.9-0.6c-0.8-0.2-1.6-0.6-2.5-1
		c-0.9-0.5-1.7-1.1-2.5-1.8c-0.8-0.7-1.4-1.6-1.9-2.6c-0.5-1-0.8-2-1-3c-0.2-1-0.3-2-0.2-3c0-1,0.1-1.9,0.2-2.7
		c0.1-0.4,0.2-0.9,0.2-1.3c0.1-0.4,0.2-0.8,0.3-1.2c0.2-0.8,0.4-1.5,0.6-2.1c0.2-0.7,0.4-1.2,0.6-1.8c0.2-0.5,0.4-1,0.5-1.3
		c0.3-0.7,0.5-1.2,0.5-1.2s-0.1,0.4-0.2,1.2c-0.1,0.4-0.2,0.9-0.2,1.4c-0.1,0.5-0.2,1.2-0.2,1.8c0,0.7-0.1,1.4-0.2,2.1
		c0,0.4,0,0.8,0,1.2c0,0.4,0,0.8,0,1.2c0.1,0.8,0.1,1.6,0.3,2.4c0.1,0.8,0.4,1.6,0.7,2.3c0.3,0.7,0.7,1.4,1.1,1.9
		c0.5,0.5,0.9,1,1.5,1.3c1.1,0.7,2.3,0.9,3.3,1c1.1,0.1,2,0,2.6-0.1c0.3-0.1,0.5-0.1,0.7-0.1c0.1,0,0.1,0,0.1,0c0,0,0.1,0,0.1,0
		L14.3,229.3z"/>
</g>
<g>
	<path d="M15.6,232.9c0,0-0.1,0-0.3,0.1c-0.1,0-0.2,0.1-0.3,0.1c-0.2,0.1-0.3,0.1-0.5,0.2c-0.4,0.2-0.9,0.4-1.5,0.7
		c-0.3,0.2-0.6,0.3-0.9,0.5c-0.3,0.2-0.6,0.4-1,0.6c-0.3,0.2-0.7,0.4-1,0.7c-0.3,0.3-0.7,0.5-1,0.8c-0.6,0.6-1.4,1.3-2,2.1
		c-0.3,0.4-0.7,0.8-1,1.2c-0.3,0.4-0.6,0.9-0.9,1.3c-0.3,0.4-0.5,0.9-0.8,1.4c-0.2,0.5-0.5,1-0.7,1.5l-0.6,1.6
		c-0.2,0.5-0.4,1-0.5,1.6c-0.1,0.5-0.2,1.1-0.4,1.6c-0.1,0.5-0.3,1.1-0.3,1.6c-0.1,1.1-0.2,2.1-0.3,3.1c0,1,0,2,0,2.8
		c0,0.4,0,0.9,0,1.3c0,0.4,0.1,0.8,0.1,1.1c0.1,0.7,0.2,1.3,0.2,1.8c0.1,1,0.2,1.6,0.2,1.6s-0.2-0.6-0.4-1.6
		c-0.1-0.5-0.3-1.1-0.5-1.8c-0.1-0.4-0.2-0.7-0.3-1.1c-0.1-0.4-0.1-0.8-0.2-1.3c-0.2-0.9-0.3-1.9-0.5-2.9c-0.1-1-0.1-2.1-0.2-3.3
		c-0.1-0.6,0-1.2,0-1.7c0-0.6,0.1-1.2,0.1-1.8c0-0.6,0.2-1.2,0.3-1.8l0.3-1.8c0.1-0.6,0.4-1.2,0.6-1.8c0.2-0.6,0.4-1.2,0.6-1.8
		c0.3-0.6,0.5-1.1,0.8-1.7c0.2-0.6,0.6-1.1,0.9-1.6c0.6-1.1,1.4-2,2-2.9c0.4-0.4,0.7-0.8,1.1-1.2c0.4-0.4,0.7-0.8,1.1-1.1
		c0.4-0.3,0.7-0.7,1.1-0.9c0.4-0.3,0.7-0.5,1-0.8c0.7-0.5,1.3-0.9,1.8-1.2c0.3-0.2,0.5-0.3,0.7-0.4c0.2-0.1,0.4-0.2,0.6-0.3
		c0.3-0.1,0.4-0.2,0.4-0.2L15.6,232.9z"/>
</g>
<g>
	<path d="M38.6,227.3c0,0,0.2,0.1,0.4,0.2c0.2,0.1,0.4,0.2,0.6,0.3c0.2,0.1,0.4,0.3,0.7,0.4c0.5,0.3,1.1,0.7,1.8,1.2
		c0.3,0.2,0.7,0.5,1,0.8c0.4,0.3,0.7,0.6,1.1,0.9c0.4,0.3,0.7,0.7,1.1,1.1c0.4,0.4,0.7,0.8,1.1,1.2c0.7,0.9,1.4,1.8,2,2.9
		c0.3,0.5,0.7,1,0.9,1.6c0.3,0.6,0.5,1.1,0.8,1.7c0.3,0.6,0.4,1.2,0.6,1.8c0.2,0.6,0.4,1.2,0.6,1.8l0.3,1.8c0.1,0.6,0.3,1.2,0.3,1.8
		c0,0.6,0.1,1.2,0.1,1.8c0,0.6,0.1,1.2,0,1.7c-0.1,1.1-0.1,2.2-0.2,3.3c-0.2,1-0.3,2-0.5,2.9c-0.1,0.4-0.2,0.9-0.2,1.3
		c-0.1,0.4-0.2,0.8-0.3,1.1c-0.2,0.7-0.4,1.3-0.5,1.8c-0.3,1-0.4,1.6-0.4,1.6s0.1-0.6,0.2-1.6c0.1-0.5,0.1-1.1,0.2-1.8
		c0-0.4,0.1-0.7,0.1-1.1c0-0.4,0-0.8,0-1.3c0-0.9,0-1.8,0-2.8c-0.1-1-0.2-2-0.3-3.1c0-0.5-0.2-1.1-0.3-1.6c-0.1-0.5-0.2-1.1-0.4-1.6
		c-0.1-0.6-0.3-1.1-0.5-1.6l-0.6-1.6c-0.2-0.5-0.5-1-0.7-1.5c-0.3-0.5-0.5-1-0.8-1.4c-0.3-0.4-0.6-0.9-0.9-1.3
		c-0.3-0.4-0.7-0.8-1-1.2c-0.6-0.8-1.4-1.4-2-2.1c-0.3-0.3-0.7-0.6-1-0.8c-0.3-0.3-0.7-0.5-1-0.7c-0.3-0.2-0.6-0.4-1-0.6
		c-0.3-0.2-0.6-0.3-0.9-0.5c-0.6-0.3-1.1-0.5-1.5-0.7c-0.2-0.1-0.4-0.1-0.5-0.2c-0.2-0.1-0.2-0.1-0.3-0.1c-0.2-0.1-0.3-0.1-0.3-0.1
		L38.6,227.3z"/>
</g>
<g>
	<path d="M35.3,237.2c0,0,0,0,0.1,0.1c0.1,0.1,0.2,0.2,0.3,0.4c0.3,0.3,0.7,0.7,1.1,1.3c0.9,1.1,2.1,2.8,3.2,5
		c1.1,2.2,2.3,4.8,2.9,7.8c0.4,1.5,0.6,3,0.7,4.6c0.1,1.6,0.1,3.2-0.1,4.8c0,0.8-0.2,1.6-0.3,2.4c-0.1,0.8-0.3,1.5-0.5,2.3
		c-0.2,0.7-0.4,1.5-0.7,2.2c-0.3,0.7-0.5,1.4-0.8,2.1c-0.3,0.7-0.6,1.3-0.9,1.9c-0.3,0.6-0.7,1.2-1,1.8c-0.3,0.6-0.7,1.1-1,1.6
		c-0.3,0.5-0.6,1-1,1.5c-0.3,0.5-0.6,0.9-1,1.3c-0.3,0.4-0.6,0.8-0.9,1.2c-0.6,0.7-1.1,1.3-1.5,1.8c-0.9,1-1.4,1.5-1.4,1.5
		s0.4-0.6,1.2-1.7c0.4-0.5,0.8-1.2,1.3-2c0.2-0.4,0.5-0.8,0.8-1.2c0.2-0.4,0.5-0.9,0.8-1.4c0.3-0.5,0.5-1,0.8-1.6
		c0.2-0.5,0.5-1.1,0.8-1.7c0.2-0.6,0.5-1.2,0.7-1.8c0.2-0.6,0.4-1.3,0.6-1.9c0.2-0.7,0.3-1.3,0.5-2c0.1-0.7,0.2-1.4,0.4-2.1
		c0.1-0.7,0.2-1.4,0.2-2.1c0-0.7,0.1-1.4,0-2.1c0-1.4-0.2-2.8-0.5-4.2c-0.3-1.4-0.6-2.7-1.1-3.9c-0.9-2.5-2.2-4.6-3.3-6.3
		c-1.2-1.7-2.4-3-3.2-3.8c-0.4-0.4-0.8-0.7-1-0.9c-0.1-0.1-0.2-0.2-0.2-0.2c-0.1,0-0.1-0.1-0.1-0.1L35.3,237.2z"/>
</g>
<g>
	<path d="M22.4,241.6C22.4,241.6,22.3,241.7,22.4,241.6c-0.1,0.1-0.2,0.2-0.3,0.3c-0.2,0.2-0.6,0.5-1,0.9c-0.8,0.8-2,2.1-3.2,3.8
		c-1.2,1.7-2.4,3.8-3.3,6.3c-0.5,1.2-0.8,2.5-1.1,3.9c-0.3,1.4-0.5,2.8-0.5,4.2c-0.1,0.7,0,1.4,0,2.1c0,0.7,0.1,1.4,0.2,2.1
		c0.1,0.7,0.2,1.4,0.4,2.1c0.2,0.7,0.3,1.4,0.5,2c0.2,0.7,0.4,1.3,0.6,1.9c0.2,0.6,0.5,1.2,0.7,1.8c0.2,0.6,0.5,1.1,0.8,1.7
		c0.2,0.6,0.5,1.1,0.8,1.6c0.3,0.5,0.5,1,0.8,1.4c0.3,0.4,0.5,0.8,0.8,1.2c0.5,0.8,0.9,1.5,1.3,2c0.8,1.1,1.2,1.7,1.2,1.7
		s-0.5-0.6-1.4-1.5c-0.5-0.5-1-1.1-1.5-1.8c-0.3-0.4-0.6-0.7-0.9-1.2c-0.3-0.4-0.6-0.9-1-1.3c-0.3-0.5-0.7-1-1-1.5
		c-0.3-0.5-0.7-1.1-1-1.6c-0.3-0.6-0.6-1.2-1-1.8c-0.3-0.6-0.6-1.3-0.9-1.9c-0.3-0.7-0.5-1.4-0.8-2.1c-0.2-0.7-0.4-1.5-0.7-2.2
		c-0.2-0.8-0.4-1.5-0.5-2.3c-0.1-0.8-0.3-1.6-0.3-2.4c-0.2-1.6-0.1-3.2-0.1-4.8c0.1-1.6,0.4-3.1,0.7-4.6c0.7-3,1.8-5.6,2.9-7.8
		c1.1-2.2,2.3-3.8,3.2-5c0.4-0.6,0.8-1,1.1-1.3c0.1-0.1,0.3-0.3,0.3-0.4c0.1-0.1,0.1-0.1,0.1-0.1L22.4,241.6z"/>
</g>
</svg>
