<?xml version="1.0" encoding="utf-8"?>
<!-- Generator: Adobe Illustrator 19.1.0, SVG Export Plug-In . SVG Version: 6.00 Build 0)  -->
<svg version="1.1" id="Layer_1" xmlns="http://www.w3.org/2000/svg" xmlns:xlink="http://www.w3.org/1999/xlink" x="0px" y="0px"
	 viewBox="0 0 576 576" style="enable-background:new 0 0 576 576;" xml:space="preserve">
<g>
	<path d="M0.4,483.1c0-130,0-260,0-390C1.1,92,2.2,91,2.5,89.7c11.2-54.6,50.3-88.6,106.7-89c119.3-0.8,238.7-1,358,0.1
		c64.9,0.6,108.4,47.3,108.4,112.5c0,117,0,234.1,0,351.1c0,64.4-45.3,111-109.8,111.3c-118.4,0.5-236.8,0.2-355.3,0.1
		c-23.6,0-45.2-5.8-64.7-19.9C20.6,537.8,7.2,512.6,0.4,483.1z M304.1,71.4c-19,0-36.1-0.5-53,0.4c-3.5,0.2-8.4,5.4-9.7,9.3
		c-3.2,9.5-4,19.8-7.2,29.3c-13,39-40.2,63.9-78.2,77.1c0,20.8,0,40.8,0,62.7c15.7,0,30.5,0,46.3,0c0,53.8,0.2,105.8-0.1,157.8
		c-0.2,41.3,19.5,69.5,56.9,84.4c53.2,21.3,105.4,13.9,156.2-9.4c2.4-1.1,5.2-4.5,5.3-6.8c0.4-20.5,0.2-40.9,0.2-58.5
		c-22.5,5.3-43.8,13.2-65.6,14.9c-32.4,2.4-49.4-15.1-50.4-47.8c-0.8-24.4-0.3-48.8-0.3-73.3c0-20.2,0-40.3,0-62.1
		c34.9,0,68.3,0,101.5,0c0-23.6,0-45.4,0-68.8c-34.3,0-67.7,0-101.9,0C304.1,143.8,304.1,108.5,304.1,71.4z"/>
</g>
</svg>
