<svg xmlns="http://www.w3.org/2000/svg" viewBox="63 -63 576 576" enable-background="new 63 -63 576 576"><style type="text/css">.st0{fill:#FED245;}</style><path class="st0" d="M63.4 420.1v-390c.7-1.1 1.8-2.1 2.1-3.4 11.2-54.6 50.3-88.6 106.7-89 119.3-.8 238.7-1 358 .1 64.9.6 108.4 47.3 108.4 112.5v351.1c0 64.4-45.3 111-109.8 111.3-118.4.5-236.8.2-355.3.1-23.6 0-45.2-5.8-64.7-19.9-25.2-18.1-38.6-43.3-45.4-72.8zm303.7-411.7c-19 0-36.1-.5-53 .4-3.5.2-8.4 5.4-9.7 9.3l-7.2 29.3c-13 39-40.2 63.9-78.2 77.1v62.7h46.3c0 53.8.2 105.8-.1 157.8-.2 41.3 19.5 69.5 56.9 84.4 53.2 21.3 105.4 13.9 156.2-9.4 2.4-1.1 5.2-4.5 5.3-6.8.4-20.5.2-40.9.2-58.5-22.5 5.3-43.8 13.2-65.6 14.9-32.4 2.4-49.4-15.1-50.4-47.8-.8-24.4-.3-48.8-.3-73.3v-62.1h101.5v-68.8h-101.9v-109.2z"/></svg>